G04 #@! TF.GenerationSoftware,KiCad,Pcbnew,(6.0.0-0)*
G04 #@! TF.CreationDate,2022-04-11T17:58:48+02:00*
G04 #@! TF.ProjectId,ACSI2SD MSTE,41435349-3253-4442-904d-5354452e6b69,1.1*
G04 #@! TF.SameCoordinates,Original*
G04 #@! TF.FileFunction,Copper,L2,Bot*
G04 #@! TF.FilePolarity,Positive*
%FSLAX46Y46*%
G04 Gerber Fmt 4.6, Leading zero omitted, Abs format (unit mm)*
G04 Created by KiCad (PCBNEW (6.0.0-0)) date 2022-04-11 17:58:48*
%MOMM*%
%LPD*%
G01*
G04 APERTURE LIST*
G04 #@! TA.AperFunction,ComponentPad*
%ADD10R,1.700000X1.700000*%
G04 #@! TD*
G04 #@! TA.AperFunction,ComponentPad*
%ADD11C,1.700000*%
G04 #@! TD*
G04 #@! TA.AperFunction,ComponentPad*
%ADD12C,1.200000*%
G04 #@! TD*
G04 #@! TA.AperFunction,ComponentPad*
%ADD13C,1.600000*%
G04 #@! TD*
G04 #@! TA.AperFunction,ComponentPad*
%ADD14O,1.700000X1.700000*%
G04 #@! TD*
G04 #@! TA.AperFunction,ViaPad*
%ADD15C,0.800000*%
G04 #@! TD*
G04 #@! TA.AperFunction,Conductor*
%ADD16C,0.380000*%
G04 #@! TD*
G04 #@! TA.AperFunction,Conductor*
%ADD17C,0.250000*%
G04 #@! TD*
G04 #@! TA.AperFunction,Conductor*
%ADD18C,0.762000*%
G04 #@! TD*
G04 APERTURE END LIST*
D10*
G04 #@! TO.P,U1,1,PB12*
G04 #@! TO.N,/D4*
X144145000Y-126365000D03*
D11*
G04 #@! TO.P,U1,2,PB13*
G04 #@! TO.N,/D5*
X146685000Y-126365000D03*
G04 #@! TO.P,U1,3,PB14*
G04 #@! TO.N,/D6*
X149225000Y-126365000D03*
G04 #@! TO.P,U1,4,PB15*
G04 #@! TO.N,/D7*
X151765000Y-126365000D03*
G04 #@! TO.P,U1,5,PA8*
G04 #@! TO.N,PA8*
X154305000Y-126365000D03*
G04 #@! TO.P,U1,6,PA9*
G04 #@! TO.N,unconnected-(U1-Pad6)*
X156845000Y-126365000D03*
G04 #@! TO.P,U1,7,PA10*
G04 #@! TO.N,unconnected-(U1-Pad7)*
X159385000Y-126365000D03*
G04 #@! TO.P,U1,8,PA11*
G04 #@! TO.N,/DRQ*
X161925000Y-126365000D03*
G04 #@! TO.P,U1,9,PA12*
G04 #@! TO.N,PA12*
X164465000Y-126365000D03*
G04 #@! TO.P,U1,10,PA15*
G04 #@! TO.N,Net-(JP8-Pad2)*
X167005000Y-126365000D03*
G04 #@! TO.P,U1,11,PB3*
G04 #@! TO.N,PB3*
X169545000Y-126365000D03*
G04 #@! TO.P,U1,12,PB4*
G04 #@! TO.N,PB4*
X172085000Y-126365000D03*
G04 #@! TO.P,U1,13,PB5*
G04 #@! TO.N,unconnected-(U1-Pad13)*
X174625000Y-126365000D03*
G04 #@! TO.P,U1,14,PB6*
G04 #@! TO.N,/A0*
X177165000Y-126365000D03*
G04 #@! TO.P,U1,15,PB7*
G04 #@! TO.N,/CS*
X179705000Y-126365000D03*
G04 #@! TO.P,U1,16,PB8*
G04 #@! TO.N,/D0*
X182245000Y-126365000D03*
G04 #@! TO.P,U1,17,PB9*
G04 #@! TO.N,/D1*
X184785000Y-126365000D03*
G04 #@! TO.P,U1,18,5V*
G04 #@! TO.N,+5V*
X187325000Y-126365000D03*
G04 #@! TO.P,U1,19,GND*
G04 #@! TO.N,GND*
X189865000Y-126365000D03*
G04 #@! TO.P,U1,20,3V3*
G04 #@! TO.N,+3V3*
X192405000Y-126365000D03*
G04 #@! TO.P,U1,21,VBat*
G04 #@! TO.N,unconnected-(U1-Pad21)*
X192405000Y-111125000D03*
G04 #@! TO.P,U1,22,PC13*
G04 #@! TO.N,unconnected-(U1-Pad22)*
X189865000Y-111125000D03*
G04 #@! TO.P,U1,23,PC14*
G04 #@! TO.N,unconnected-(U1-Pad23)*
X187325000Y-111125000D03*
G04 #@! TO.P,U1,24,PC15*
G04 #@! TO.N,unconnected-(U1-Pad24)*
X184785000Y-111125000D03*
G04 #@! TO.P,U1,25,PA0*
G04 #@! TO.N,unconnected-(U1-Pad25)*
X182245000Y-111125000D03*
G04 #@! TO.P,U1,26,PA1*
G04 #@! TO.N,PA1*
X179705000Y-111125000D03*
G04 #@! TO.P,U1,27,PA2*
G04 #@! TO.N,PA2*
X177165000Y-111125000D03*
G04 #@! TO.P,U1,28,PA3*
G04 #@! TO.N,PA3*
X174625000Y-111125000D03*
G04 #@! TO.P,U1,29,PA4*
G04 #@! TO.N,SDCS*
X172085000Y-111125000D03*
G04 #@! TO.P,U1,30,PA5*
G04 #@! TO.N,CLK*
X169545000Y-111125000D03*
G04 #@! TO.P,U1,31,PA6*
G04 #@! TO.N,MISO*
X167005000Y-111125000D03*
G04 #@! TO.P,U1,32,PA7*
G04 #@! TO.N,MOSI*
X164465000Y-111125000D03*
G04 #@! TO.P,U1,33,PB0*
G04 #@! TO.N,PB2*
X161925000Y-111125000D03*
G04 #@! TO.P,U1,34,PB1*
G04 #@! TO.N,PB1*
X159385000Y-111125000D03*
G04 #@! TO.P,U1,35,PB10*
G04 #@! TO.N,/D2*
X156845000Y-111125000D03*
G04 #@! TO.P,U1,36,PB11*
G04 #@! TO.N,/D3*
X154305000Y-111125000D03*
G04 #@! TO.P,U1,37,RST*
G04 #@! TO.N,unconnected-(U1-Pad37)*
X151765000Y-111125000D03*
G04 #@! TO.P,U1,38,3V3*
G04 #@! TO.N,+3V3*
X149225000Y-111125000D03*
G04 #@! TO.P,U1,39,GND*
G04 #@! TO.N,GND*
X146685000Y-111125000D03*
G04 #@! TO.P,U1,40,GND*
X144145000Y-111125000D03*
G04 #@! TD*
D12*
G04 #@! TO.P,C2,1*
G04 #@! TO.N,+3V3*
X130810000Y-124460000D03*
G04 #@! TO.P,C2,2*
G04 #@! TO.N,GND*
X132810000Y-124460000D03*
G04 #@! TD*
D13*
G04 #@! TO.P,C1,1*
G04 #@! TO.N,+3V3*
X123865000Y-128270000D03*
G04 #@! TO.P,C1,2*
G04 #@! TO.N,GND*
X128865000Y-128270000D03*
G04 #@! TD*
D10*
G04 #@! TO.P,J1,1,Pin_1*
G04 #@! TO.N,/D0*
X212000000Y-143300000D03*
D14*
G04 #@! TO.P,J1,2,Pin_2*
X209460000Y-143300000D03*
G04 #@! TO.P,J1,3,Pin_3*
G04 #@! TO.N,/D1*
X212000000Y-140760000D03*
G04 #@! TO.P,J1,4,Pin_4*
X209460000Y-140760000D03*
G04 #@! TO.P,J1,5,Pin_5*
G04 #@! TO.N,/D2*
X212000000Y-138220000D03*
G04 #@! TO.P,J1,6,Pin_6*
X209460000Y-138220000D03*
G04 #@! TO.P,J1,7,Pin_7*
G04 #@! TO.N,/D3*
X212000000Y-135680000D03*
G04 #@! TO.P,J1,8,Pin_8*
X209460000Y-135680000D03*
G04 #@! TO.P,J1,9,Pin_9*
G04 #@! TO.N,/D4*
X212000000Y-133140000D03*
G04 #@! TO.P,J1,10,Pin_10*
X209460000Y-133140000D03*
G04 #@! TO.P,J1,11,Pin_11*
G04 #@! TO.N,/D5*
X212000000Y-130600000D03*
G04 #@! TO.P,J1,12,Pin_12*
X209460000Y-130600000D03*
G04 #@! TO.P,J1,13,Pin_13*
G04 #@! TO.N,/D6*
X212000000Y-128060000D03*
G04 #@! TO.P,J1,14,Pin_14*
X209460000Y-128060000D03*
G04 #@! TO.P,J1,15,Pin_15*
G04 #@! TO.N,/D7*
X212000000Y-125520000D03*
G04 #@! TO.P,J1,16,Pin_16*
X209460000Y-125520000D03*
G04 #@! TO.P,J1,17,Pin_17*
G04 #@! TO.N,/RST*
X212000000Y-122980000D03*
G04 #@! TO.P,J1,18,Pin_18*
G04 #@! TO.N,ACK*
X209460000Y-122980000D03*
G04 #@! TO.P,J1,19,Pin_19*
G04 #@! TO.N,/CS*
X212000000Y-120440000D03*
G04 #@! TO.P,J1,20,Pin_20*
G04 #@! TO.N,/A0*
X209460000Y-120440000D03*
G04 #@! TO.P,J1,21,Pin_21*
G04 #@! TO.N,unconnected-(J1-Pad21)*
X212000000Y-117900000D03*
G04 #@! TO.P,J1,22,Pin_22*
G04 #@! TO.N,/DRQ*
X209460000Y-117900000D03*
G04 #@! TO.P,J1,23,Pin_23*
G04 #@! TO.N,XHDINT*
X212000000Y-115360000D03*
G04 #@! TO.P,J1,24,Pin_24*
G04 #@! TO.N,unconnected-(J1-Pad24)*
X209460000Y-115360000D03*
G04 #@! TO.P,J1,25,Pin_25*
G04 #@! TO.N,GND*
X212000000Y-112820000D03*
G04 #@! TO.P,J1,26,Pin_26*
G04 #@! TO.N,+5V*
X209460000Y-112820000D03*
G04 #@! TO.P,J1,27,Pin_27*
G04 #@! TO.N,GND*
X212000000Y-110280000D03*
G04 #@! TO.P,J1,28,Pin_28*
G04 #@! TO.N,+5V*
X209460000Y-110280000D03*
G04 #@! TO.P,J1,29,Pin_29*
G04 #@! TO.N,GND*
X212000000Y-107740000D03*
G04 #@! TO.P,J1,30,Pin_30*
G04 #@! TO.N,+5V*
X209460000Y-107740000D03*
G04 #@! TD*
D15*
G04 #@! TO.N,PA8*
X205740000Y-106045000D03*
G04 #@! TO.N,PA12*
X199390000Y-106045000D03*
G04 #@! TO.N,PA8*
X200025000Y-111760000D03*
G04 #@! TO.N,Net-(JP8-Pad2)*
X194310000Y-132080000D03*
G04 #@! TO.N,/RST*
X199390000Y-132080000D03*
G04 #@! TO.N,PA12*
X166370000Y-123190000D03*
G04 #@! TO.N,MOSI*
X136525000Y-128270000D03*
G04 #@! TO.N,MISO*
X137795000Y-111125000D03*
G04 #@! TO.N,CLK*
X137160000Y-109855000D03*
G04 #@! TO.N,SDCS*
X136525000Y-130175000D03*
G04 #@! TD*
D16*
G04 #@! TO.N,PA12*
X198745000Y-107950000D02*
X183505000Y-123190000D01*
X183505000Y-123190000D02*
X166370000Y-123190000D01*
X198745000Y-106690000D02*
X198745000Y-107950000D01*
X199390000Y-106045000D02*
X198745000Y-106690000D01*
G04 #@! TO.N,PA8*
X205740000Y-106045000D02*
X200025000Y-111760000D01*
X200025000Y-111760000D02*
X198120000Y-113665000D01*
X198120000Y-113665000D02*
X198110000Y-113665000D01*
X154305000Y-126365000D02*
X156690489Y-123979511D01*
X156690489Y-123979511D02*
X187795489Y-123979511D01*
X187795489Y-123979511D02*
X198110000Y-113665000D01*
G04 #@! TO.N,Net-(JP8-Pad2)*
X167005000Y-126365000D02*
X172720000Y-132080000D01*
X172720000Y-132080000D02*
X194310000Y-132080000D01*
G04 #@! TO.N,/RST*
X212000000Y-122980000D02*
X210699511Y-124280489D01*
X210699511Y-124280489D02*
X207189511Y-124280489D01*
X207189511Y-124280489D02*
X199390000Y-132080000D01*
G04 #@! TO.N,/D7*
X151765000Y-126365000D02*
X159385000Y-133985000D01*
X159385000Y-133985000D02*
X201295000Y-133985000D01*
X201295000Y-133985000D02*
X209460000Y-125820000D01*
X209460000Y-125820000D02*
X209460000Y-125520000D01*
G04 #@! TO.N,/D6*
X149225000Y-126365000D02*
X158115000Y-135255000D01*
X158115000Y-135255000D02*
X202265000Y-135255000D01*
X202265000Y-135255000D02*
X209460000Y-128060000D01*
G04 #@! TO.N,/D5*
X146685000Y-126365000D02*
X156845000Y-136525000D01*
X156845000Y-136525000D02*
X203535000Y-136525000D01*
X203535000Y-136525000D02*
X209460000Y-130600000D01*
G04 #@! TO.N,/D4*
X144145000Y-126365000D02*
X155575000Y-137795000D01*
X155575000Y-137795000D02*
X204805000Y-137795000D01*
X204805000Y-137795000D02*
X209460000Y-133140000D01*
D17*
X212000000Y-133140000D02*
X209460000Y-133140000D01*
G04 #@! TO.N,/D5*
X212000000Y-130600000D02*
X209460000Y-130600000D01*
G04 #@! TO.N,/D6*
X212000000Y-128060000D02*
X209460000Y-128060000D01*
G04 #@! TO.N,/D7*
X212000000Y-125520000D02*
X209460000Y-125520000D01*
D16*
G04 #@! TO.N,/CS*
X208946577Y-119200489D02*
X210760489Y-119200489D01*
X182245000Y-128905000D02*
X199242066Y-128905000D01*
X210760489Y-119200489D02*
X212000000Y-120440000D01*
X199242066Y-128905000D02*
X208946577Y-119200489D01*
X179705000Y-126365000D02*
X182245000Y-128905000D01*
G04 #@! TO.N,/A0*
X199725000Y-130175000D02*
X209460000Y-120440000D01*
X180975000Y-130175000D02*
X199725000Y-130175000D01*
X177165000Y-126365000D02*
X180975000Y-130175000D01*
G04 #@! TO.N,/DRQ*
X198785489Y-127604511D02*
X208490000Y-117900000D01*
X161925000Y-126365000D02*
X163164511Y-125125489D01*
X182758423Y-125125489D02*
X183515000Y-125882066D01*
X184271577Y-127604511D02*
X198785489Y-127604511D01*
X183515000Y-126847934D02*
X184271577Y-127604511D01*
X183515000Y-125882066D02*
X183515000Y-126847934D01*
X163164511Y-125125489D02*
X182758423Y-125125489D01*
X208490000Y-117900000D02*
X209460000Y-117900000D01*
D18*
G04 #@! TO.N,+5V*
X200870000Y-112820000D02*
X209460000Y-112820000D01*
X187325000Y-126365000D02*
X200870000Y-112820000D01*
X209460000Y-107740000D02*
X209460000Y-112820000D01*
D16*
G04 #@! TO.N,MOSI*
X161290000Y-114300000D02*
X164465000Y-111125000D01*
X151130000Y-114300000D02*
X161290000Y-114300000D01*
X136525000Y-128270000D02*
X138430000Y-126365000D01*
X138430000Y-126365000D02*
X139065000Y-126365000D01*
X139065000Y-126365000D02*
X151130000Y-114300000D01*
G04 #@! TO.N,MISO*
X165735000Y-109855000D02*
X167005000Y-111125000D01*
X139065000Y-109855000D02*
X165735000Y-109855000D01*
X137795000Y-111125000D02*
X139065000Y-109855000D01*
G04 #@! TO.N,CLK*
X167640000Y-109220000D02*
X169545000Y-111125000D01*
X137795000Y-109220000D02*
X167640000Y-109220000D01*
X137160000Y-109855000D02*
X137795000Y-109220000D01*
G04 #@! TO.N,SDCS*
X170180000Y-113030000D02*
X172085000Y-111125000D01*
X165639511Y-113030000D02*
X170180000Y-113030000D01*
X136525000Y-130175000D02*
X151130000Y-115570000D01*
X163099511Y-115570000D02*
X165639511Y-113030000D01*
X151130000Y-115570000D02*
X163099511Y-115570000D01*
G04 #@! TD*
G04 #@! TA.AperFunction,Conductor*
G04 #@! TO.N,GND*
G36*
X213937121Y-100985002D02*
G01*
X213983614Y-101038658D01*
X213995000Y-101091000D01*
X213995000Y-156719000D01*
X213974998Y-156787121D01*
X213921342Y-156833614D01*
X213869000Y-156845000D01*
X90931000Y-156845000D01*
X90862879Y-156824998D01*
X90816386Y-156771342D01*
X90805000Y-156719000D01*
X90805000Y-153000000D01*
X91467416Y-153000000D01*
X91485736Y-153302859D01*
X91540427Y-153601301D01*
X91630693Y-153890975D01*
X91755217Y-154167656D01*
X91912184Y-154427310D01*
X91914525Y-154430298D01*
X91914527Y-154430301D01*
X91962865Y-154492000D01*
X92099304Y-154666151D01*
X92313849Y-154880696D01*
X92552690Y-155067816D01*
X92555944Y-155069783D01*
X92809083Y-155222812D01*
X92809087Y-155222814D01*
X92812344Y-155224783D01*
X92950684Y-155287045D01*
X93085549Y-155347743D01*
X93085555Y-155347745D01*
X93089025Y-155349307D01*
X93378699Y-155439573D01*
X93677141Y-155494264D01*
X93680933Y-155494493D01*
X93680938Y-155494494D01*
X93802716Y-155501860D01*
X93949220Y-155510722D01*
X93962503Y-155512237D01*
X93967461Y-155513071D01*
X93973959Y-155513150D01*
X93975141Y-155513165D01*
X93975145Y-155513165D01*
X93980000Y-155513224D01*
X94007588Y-155509273D01*
X94025451Y-155508000D01*
X101546793Y-155508000D01*
X101567697Y-155509746D01*
X101587461Y-155513071D01*
X101593651Y-155513147D01*
X101595136Y-155513165D01*
X101595141Y-155513165D01*
X101600000Y-155513224D01*
X101604810Y-155512535D01*
X101607301Y-155512373D01*
X101612890Y-155511804D01*
X101687496Y-155507291D01*
X101899062Y-155494494D01*
X101899067Y-155494493D01*
X101902859Y-155494264D01*
X102201301Y-155439573D01*
X102490975Y-155349307D01*
X102494445Y-155347745D01*
X102494451Y-155347743D01*
X102629316Y-155287045D01*
X102767656Y-155224783D01*
X102770913Y-155222814D01*
X102770917Y-155222812D01*
X103024056Y-155069783D01*
X103027310Y-155067816D01*
X103266151Y-154880696D01*
X103480696Y-154666151D01*
X103617135Y-154492000D01*
X103665473Y-154430301D01*
X103665475Y-154430298D01*
X103667816Y-154427310D01*
X103824783Y-154167656D01*
X103949307Y-153890975D01*
X104039573Y-153601301D01*
X104094264Y-153302859D01*
X104112584Y-153000000D01*
X104094264Y-152697141D01*
X104039573Y-152398699D01*
X103949307Y-152109025D01*
X103824783Y-151832344D01*
X103667816Y-151572690D01*
X103618420Y-151509640D01*
X103610882Y-151500019D01*
X103480696Y-151333849D01*
X103266151Y-151119304D01*
X103027310Y-150932184D01*
X102959611Y-150891258D01*
X102770917Y-150777188D01*
X102770913Y-150777186D01*
X102767656Y-150775217D01*
X102629316Y-150712955D01*
X102494451Y-150652257D01*
X102494445Y-150652255D01*
X102490975Y-150650693D01*
X102201301Y-150560427D01*
X101902859Y-150505736D01*
X101899067Y-150505507D01*
X101899062Y-150505506D01*
X101777283Y-150498140D01*
X101630780Y-150489278D01*
X101617497Y-150487763D01*
X101612539Y-150486929D01*
X101606041Y-150486850D01*
X101604859Y-150486835D01*
X101604855Y-150486835D01*
X101600000Y-150486776D01*
X101575715Y-150490254D01*
X101572412Y-150490727D01*
X101554549Y-150492000D01*
X94033207Y-150492000D01*
X94012303Y-150490254D01*
X94004100Y-150488874D01*
X93992539Y-150486929D01*
X93986349Y-150486853D01*
X93984864Y-150486835D01*
X93984859Y-150486835D01*
X93980000Y-150486776D01*
X93975190Y-150487465D01*
X93972699Y-150487627D01*
X93967110Y-150488196D01*
X93925264Y-150490727D01*
X93680938Y-150505506D01*
X93680933Y-150505507D01*
X93677141Y-150505736D01*
X93378699Y-150560427D01*
X93089025Y-150650693D01*
X93085555Y-150652255D01*
X93085549Y-150652257D01*
X92950684Y-150712955D01*
X92812344Y-150775217D01*
X92809087Y-150777186D01*
X92809083Y-150777188D01*
X92620389Y-150891258D01*
X92552690Y-150932184D01*
X92313849Y-151119304D01*
X92099304Y-151333849D01*
X91969118Y-151500019D01*
X91961581Y-151509640D01*
X91912184Y-151572690D01*
X91755217Y-151832344D01*
X91630693Y-152109025D01*
X91540427Y-152398699D01*
X91485736Y-152697141D01*
X91467416Y-153000000D01*
X90805000Y-153000000D01*
X90805000Y-148716000D01*
X90825002Y-148647879D01*
X90878658Y-148601386D01*
X90931000Y-148590000D01*
X100965000Y-148590000D01*
X100965000Y-135297575D01*
X109357404Y-135297575D01*
X109359313Y-135318554D01*
X109372416Y-135462522D01*
X109376218Y-135504303D01*
X109377956Y-135510209D01*
X109377957Y-135510213D01*
X109386254Y-135538402D01*
X109434827Y-135703440D01*
X109530999Y-135887400D01*
X109661071Y-136049177D01*
X109665788Y-136053135D01*
X109665790Y-136053137D01*
X109700898Y-136082596D01*
X109820089Y-136182609D01*
X109825481Y-136185573D01*
X109825485Y-136185576D01*
X109996598Y-136279646D01*
X110001995Y-136282613D01*
X110199861Y-136345379D01*
X110205978Y-136346065D01*
X110205982Y-136346066D01*
X110282598Y-136354659D01*
X110361413Y-136363500D01*
X110473237Y-136363500D01*
X110476293Y-136363200D01*
X110476300Y-136363200D01*
X110621466Y-136348966D01*
X110621469Y-136348965D01*
X110627592Y-136348365D01*
X110763605Y-136307301D01*
X110820407Y-136290152D01*
X110820410Y-136290151D01*
X110826315Y-136288368D01*
X110833635Y-136284476D01*
X111004153Y-136193809D01*
X111004155Y-136193808D01*
X111009599Y-136190913D01*
X111069471Y-136142083D01*
X111165689Y-136063610D01*
X111165692Y-136063607D01*
X111170464Y-136059715D01*
X111302783Y-135899770D01*
X111306876Y-135892201D01*
X111398584Y-135722590D01*
X111398586Y-135722585D01*
X111401514Y-135717170D01*
X111462898Y-135518871D01*
X111464429Y-135504303D01*
X111483952Y-135318554D01*
X111483952Y-135318552D01*
X111484596Y-135312425D01*
X111483920Y-135305000D01*
X130107502Y-135305000D01*
X130127457Y-135533087D01*
X130128881Y-135538400D01*
X130128881Y-135538402D01*
X130180688Y-135731745D01*
X130186716Y-135754243D01*
X130189039Y-135759224D01*
X130189039Y-135759225D01*
X130281151Y-135956762D01*
X130281154Y-135956767D01*
X130283477Y-135961749D01*
X130341334Y-136044377D01*
X130374978Y-136092425D01*
X130414802Y-136149300D01*
X130576700Y-136311198D01*
X130581208Y-136314355D01*
X130581211Y-136314357D01*
X130650966Y-136363200D01*
X130764251Y-136442523D01*
X130769233Y-136444846D01*
X130769238Y-136444849D01*
X130863900Y-136488990D01*
X130971757Y-136539284D01*
X130977065Y-136540706D01*
X130977067Y-136540707D01*
X131187598Y-136597119D01*
X131187600Y-136597119D01*
X131192913Y-136598543D01*
X131292480Y-136607254D01*
X131361149Y-136613262D01*
X131361156Y-136613262D01*
X131363873Y-136613500D01*
X131478127Y-136613500D01*
X131480844Y-136613262D01*
X131480851Y-136613262D01*
X131549520Y-136607254D01*
X131649087Y-136598543D01*
X131654400Y-136597119D01*
X131654402Y-136597119D01*
X131864933Y-136540707D01*
X131864935Y-136540706D01*
X131870243Y-136539284D01*
X131978100Y-136488990D01*
X132072762Y-136444849D01*
X132072767Y-136444846D01*
X132077749Y-136442523D01*
X132191034Y-136363200D01*
X132260789Y-136314357D01*
X132260792Y-136314355D01*
X132265300Y-136311198D01*
X132427198Y-136149300D01*
X132467023Y-136092425D01*
X132500666Y-136044377D01*
X132558523Y-135961749D01*
X132560846Y-135956767D01*
X132560849Y-135956762D01*
X132652961Y-135759225D01*
X132652961Y-135759224D01*
X132655284Y-135754243D01*
X132661313Y-135731745D01*
X132713119Y-135538402D01*
X132713119Y-135538400D01*
X132714543Y-135533087D01*
X132734498Y-135305000D01*
X132714543Y-135076913D01*
X132704810Y-135040590D01*
X132656707Y-134861067D01*
X132656706Y-134861065D01*
X132655284Y-134855757D01*
X132637865Y-134818401D01*
X132560849Y-134653238D01*
X132560846Y-134653233D01*
X132558523Y-134648251D01*
X132484198Y-134542104D01*
X132430357Y-134465211D01*
X132430355Y-134465208D01*
X132427198Y-134460700D01*
X132265300Y-134298802D01*
X132260792Y-134295645D01*
X132260789Y-134295643D01*
X132101590Y-134184171D01*
X132077749Y-134167477D01*
X132072767Y-134165154D01*
X132072762Y-134165151D01*
X131875225Y-134073039D01*
X131875224Y-134073039D01*
X131870243Y-134070716D01*
X131864935Y-134069294D01*
X131864933Y-134069293D01*
X131654402Y-134012881D01*
X131654400Y-134012881D01*
X131649087Y-134011457D01*
X131549520Y-134002746D01*
X131480851Y-133996738D01*
X131480844Y-133996738D01*
X131478127Y-133996500D01*
X131363873Y-133996500D01*
X131361156Y-133996738D01*
X131361149Y-133996738D01*
X131292480Y-134002746D01*
X131192913Y-134011457D01*
X131187600Y-134012881D01*
X131187598Y-134012881D01*
X130977067Y-134069293D01*
X130977065Y-134069294D01*
X130971757Y-134070716D01*
X130966776Y-134073039D01*
X130966775Y-134073039D01*
X130769238Y-134165151D01*
X130769233Y-134165154D01*
X130764251Y-134167477D01*
X130740410Y-134184171D01*
X130581211Y-134295643D01*
X130581208Y-134295645D01*
X130576700Y-134298802D01*
X130414802Y-134460700D01*
X130411645Y-134465208D01*
X130411643Y-134465211D01*
X130357802Y-134542104D01*
X130283477Y-134648251D01*
X130281154Y-134653233D01*
X130281151Y-134653238D01*
X130204135Y-134818401D01*
X130186716Y-134855757D01*
X130185294Y-134861065D01*
X130185293Y-134861067D01*
X130137190Y-135040590D01*
X130127457Y-135076913D01*
X130107502Y-135305000D01*
X111483920Y-135305000D01*
X111465782Y-135105697D01*
X111463298Y-135097255D01*
X111408912Y-134912469D01*
X111407173Y-134906560D01*
X111311001Y-134722600D01*
X111180929Y-134560823D01*
X111175395Y-134556179D01*
X111026629Y-134431350D01*
X111021911Y-134427391D01*
X111016519Y-134424427D01*
X111016515Y-134424424D01*
X110845402Y-134330354D01*
X110840005Y-134327387D01*
X110642139Y-134264621D01*
X110636022Y-134263935D01*
X110636018Y-134263934D01*
X110559402Y-134255341D01*
X110480587Y-134246500D01*
X110368763Y-134246500D01*
X110365707Y-134246800D01*
X110365700Y-134246800D01*
X110220534Y-134261034D01*
X110220531Y-134261035D01*
X110214408Y-134261635D01*
X110082454Y-134301474D01*
X110021593Y-134319848D01*
X110021590Y-134319849D01*
X110015685Y-134321632D01*
X110010240Y-134324527D01*
X110010238Y-134324528D01*
X109837847Y-134416191D01*
X109837845Y-134416192D01*
X109832401Y-134419087D01*
X109786157Y-134456803D01*
X109676311Y-134546390D01*
X109676308Y-134546393D01*
X109671536Y-134550285D01*
X109539217Y-134710230D01*
X109536288Y-134715647D01*
X109536286Y-134715650D01*
X109443416Y-134887410D01*
X109443414Y-134887415D01*
X109440486Y-134892830D01*
X109379102Y-135091129D01*
X109378458Y-135097254D01*
X109378458Y-135097255D01*
X109363881Y-135235954D01*
X109357404Y-135297575D01*
X100965000Y-135297575D01*
X100965000Y-130175000D01*
X135611496Y-130175000D01*
X135631458Y-130364928D01*
X135690473Y-130546556D01*
X135693776Y-130552278D01*
X135693777Y-130552279D01*
X135721329Y-130600000D01*
X135785960Y-130711944D01*
X135790378Y-130716851D01*
X135790379Y-130716852D01*
X135848918Y-130781866D01*
X135913747Y-130853866D01*
X136068248Y-130966118D01*
X136074276Y-130968802D01*
X136074278Y-130968803D01*
X136236681Y-131041109D01*
X136242712Y-131043794D01*
X136336112Y-131063647D01*
X136423056Y-131082128D01*
X136423061Y-131082128D01*
X136429513Y-131083500D01*
X136620487Y-131083500D01*
X136626939Y-131082128D01*
X136626944Y-131082128D01*
X136713888Y-131063647D01*
X136807288Y-131043794D01*
X136813319Y-131041109D01*
X136975722Y-130968803D01*
X136975724Y-130968802D01*
X136981752Y-130966118D01*
X137136253Y-130853866D01*
X137201082Y-130781866D01*
X137259621Y-130716852D01*
X137259622Y-130716851D01*
X137264040Y-130711944D01*
X137328671Y-130600000D01*
X137356223Y-130552279D01*
X137356224Y-130552278D01*
X137359527Y-130546556D01*
X137418542Y-130364928D01*
X137425111Y-130302428D01*
X137452124Y-130236771D01*
X137461326Y-130226503D01*
X151382423Y-116305405D01*
X151444735Y-116271379D01*
X151471518Y-116268500D01*
X163070952Y-116268500D01*
X163079521Y-116268792D01*
X163128760Y-116272149D01*
X163128764Y-116272149D01*
X163136336Y-116272665D01*
X163143813Y-116271360D01*
X163143815Y-116271360D01*
X163182451Y-116264617D01*
X163198353Y-116261841D01*
X163204871Y-116260880D01*
X163267350Y-116253319D01*
X163274456Y-116250634D01*
X163277993Y-116249765D01*
X163291919Y-116245955D01*
X163295394Y-116244906D01*
X163302883Y-116243599D01*
X163360523Y-116218297D01*
X163366629Y-116215805D01*
X163418396Y-116196244D01*
X163418400Y-116196242D01*
X163425500Y-116193559D01*
X163431760Y-116189257D01*
X163434982Y-116187572D01*
X163447634Y-116180530D01*
X163450737Y-116178695D01*
X163457687Y-116175644D01*
X163463710Y-116171022D01*
X163463714Y-116171020D01*
X163507623Y-116137328D01*
X163512959Y-116133451D01*
X163558570Y-116102104D01*
X163558574Y-116102101D01*
X163564830Y-116097801D01*
X163605661Y-116051973D01*
X163610643Y-116046697D01*
X164741386Y-114915954D01*
X165891934Y-113765405D01*
X165954246Y-113731380D01*
X165981029Y-113728500D01*
X170151441Y-113728500D01*
X170160010Y-113728792D01*
X170209249Y-113732149D01*
X170209253Y-113732149D01*
X170216825Y-113732665D01*
X170224302Y-113731360D01*
X170224304Y-113731360D01*
X170262940Y-113724617D01*
X170278842Y-113721841D01*
X170285360Y-113720880D01*
X170347839Y-113713319D01*
X170354945Y-113710634D01*
X170358482Y-113709765D01*
X170372408Y-113705955D01*
X170375883Y-113704906D01*
X170383372Y-113703599D01*
X170441012Y-113678297D01*
X170447118Y-113675805D01*
X170498885Y-113656244D01*
X170498889Y-113656242D01*
X170505989Y-113653559D01*
X170512249Y-113649257D01*
X170515471Y-113647572D01*
X170528123Y-113640530D01*
X170531226Y-113638695D01*
X170538176Y-113635644D01*
X170544199Y-113631022D01*
X170544203Y-113631020D01*
X170588112Y-113597328D01*
X170593448Y-113593451D01*
X170639059Y-113562104D01*
X170639063Y-113562101D01*
X170645319Y-113557801D01*
X170686150Y-113511973D01*
X170691132Y-113506697D01*
X171705933Y-112491895D01*
X171768245Y-112457870D01*
X171820149Y-112457520D01*
X171851025Y-112463802D01*
X171923597Y-112478567D01*
X171928772Y-112478757D01*
X171928774Y-112478757D01*
X172141673Y-112486564D01*
X172141677Y-112486564D01*
X172146837Y-112486753D01*
X172151957Y-112486097D01*
X172151959Y-112486097D01*
X172363288Y-112459025D01*
X172363289Y-112459025D01*
X172368416Y-112458368D01*
X172373376Y-112456880D01*
X172577429Y-112395661D01*
X172577434Y-112395659D01*
X172582384Y-112394174D01*
X172782994Y-112295896D01*
X172964860Y-112166173D01*
X173123096Y-112008489D01*
X173132670Y-111995166D01*
X173253453Y-111827077D01*
X173254776Y-111828028D01*
X173301645Y-111784857D01*
X173371580Y-111772625D01*
X173437026Y-111800144D01*
X173464875Y-111831994D01*
X173524987Y-111930088D01*
X173671250Y-112098938D01*
X173843126Y-112241632D01*
X174036000Y-112354338D01*
X174244692Y-112434030D01*
X174249760Y-112435061D01*
X174249763Y-112435062D01*
X174354604Y-112456392D01*
X174463597Y-112478567D01*
X174468772Y-112478757D01*
X174468774Y-112478757D01*
X174681673Y-112486564D01*
X174681677Y-112486564D01*
X174686837Y-112486753D01*
X174691957Y-112486097D01*
X174691959Y-112486097D01*
X174903288Y-112459025D01*
X174903289Y-112459025D01*
X174908416Y-112458368D01*
X174913376Y-112456880D01*
X175117429Y-112395661D01*
X175117434Y-112395659D01*
X175122384Y-112394174D01*
X175322994Y-112295896D01*
X175504860Y-112166173D01*
X175663096Y-112008489D01*
X175672670Y-111995166D01*
X175793453Y-111827077D01*
X175794776Y-111828028D01*
X175841645Y-111784857D01*
X175911580Y-111772625D01*
X175977026Y-111800144D01*
X176004875Y-111831994D01*
X176064987Y-111930088D01*
X176211250Y-112098938D01*
X176383126Y-112241632D01*
X176576000Y-112354338D01*
X176784692Y-112434030D01*
X176789760Y-112435061D01*
X176789763Y-112435062D01*
X176894604Y-112456392D01*
X177003597Y-112478567D01*
X177008772Y-112478757D01*
X177008774Y-112478757D01*
X177221673Y-112486564D01*
X177221677Y-112486564D01*
X177226837Y-112486753D01*
X177231957Y-112486097D01*
X177231959Y-112486097D01*
X177443288Y-112459025D01*
X177443289Y-112459025D01*
X177448416Y-112458368D01*
X177453376Y-112456880D01*
X177657429Y-112395661D01*
X177657434Y-112395659D01*
X177662384Y-112394174D01*
X177862994Y-112295896D01*
X178044860Y-112166173D01*
X178203096Y-112008489D01*
X178212670Y-111995166D01*
X178333453Y-111827077D01*
X178334776Y-111828028D01*
X178381645Y-111784857D01*
X178451580Y-111772625D01*
X178517026Y-111800144D01*
X178544875Y-111831994D01*
X178604987Y-111930088D01*
X178751250Y-112098938D01*
X178923126Y-112241632D01*
X179116000Y-112354338D01*
X179324692Y-112434030D01*
X179329760Y-112435061D01*
X179329763Y-112435062D01*
X179434604Y-112456392D01*
X179543597Y-112478567D01*
X179548772Y-112478757D01*
X179548774Y-112478757D01*
X179761673Y-112486564D01*
X179761677Y-112486564D01*
X179766837Y-112486753D01*
X179771957Y-112486097D01*
X179771959Y-112486097D01*
X179983288Y-112459025D01*
X179983289Y-112459025D01*
X179988416Y-112458368D01*
X179993376Y-112456880D01*
X180197429Y-112395661D01*
X180197434Y-112395659D01*
X180202384Y-112394174D01*
X180402994Y-112295896D01*
X180584860Y-112166173D01*
X180743096Y-112008489D01*
X180752670Y-111995166D01*
X180873453Y-111827077D01*
X180874776Y-111828028D01*
X180921645Y-111784857D01*
X180991580Y-111772625D01*
X181057026Y-111800144D01*
X181084875Y-111831994D01*
X181144987Y-111930088D01*
X181291250Y-112098938D01*
X181463126Y-112241632D01*
X181656000Y-112354338D01*
X181864692Y-112434030D01*
X181869760Y-112435061D01*
X181869763Y-112435062D01*
X181974604Y-112456392D01*
X182083597Y-112478567D01*
X182088772Y-112478757D01*
X182088774Y-112478757D01*
X182301673Y-112486564D01*
X182301677Y-112486564D01*
X182306837Y-112486753D01*
X182311957Y-112486097D01*
X182311959Y-112486097D01*
X182523288Y-112459025D01*
X182523289Y-112459025D01*
X182528416Y-112458368D01*
X182533376Y-112456880D01*
X182737429Y-112395661D01*
X182737434Y-112395659D01*
X182742384Y-112394174D01*
X182942994Y-112295896D01*
X183124860Y-112166173D01*
X183283096Y-112008489D01*
X183292670Y-111995166D01*
X183413453Y-111827077D01*
X183414776Y-111828028D01*
X183461645Y-111784857D01*
X183531580Y-111772625D01*
X183597026Y-111800144D01*
X183624875Y-111831994D01*
X183684987Y-111930088D01*
X183831250Y-112098938D01*
X184003126Y-112241632D01*
X184196000Y-112354338D01*
X184404692Y-112434030D01*
X184409760Y-112435061D01*
X184409763Y-112435062D01*
X184514604Y-112456392D01*
X184623597Y-112478567D01*
X184628772Y-112478757D01*
X184628774Y-112478757D01*
X184841673Y-112486564D01*
X184841677Y-112486564D01*
X184846837Y-112486753D01*
X184851957Y-112486097D01*
X184851959Y-112486097D01*
X185063288Y-112459025D01*
X185063289Y-112459025D01*
X185068416Y-112458368D01*
X185073376Y-112456880D01*
X185277429Y-112395661D01*
X185277434Y-112395659D01*
X185282384Y-112394174D01*
X185482994Y-112295896D01*
X185664860Y-112166173D01*
X185823096Y-112008489D01*
X185832670Y-111995166D01*
X185953453Y-111827077D01*
X185954776Y-111828028D01*
X186001645Y-111784857D01*
X186071580Y-111772625D01*
X186137026Y-111800144D01*
X186164875Y-111831994D01*
X186224987Y-111930088D01*
X186371250Y-112098938D01*
X186543126Y-112241632D01*
X186736000Y-112354338D01*
X186944692Y-112434030D01*
X186949760Y-112435061D01*
X186949763Y-112435062D01*
X187054604Y-112456392D01*
X187163597Y-112478567D01*
X187168772Y-112478757D01*
X187168774Y-112478757D01*
X187381673Y-112486564D01*
X187381677Y-112486564D01*
X187386837Y-112486753D01*
X187391957Y-112486097D01*
X187391959Y-112486097D01*
X187603288Y-112459025D01*
X187603289Y-112459025D01*
X187608416Y-112458368D01*
X187613376Y-112456880D01*
X187817429Y-112395661D01*
X187817434Y-112395659D01*
X187822384Y-112394174D01*
X188022994Y-112295896D01*
X188204860Y-112166173D01*
X188363096Y-112008489D01*
X188372670Y-111995166D01*
X188493453Y-111827077D01*
X188494776Y-111828028D01*
X188541645Y-111784857D01*
X188611580Y-111772625D01*
X188677026Y-111800144D01*
X188704875Y-111831994D01*
X188764987Y-111930088D01*
X188911250Y-112098938D01*
X189083126Y-112241632D01*
X189276000Y-112354338D01*
X189484692Y-112434030D01*
X189489760Y-112435061D01*
X189489763Y-112435062D01*
X189594604Y-112456392D01*
X189703597Y-112478567D01*
X189708772Y-112478757D01*
X189708774Y-112478757D01*
X189921673Y-112486564D01*
X189921677Y-112486564D01*
X189926837Y-112486753D01*
X189931957Y-112486097D01*
X189931959Y-112486097D01*
X190143288Y-112459025D01*
X190143289Y-112459025D01*
X190148416Y-112458368D01*
X190153376Y-112456880D01*
X190357429Y-112395661D01*
X190357434Y-112395659D01*
X190362384Y-112394174D01*
X190562994Y-112295896D01*
X190744860Y-112166173D01*
X190903096Y-112008489D01*
X190912670Y-111995166D01*
X191033453Y-111827077D01*
X191034776Y-111828028D01*
X191081645Y-111784857D01*
X191151580Y-111772625D01*
X191217026Y-111800144D01*
X191244875Y-111831994D01*
X191304987Y-111930088D01*
X191451250Y-112098938D01*
X191623126Y-112241632D01*
X191816000Y-112354338D01*
X192024692Y-112434030D01*
X192029760Y-112435061D01*
X192029763Y-112435062D01*
X192134604Y-112456392D01*
X192243597Y-112478567D01*
X192248772Y-112478757D01*
X192248774Y-112478757D01*
X192461673Y-112486564D01*
X192461677Y-112486564D01*
X192466837Y-112486753D01*
X192471957Y-112486097D01*
X192471959Y-112486097D01*
X192683288Y-112459025D01*
X192683289Y-112459025D01*
X192688416Y-112458368D01*
X192693376Y-112456880D01*
X192897429Y-112395661D01*
X192897434Y-112395659D01*
X192902384Y-112394174D01*
X193027537Y-112332862D01*
X193097511Y-112320855D01*
X193162868Y-112348585D01*
X193202858Y-112407248D01*
X193204784Y-112478218D01*
X193172064Y-112535108D01*
X183252577Y-122454595D01*
X183190265Y-122488621D01*
X183163482Y-122491500D01*
X166995169Y-122491500D01*
X166927048Y-122471498D01*
X166921108Y-122467436D01*
X166832094Y-122402763D01*
X166832093Y-122402762D01*
X166826752Y-122398882D01*
X166820724Y-122396198D01*
X166820722Y-122396197D01*
X166658319Y-122323891D01*
X166658318Y-122323891D01*
X166652288Y-122321206D01*
X166558887Y-122301353D01*
X166471944Y-122282872D01*
X166471939Y-122282872D01*
X166465487Y-122281500D01*
X166274513Y-122281500D01*
X166268061Y-122282872D01*
X166268056Y-122282872D01*
X166181113Y-122301353D01*
X166087712Y-122321206D01*
X166081682Y-122323891D01*
X166081681Y-122323891D01*
X165919278Y-122396197D01*
X165919276Y-122396198D01*
X165913248Y-122398882D01*
X165758747Y-122511134D01*
X165630960Y-122653056D01*
X165535473Y-122818444D01*
X165476458Y-123000072D01*
X165475769Y-123006631D01*
X165475768Y-123006634D01*
X165458789Y-123168182D01*
X165431776Y-123233838D01*
X165373554Y-123274468D01*
X165333479Y-123281011D01*
X156719060Y-123281011D01*
X156710490Y-123280719D01*
X156661240Y-123277361D01*
X156661236Y-123277361D01*
X156653664Y-123276845D01*
X156646187Y-123278150D01*
X156646186Y-123278150D01*
X156631467Y-123280719D01*
X156591636Y-123287671D01*
X156585118Y-123288632D01*
X156565395Y-123291019D01*
X156530193Y-123295279D01*
X156530192Y-123295279D01*
X156522650Y-123296192D01*
X156515548Y-123298875D01*
X156512048Y-123299735D01*
X156498051Y-123303564D01*
X156494600Y-123304606D01*
X156487117Y-123305912D01*
X156480162Y-123308965D01*
X156429477Y-123331214D01*
X156423371Y-123333706D01*
X156371604Y-123353267D01*
X156371600Y-123353269D01*
X156364500Y-123355952D01*
X156358240Y-123360254D01*
X156355018Y-123361939D01*
X156342366Y-123368981D01*
X156339263Y-123370816D01*
X156332313Y-123373867D01*
X156326290Y-123378489D01*
X156326286Y-123378491D01*
X156282377Y-123412183D01*
X156277041Y-123416060D01*
X156231430Y-123447407D01*
X156231426Y-123447410D01*
X156225170Y-123451710D01*
X156220120Y-123457378D01*
X156220119Y-123457379D01*
X156184339Y-123497538D01*
X156179357Y-123502814D01*
X155419197Y-124262975D01*
X154684320Y-124997852D01*
X154622008Y-125031877D01*
X154573129Y-125032804D01*
X154438373Y-125008800D01*
X154438367Y-125008799D01*
X154433284Y-125007894D01*
X154359452Y-125006992D01*
X154215081Y-125005228D01*
X154215079Y-125005228D01*
X154209911Y-125005165D01*
X153989091Y-125038955D01*
X153776756Y-125108357D01*
X153718543Y-125138661D01*
X153642432Y-125178282D01*
X153578607Y-125211507D01*
X153574477Y-125214608D01*
X153574471Y-125214612D01*
X153404100Y-125342530D01*
X153399965Y-125345635D01*
X153396393Y-125349373D01*
X153260238Y-125491851D01*
X153245629Y-125507138D01*
X153138201Y-125664621D01*
X153083293Y-125709621D01*
X153012768Y-125717792D01*
X152949021Y-125686538D01*
X152928324Y-125662054D01*
X152847822Y-125537617D01*
X152847820Y-125537614D01*
X152845014Y-125533277D01*
X152694670Y-125368051D01*
X152690619Y-125364852D01*
X152690615Y-125364848D01*
X152523414Y-125232800D01*
X152523410Y-125232798D01*
X152519359Y-125229598D01*
X152323789Y-125121638D01*
X152318920Y-125119914D01*
X152318916Y-125119912D01*
X152118087Y-125048795D01*
X152118083Y-125048794D01*
X152113212Y-125047069D01*
X152108119Y-125046162D01*
X152108116Y-125046161D01*
X151898373Y-125008800D01*
X151898367Y-125008799D01*
X151893284Y-125007894D01*
X151819452Y-125006992D01*
X151675081Y-125005228D01*
X151675079Y-125005228D01*
X151669911Y-125005165D01*
X151449091Y-125038955D01*
X151236756Y-125108357D01*
X151178543Y-125138661D01*
X151102432Y-125178282D01*
X151038607Y-125211507D01*
X151034477Y-125214608D01*
X151034471Y-125214612D01*
X150864100Y-125342530D01*
X150859965Y-125345635D01*
X150856393Y-125349373D01*
X150720238Y-125491851D01*
X150705629Y-125507138D01*
X150598201Y-125664621D01*
X150543293Y-125709621D01*
X150472768Y-125717792D01*
X150409021Y-125686538D01*
X150388324Y-125662054D01*
X150307822Y-125537617D01*
X150307820Y-125537614D01*
X150305014Y-125533277D01*
X150154670Y-125368051D01*
X150150619Y-125364852D01*
X150150615Y-125364848D01*
X149983414Y-125232800D01*
X149983410Y-125232798D01*
X149979359Y-125229598D01*
X149783789Y-125121638D01*
X149778920Y-125119914D01*
X149778916Y-125119912D01*
X149578087Y-125048795D01*
X149578083Y-125048794D01*
X149573212Y-125047069D01*
X149568119Y-125046162D01*
X149568116Y-125046161D01*
X149358373Y-125008800D01*
X149358367Y-125008799D01*
X149353284Y-125007894D01*
X149279452Y-125006992D01*
X149135081Y-125005228D01*
X149135079Y-125005228D01*
X149129911Y-125005165D01*
X148909091Y-125038955D01*
X148696756Y-125108357D01*
X148638543Y-125138661D01*
X148562432Y-125178282D01*
X148498607Y-125211507D01*
X148494477Y-125214608D01*
X148494471Y-125214612D01*
X148324100Y-125342530D01*
X148319965Y-125345635D01*
X148316393Y-125349373D01*
X148180238Y-125491851D01*
X148165629Y-125507138D01*
X148058201Y-125664621D01*
X148003293Y-125709621D01*
X147932768Y-125717792D01*
X147869021Y-125686538D01*
X147848324Y-125662054D01*
X147767822Y-125537617D01*
X147767820Y-125537614D01*
X147765014Y-125533277D01*
X147614670Y-125368051D01*
X147610619Y-125364852D01*
X147610615Y-125364848D01*
X147443414Y-125232800D01*
X147443410Y-125232798D01*
X147439359Y-125229598D01*
X147243789Y-125121638D01*
X147238920Y-125119914D01*
X147238916Y-125119912D01*
X147038087Y-125048795D01*
X147038083Y-125048794D01*
X147033212Y-125047069D01*
X147028119Y-125046162D01*
X147028116Y-125046161D01*
X146818373Y-125008800D01*
X146818367Y-125008799D01*
X146813284Y-125007894D01*
X146739452Y-125006992D01*
X146595081Y-125005228D01*
X146595079Y-125005228D01*
X146589911Y-125005165D01*
X146369091Y-125038955D01*
X146156756Y-125108357D01*
X146098543Y-125138661D01*
X146022432Y-125178282D01*
X145958607Y-125211507D01*
X145954477Y-125214608D01*
X145954471Y-125214612D01*
X145784100Y-125342530D01*
X145779965Y-125345635D01*
X145723537Y-125404684D01*
X145699283Y-125430064D01*
X145637759Y-125465494D01*
X145566846Y-125462037D01*
X145509060Y-125420791D01*
X145490207Y-125387243D01*
X145448767Y-125276703D01*
X145445615Y-125268295D01*
X145358261Y-125151739D01*
X145241705Y-125064385D01*
X145105316Y-125013255D01*
X145043134Y-125006500D01*
X143246866Y-125006500D01*
X143184684Y-125013255D01*
X143048295Y-125064385D01*
X142931739Y-125151739D01*
X142844385Y-125268295D01*
X142793255Y-125404684D01*
X142786500Y-125466866D01*
X142786500Y-127263134D01*
X142793255Y-127325316D01*
X142844385Y-127461705D01*
X142931739Y-127578261D01*
X143048295Y-127665615D01*
X143184684Y-127716745D01*
X143246866Y-127723500D01*
X144463481Y-127723500D01*
X144531602Y-127743502D01*
X144552576Y-127760405D01*
X155060872Y-138268700D01*
X155066726Y-138274965D01*
X155104180Y-138317899D01*
X155117278Y-138327104D01*
X155155678Y-138354092D01*
X155160972Y-138358024D01*
X155210501Y-138396860D01*
X155217423Y-138399985D01*
X155220528Y-138401866D01*
X155233083Y-138409027D01*
X155236281Y-138410742D01*
X155242499Y-138415112D01*
X155301176Y-138437989D01*
X155307211Y-138440526D01*
X155364586Y-138466432D01*
X155372054Y-138467816D01*
X155375532Y-138468906D01*
X155389419Y-138472862D01*
X155392942Y-138473767D01*
X155400014Y-138476524D01*
X155462417Y-138484739D01*
X155468909Y-138485767D01*
X155530819Y-138497242D01*
X155538399Y-138496805D01*
X155538400Y-138496805D01*
X155592086Y-138493709D01*
X155599340Y-138493500D01*
X204776441Y-138493500D01*
X204785010Y-138493792D01*
X204834249Y-138497149D01*
X204834253Y-138497149D01*
X204841825Y-138497665D01*
X204849302Y-138496360D01*
X204849304Y-138496360D01*
X204887940Y-138489617D01*
X204903842Y-138486841D01*
X204910360Y-138485880D01*
X204972839Y-138478319D01*
X204979945Y-138475634D01*
X204983482Y-138474765D01*
X204997408Y-138470955D01*
X205000883Y-138469906D01*
X205008372Y-138468599D01*
X205066012Y-138443297D01*
X205072118Y-138440805D01*
X205123885Y-138421244D01*
X205123889Y-138421242D01*
X205130989Y-138418559D01*
X205137249Y-138414257D01*
X205140471Y-138412572D01*
X205153123Y-138405530D01*
X205156226Y-138403695D01*
X205163176Y-138400644D01*
X205169199Y-138396022D01*
X205169203Y-138396020D01*
X205213112Y-138362328D01*
X205218448Y-138358451D01*
X205264059Y-138327104D01*
X205264063Y-138327101D01*
X205270319Y-138322801D01*
X205311150Y-138276973D01*
X205316132Y-138271697D01*
X207890030Y-135697799D01*
X207952342Y-135663773D01*
X208023157Y-135668838D01*
X208079993Y-135711385D01*
X208104916Y-135779640D01*
X208105490Y-135789595D01*
X208110110Y-135869715D01*
X208111247Y-135874761D01*
X208111248Y-135874767D01*
X208116883Y-135899770D01*
X208159222Y-136087639D01*
X208197461Y-136181811D01*
X208239149Y-136284476D01*
X208243266Y-136294616D01*
X208285237Y-136363107D01*
X208357291Y-136480688D01*
X208359987Y-136485088D01*
X208506250Y-136653938D01*
X208678126Y-136796632D01*
X208748595Y-136837811D01*
X208751445Y-136839476D01*
X208800169Y-136891114D01*
X208813240Y-136960897D01*
X208786509Y-137026669D01*
X208746055Y-137060027D01*
X208733607Y-137066507D01*
X208729474Y-137069610D01*
X208729471Y-137069612D01*
X208693660Y-137096500D01*
X208554965Y-137200635D01*
X208400629Y-137362138D01*
X208274743Y-137546680D01*
X208180688Y-137749305D01*
X208120989Y-137964570D01*
X208097251Y-138186695D01*
X208097548Y-138191848D01*
X208097548Y-138191851D01*
X208103011Y-138286590D01*
X208110110Y-138409715D01*
X208111247Y-138414761D01*
X208111248Y-138414767D01*
X208129737Y-138496805D01*
X208159222Y-138627639D01*
X208243266Y-138834616D01*
X208294019Y-138917438D01*
X208357291Y-139020688D01*
X208359987Y-139025088D01*
X208506250Y-139193938D01*
X208678126Y-139336632D01*
X208748595Y-139377811D01*
X208751445Y-139379476D01*
X208800169Y-139431114D01*
X208813240Y-139500897D01*
X208786509Y-139566669D01*
X208746055Y-139600027D01*
X208733607Y-139606507D01*
X208729474Y-139609610D01*
X208729471Y-139609612D01*
X208705247Y-139627800D01*
X208554965Y-139740635D01*
X208400629Y-139902138D01*
X208274743Y-140086680D01*
X208180688Y-140289305D01*
X208120989Y-140504570D01*
X208097251Y-140726695D01*
X208097548Y-140731848D01*
X208097548Y-140731851D01*
X208103011Y-140826590D01*
X208110110Y-140949715D01*
X208111247Y-140954761D01*
X208111248Y-140954767D01*
X208131119Y-141042939D01*
X208159222Y-141167639D01*
X208243266Y-141374616D01*
X208294019Y-141457438D01*
X208357291Y-141560688D01*
X208359987Y-141565088D01*
X208506250Y-141733938D01*
X208678126Y-141876632D01*
X208739196Y-141912318D01*
X208751445Y-141919476D01*
X208800169Y-141971114D01*
X208813240Y-142040897D01*
X208786509Y-142106669D01*
X208746055Y-142140027D01*
X208733607Y-142146507D01*
X208729474Y-142149610D01*
X208729471Y-142149612D01*
X208559100Y-142277530D01*
X208554965Y-142280635D01*
X208515525Y-142321907D01*
X208461280Y-142378671D01*
X208400629Y-142442138D01*
X208274743Y-142626680D01*
X208180688Y-142829305D01*
X208120989Y-143044570D01*
X208097251Y-143266695D01*
X208110110Y-143489715D01*
X208111247Y-143494761D01*
X208111248Y-143494767D01*
X208135304Y-143601508D01*
X208159222Y-143707639D01*
X208243266Y-143914616D01*
X208359987Y-144105088D01*
X208506250Y-144273938D01*
X208678126Y-144416632D01*
X208871000Y-144529338D01*
X209079692Y-144609030D01*
X209084760Y-144610061D01*
X209084763Y-144610062D01*
X209192017Y-144631883D01*
X209298597Y-144653567D01*
X209303772Y-144653757D01*
X209303774Y-144653757D01*
X209516673Y-144661564D01*
X209516677Y-144661564D01*
X209521837Y-144661753D01*
X209526957Y-144661097D01*
X209526959Y-144661097D01*
X209738288Y-144634025D01*
X209738289Y-144634025D01*
X209743416Y-144633368D01*
X209748366Y-144631883D01*
X209952429Y-144570661D01*
X209952434Y-144570659D01*
X209957384Y-144569174D01*
X210157994Y-144470896D01*
X210339860Y-144341173D01*
X210448091Y-144233319D01*
X210510462Y-144199404D01*
X210581268Y-144204592D01*
X210638030Y-144247238D01*
X210655012Y-144278341D01*
X210699385Y-144396705D01*
X210786739Y-144513261D01*
X210903295Y-144600615D01*
X211039684Y-144651745D01*
X211101866Y-144658500D01*
X212898134Y-144658500D01*
X212960316Y-144651745D01*
X213096705Y-144600615D01*
X213213261Y-144513261D01*
X213300615Y-144396705D01*
X213351745Y-144260316D01*
X213358500Y-144198134D01*
X213358500Y-142401866D01*
X213351745Y-142339684D01*
X213300615Y-142203295D01*
X213213261Y-142086739D01*
X213096705Y-141999385D01*
X213069905Y-141989338D01*
X212978203Y-141954960D01*
X212921439Y-141912318D01*
X212896739Y-141845756D01*
X212911947Y-141776408D01*
X212933493Y-141747727D01*
X213034435Y-141647137D01*
X213038096Y-141643489D01*
X213097594Y-141560689D01*
X213165435Y-141466277D01*
X213168453Y-141462077D01*
X213189320Y-141419857D01*
X213265136Y-141266453D01*
X213265137Y-141266451D01*
X213267430Y-141261811D01*
X213332370Y-141048069D01*
X213361529Y-140826590D01*
X213363156Y-140760000D01*
X213344852Y-140537361D01*
X213290431Y-140320702D01*
X213201354Y-140115840D01*
X213080014Y-139928277D01*
X212929670Y-139763051D01*
X212925619Y-139759852D01*
X212925615Y-139759848D01*
X212758414Y-139627800D01*
X212758410Y-139627798D01*
X212754359Y-139624598D01*
X212713053Y-139601796D01*
X212663084Y-139551364D01*
X212648312Y-139481921D01*
X212673428Y-139415516D01*
X212700780Y-139388909D01*
X212744603Y-139357650D01*
X212879860Y-139261173D01*
X213038096Y-139103489D01*
X213097594Y-139020689D01*
X213165435Y-138926277D01*
X213168453Y-138922077D01*
X213189320Y-138879857D01*
X213265136Y-138726453D01*
X213265137Y-138726451D01*
X213267430Y-138721811D01*
X213332370Y-138508069D01*
X213361529Y-138286590D01*
X213363156Y-138220000D01*
X213344852Y-137997361D01*
X213290431Y-137780702D01*
X213201354Y-137575840D01*
X213080014Y-137388277D01*
X212929670Y-137223051D01*
X212925619Y-137219852D01*
X212925615Y-137219848D01*
X212758414Y-137087800D01*
X212758410Y-137087798D01*
X212754359Y-137084598D01*
X212713053Y-137061796D01*
X212663084Y-137011364D01*
X212648312Y-136941921D01*
X212673428Y-136875516D01*
X212700780Y-136848909D01*
X212744603Y-136817650D01*
X212879860Y-136721173D01*
X213038096Y-136563489D01*
X213054467Y-136540707D01*
X213165435Y-136386277D01*
X213168453Y-136382077D01*
X213177635Y-136363500D01*
X213265136Y-136186453D01*
X213265137Y-136186451D01*
X213267430Y-136181811D01*
X213332370Y-135968069D01*
X213361529Y-135746590D01*
X213361892Y-135731745D01*
X213363074Y-135683365D01*
X213363074Y-135683361D01*
X213363156Y-135680000D01*
X213344852Y-135457361D01*
X213290431Y-135240702D01*
X213201354Y-135035840D01*
X213117719Y-134906560D01*
X213082822Y-134852617D01*
X213082820Y-134852614D01*
X213080014Y-134848277D01*
X212929670Y-134683051D01*
X212925619Y-134679852D01*
X212925615Y-134679848D01*
X212758414Y-134547800D01*
X212758410Y-134547798D01*
X212754359Y-134544598D01*
X212713053Y-134521796D01*
X212663084Y-134471364D01*
X212648312Y-134401921D01*
X212673428Y-134335516D01*
X212700780Y-134308909D01*
X212760258Y-134266484D01*
X212879860Y-134181173D01*
X213038096Y-134023489D01*
X213057319Y-133996738D01*
X213165435Y-133846277D01*
X213168453Y-133842077D01*
X213189324Y-133799849D01*
X213265136Y-133646453D01*
X213265137Y-133646451D01*
X213267430Y-133641811D01*
X213318566Y-133473503D01*
X213330865Y-133433023D01*
X213330865Y-133433021D01*
X213332370Y-133428069D01*
X213361529Y-133206590D01*
X213363156Y-133140000D01*
X213344852Y-132917361D01*
X213290431Y-132700702D01*
X213201354Y-132495840D01*
X213080014Y-132308277D01*
X212929670Y-132143051D01*
X212925619Y-132139852D01*
X212925615Y-132139848D01*
X212758414Y-132007800D01*
X212758410Y-132007798D01*
X212754359Y-132004598D01*
X212713053Y-131981796D01*
X212663084Y-131931364D01*
X212648312Y-131861921D01*
X212673428Y-131795516D01*
X212700780Y-131768909D01*
X212744603Y-131737650D01*
X212879860Y-131641173D01*
X213038096Y-131483489D01*
X213168453Y-131302077D01*
X213173057Y-131292763D01*
X213265136Y-131106453D01*
X213265137Y-131106451D01*
X213267430Y-131101811D01*
X213318566Y-130933503D01*
X213330865Y-130893023D01*
X213330865Y-130893021D01*
X213332370Y-130888069D01*
X213361529Y-130666590D01*
X213363156Y-130600000D01*
X213344852Y-130377361D01*
X213290431Y-130160702D01*
X213201354Y-129955840D01*
X213080014Y-129768277D01*
X212929670Y-129603051D01*
X212925619Y-129599852D01*
X212925615Y-129599848D01*
X212758414Y-129467800D01*
X212758410Y-129467798D01*
X212754359Y-129464598D01*
X212713053Y-129441796D01*
X212663084Y-129391364D01*
X212648312Y-129321921D01*
X212673428Y-129255516D01*
X212700780Y-129228909D01*
X212744603Y-129197650D01*
X212879860Y-129101173D01*
X213038096Y-128943489D01*
X213168453Y-128762077D01*
X213189324Y-128719849D01*
X213265136Y-128566453D01*
X213265137Y-128566451D01*
X213267430Y-128561811D01*
X213300379Y-128453365D01*
X213330865Y-128353023D01*
X213330865Y-128353021D01*
X213332370Y-128348069D01*
X213361529Y-128126590D01*
X213363156Y-128060000D01*
X213344852Y-127837361D01*
X213290431Y-127620702D01*
X213201354Y-127415840D01*
X213100953Y-127260643D01*
X213082822Y-127232617D01*
X213082820Y-127232614D01*
X213080014Y-127228277D01*
X212929670Y-127063051D01*
X212925619Y-127059852D01*
X212925615Y-127059848D01*
X212758414Y-126927800D01*
X212758410Y-126927798D01*
X212754359Y-126924598D01*
X212713053Y-126901796D01*
X212663084Y-126851364D01*
X212648312Y-126781921D01*
X212673428Y-126715516D01*
X212700780Y-126688909D01*
X212758218Y-126647939D01*
X212879860Y-126561173D01*
X213038096Y-126403489D01*
X213168453Y-126222077D01*
X213189324Y-126179849D01*
X213265136Y-126026453D01*
X213265137Y-126026451D01*
X213267430Y-126021811D01*
X213332370Y-125808069D01*
X213361529Y-125586590D01*
X213362598Y-125542832D01*
X213363074Y-125523365D01*
X213363074Y-125523361D01*
X213363156Y-125520000D01*
X213344852Y-125297361D01*
X213290431Y-125080702D01*
X213201354Y-124875840D01*
X213121024Y-124751669D01*
X213082822Y-124692617D01*
X213082820Y-124692614D01*
X213080014Y-124688277D01*
X212929670Y-124523051D01*
X212925619Y-124519852D01*
X212925615Y-124519848D01*
X212758414Y-124387800D01*
X212758410Y-124387798D01*
X212754359Y-124384598D01*
X212713053Y-124361796D01*
X212663084Y-124311364D01*
X212648312Y-124241921D01*
X212673428Y-124175516D01*
X212700780Y-124148909D01*
X212786201Y-124087979D01*
X212879860Y-124021173D01*
X213038096Y-123863489D01*
X213060725Y-123831998D01*
X213165435Y-123686277D01*
X213168453Y-123682077D01*
X213217920Y-123581989D01*
X213265136Y-123486453D01*
X213265137Y-123486451D01*
X213267430Y-123481811D01*
X213332370Y-123268069D01*
X213361529Y-123046590D01*
X213363156Y-122980000D01*
X213344852Y-122757361D01*
X213290431Y-122540702D01*
X213201354Y-122335840D01*
X213080014Y-122148277D01*
X212929670Y-121983051D01*
X212925619Y-121979852D01*
X212925615Y-121979848D01*
X212758414Y-121847800D01*
X212758410Y-121847798D01*
X212754359Y-121844598D01*
X212713053Y-121821796D01*
X212663084Y-121771364D01*
X212648312Y-121701921D01*
X212673428Y-121635516D01*
X212700780Y-121608909D01*
X212744603Y-121577650D01*
X212879860Y-121481173D01*
X213038096Y-121323489D01*
X213168453Y-121142077D01*
X213189320Y-121099857D01*
X213265136Y-120946453D01*
X213265137Y-120946451D01*
X213267430Y-120941811D01*
X213332370Y-120728069D01*
X213361529Y-120506590D01*
X213363156Y-120440000D01*
X213344852Y-120217361D01*
X213290431Y-120000702D01*
X213201354Y-119795840D01*
X213080014Y-119608277D01*
X212929670Y-119443051D01*
X212925619Y-119439852D01*
X212925615Y-119439848D01*
X212758414Y-119307800D01*
X212758410Y-119307798D01*
X212754359Y-119304598D01*
X212713053Y-119281796D01*
X212663084Y-119231364D01*
X212648312Y-119161921D01*
X212673428Y-119095516D01*
X212700780Y-119068909D01*
X212744603Y-119037650D01*
X212879860Y-118941173D01*
X213038096Y-118783489D01*
X213168453Y-118602077D01*
X213217920Y-118501989D01*
X213265136Y-118406453D01*
X213265137Y-118406451D01*
X213267430Y-118401811D01*
X213332370Y-118188069D01*
X213361529Y-117966590D01*
X213363156Y-117900000D01*
X213344852Y-117677361D01*
X213290431Y-117460702D01*
X213201354Y-117255840D01*
X213080014Y-117068277D01*
X212929670Y-116903051D01*
X212925619Y-116899852D01*
X212925615Y-116899848D01*
X212758414Y-116767800D01*
X212758410Y-116767798D01*
X212754359Y-116764598D01*
X212713053Y-116741796D01*
X212663084Y-116691364D01*
X212648312Y-116621921D01*
X212673428Y-116555516D01*
X212700780Y-116528909D01*
X212744603Y-116497650D01*
X212879860Y-116401173D01*
X213038096Y-116243489D01*
X213097594Y-116160689D01*
X213165435Y-116066277D01*
X213168453Y-116062077D01*
X213189320Y-116019857D01*
X213265136Y-115866453D01*
X213265137Y-115866451D01*
X213267430Y-115861811D01*
X213332370Y-115648069D01*
X213361529Y-115426590D01*
X213363156Y-115360000D01*
X213344852Y-115137361D01*
X213290431Y-114920702D01*
X213201354Y-114715840D01*
X213080014Y-114528277D01*
X212929670Y-114363051D01*
X212925619Y-114359852D01*
X212925615Y-114359848D01*
X212758414Y-114227800D01*
X212758410Y-114227798D01*
X212754359Y-114224598D01*
X212712569Y-114201529D01*
X212662598Y-114151097D01*
X212647826Y-114081654D01*
X212672942Y-114015248D01*
X212700294Y-113988641D01*
X212875328Y-113863792D01*
X212883200Y-113857139D01*
X213034052Y-113706812D01*
X213040730Y-113698965D01*
X213165003Y-113526020D01*
X213170313Y-113517183D01*
X213264670Y-113326267D01*
X213268469Y-113316672D01*
X213330377Y-113112910D01*
X213332555Y-113102837D01*
X213333986Y-113091962D01*
X213331775Y-113077778D01*
X213318617Y-113074000D01*
X211872000Y-113074000D01*
X211803879Y-113053998D01*
X211757386Y-113000342D01*
X211746000Y-112948000D01*
X211746000Y-112547885D01*
X212254000Y-112547885D01*
X212258475Y-112563124D01*
X212259865Y-112564329D01*
X212267548Y-112566000D01*
X213318344Y-112566000D01*
X213331875Y-112562027D01*
X213333180Y-112552947D01*
X213291214Y-112385875D01*
X213287894Y-112376124D01*
X213202972Y-112180814D01*
X213198105Y-112171739D01*
X213082426Y-111992926D01*
X213076136Y-111984757D01*
X212932806Y-111827240D01*
X212925273Y-111820215D01*
X212758139Y-111688222D01*
X212749552Y-111682517D01*
X212712116Y-111661851D01*
X212662146Y-111611419D01*
X212647374Y-111541976D01*
X212672490Y-111475571D01*
X212699842Y-111448964D01*
X212875327Y-111323792D01*
X212883200Y-111317139D01*
X213034052Y-111166812D01*
X213040730Y-111158965D01*
X213165003Y-110986020D01*
X213170313Y-110977183D01*
X213264670Y-110786267D01*
X213268469Y-110776672D01*
X213330377Y-110572910D01*
X213332555Y-110562837D01*
X213333986Y-110551962D01*
X213331775Y-110537778D01*
X213318617Y-110534000D01*
X212272115Y-110534000D01*
X212256876Y-110538475D01*
X212255671Y-110539865D01*
X212254000Y-110547548D01*
X212254000Y-112547885D01*
X211746000Y-112547885D01*
X211746000Y-110007885D01*
X212254000Y-110007885D01*
X212258475Y-110023124D01*
X212259865Y-110024329D01*
X212267548Y-110026000D01*
X213318344Y-110026000D01*
X213331875Y-110022027D01*
X213333180Y-110012947D01*
X213291214Y-109845875D01*
X213287894Y-109836124D01*
X213202972Y-109640814D01*
X213198105Y-109631739D01*
X213082426Y-109452926D01*
X213076136Y-109444757D01*
X212932806Y-109287240D01*
X212925273Y-109280215D01*
X212758139Y-109148222D01*
X212749552Y-109142517D01*
X212712116Y-109121851D01*
X212662146Y-109071419D01*
X212647374Y-109001976D01*
X212672490Y-108935571D01*
X212699842Y-108908964D01*
X212875327Y-108783792D01*
X212883200Y-108777139D01*
X213034052Y-108626812D01*
X213040730Y-108618965D01*
X213165003Y-108446020D01*
X213170313Y-108437183D01*
X213264670Y-108246267D01*
X213268469Y-108236672D01*
X213330377Y-108032910D01*
X213332555Y-108022837D01*
X213333986Y-108011962D01*
X213331775Y-107997778D01*
X213318617Y-107994000D01*
X212272115Y-107994000D01*
X212256876Y-107998475D01*
X212255671Y-107999865D01*
X212254000Y-108007548D01*
X212254000Y-110007885D01*
X211746000Y-110007885D01*
X211746000Y-107467885D01*
X212254000Y-107467885D01*
X212258475Y-107483124D01*
X212259865Y-107484329D01*
X212267548Y-107486000D01*
X213318344Y-107486000D01*
X213331875Y-107482027D01*
X213333180Y-107472947D01*
X213291214Y-107305875D01*
X213287894Y-107296124D01*
X213202972Y-107100814D01*
X213198105Y-107091739D01*
X213082426Y-106912926D01*
X213076136Y-106904757D01*
X212932806Y-106747240D01*
X212925273Y-106740215D01*
X212758139Y-106608222D01*
X212749552Y-106602517D01*
X212563117Y-106499599D01*
X212553705Y-106495369D01*
X212352959Y-106424280D01*
X212342988Y-106421646D01*
X212271837Y-106408972D01*
X212258540Y-106410432D01*
X212254000Y-106424989D01*
X212254000Y-107467885D01*
X211746000Y-107467885D01*
X211746000Y-106423102D01*
X211742082Y-106409758D01*
X211727806Y-106407771D01*
X211689324Y-106413660D01*
X211679288Y-106416051D01*
X211476868Y-106482212D01*
X211467359Y-106486209D01*
X211278463Y-106584542D01*
X211269738Y-106590036D01*
X211099433Y-106717905D01*
X211091726Y-106724748D01*
X210944590Y-106878717D01*
X210938109Y-106886722D01*
X210833498Y-107040074D01*
X210778587Y-107085076D01*
X210708062Y-107093247D01*
X210644315Y-107061993D01*
X210623618Y-107037509D01*
X210542822Y-106912617D01*
X210542820Y-106912614D01*
X210540014Y-106908277D01*
X210389670Y-106743051D01*
X210385619Y-106739852D01*
X210385615Y-106739848D01*
X210218414Y-106607800D01*
X210218410Y-106607798D01*
X210214359Y-106604598D01*
X210178028Y-106584542D01*
X210065714Y-106522542D01*
X210018789Y-106496638D01*
X210013920Y-106494914D01*
X210013916Y-106494912D01*
X209813087Y-106423795D01*
X209813083Y-106423794D01*
X209808212Y-106422069D01*
X209803119Y-106421162D01*
X209803116Y-106421161D01*
X209593373Y-106383800D01*
X209593367Y-106383799D01*
X209588284Y-106382894D01*
X209514452Y-106381992D01*
X209370081Y-106380228D01*
X209370079Y-106380228D01*
X209364911Y-106380165D01*
X209144091Y-106413955D01*
X208931756Y-106483357D01*
X208891296Y-106504419D01*
X208744801Y-106580680D01*
X208733607Y-106586507D01*
X208729474Y-106589610D01*
X208729471Y-106589612D01*
X208563349Y-106714340D01*
X208554965Y-106720635D01*
X208551393Y-106724373D01*
X208448316Y-106832237D01*
X208400629Y-106882138D01*
X208274743Y-107066680D01*
X208180688Y-107269305D01*
X208120989Y-107484570D01*
X208097251Y-107706695D01*
X208110110Y-107929715D01*
X208111247Y-107934761D01*
X208111248Y-107934767D01*
X208127651Y-108007548D01*
X208159222Y-108147639D01*
X208243266Y-108354616D01*
X208245965Y-108359020D01*
X208354276Y-108535768D01*
X208359987Y-108545088D01*
X208506250Y-108713938D01*
X208510225Y-108717238D01*
X208510227Y-108717240D01*
X208524984Y-108729491D01*
X208564620Y-108788394D01*
X208570500Y-108826436D01*
X208570500Y-109193855D01*
X208550498Y-109261976D01*
X208535596Y-109280903D01*
X208400629Y-109422138D01*
X208397715Y-109426410D01*
X208397714Y-109426411D01*
X208312556Y-109551249D01*
X208274743Y-109606680D01*
X208244592Y-109671635D01*
X208182942Y-109804450D01*
X208180688Y-109809305D01*
X208120989Y-110024570D01*
X208097251Y-110246695D01*
X208097548Y-110251848D01*
X208097548Y-110251851D01*
X208099937Y-110293277D01*
X208110110Y-110469715D01*
X208111247Y-110474761D01*
X208111248Y-110474767D01*
X208124567Y-110533866D01*
X208159222Y-110687639D01*
X208213271Y-110820746D01*
X208235220Y-110874800D01*
X208243266Y-110894616D01*
X208359987Y-111085088D01*
X208506250Y-111253938D01*
X208510225Y-111257238D01*
X208510227Y-111257240D01*
X208524984Y-111269491D01*
X208564620Y-111328394D01*
X208570500Y-111366436D01*
X208570500Y-111733855D01*
X208550498Y-111801976D01*
X208535596Y-111820903D01*
X208468084Y-111891551D01*
X208406559Y-111926981D01*
X208376990Y-111930500D01*
X201146519Y-111930500D01*
X201078398Y-111910498D01*
X201031905Y-111856842D01*
X201021801Y-111786568D01*
X201051295Y-111721988D01*
X201057424Y-111715405D01*
X205788574Y-106984254D01*
X205851471Y-106950102D01*
X206022288Y-106913794D01*
X206028319Y-106911109D01*
X206190722Y-106838803D01*
X206190724Y-106838802D01*
X206196752Y-106836118D01*
X206351253Y-106723866D01*
X206479040Y-106581944D01*
X206574527Y-106416556D01*
X206633542Y-106234928D01*
X206653504Y-106045000D01*
X206633542Y-105855072D01*
X206574527Y-105673444D01*
X206479040Y-105508056D01*
X206351253Y-105366134D01*
X206196752Y-105253882D01*
X206190724Y-105251198D01*
X206190722Y-105251197D01*
X206028319Y-105178891D01*
X206028318Y-105178891D01*
X206022288Y-105176206D01*
X205928887Y-105156353D01*
X205841944Y-105137872D01*
X205841939Y-105137872D01*
X205835487Y-105136500D01*
X205644513Y-105136500D01*
X205638061Y-105137872D01*
X205638056Y-105137872D01*
X205551113Y-105156353D01*
X205457712Y-105176206D01*
X205451682Y-105178891D01*
X205451681Y-105178891D01*
X205289278Y-105251197D01*
X205289276Y-105251198D01*
X205283248Y-105253882D01*
X205128747Y-105366134D01*
X205000960Y-105508056D01*
X204905473Y-105673444D01*
X204846458Y-105855072D01*
X204845768Y-105861635D01*
X204845768Y-105861637D01*
X204839889Y-105917573D01*
X204812876Y-105983230D01*
X204803674Y-105993498D01*
X199976426Y-110820746D01*
X199913529Y-110854898D01*
X199742712Y-110891206D01*
X199736682Y-110893891D01*
X199736681Y-110893891D01*
X199574278Y-110966197D01*
X199574276Y-110966198D01*
X199568248Y-110968882D01*
X199562907Y-110972762D01*
X199562906Y-110972763D01*
X199543984Y-110986511D01*
X199413747Y-111081134D01*
X199409326Y-111086044D01*
X199409325Y-111086045D01*
X199311305Y-111194908D01*
X199285960Y-111223056D01*
X199190473Y-111388444D01*
X199188431Y-111394729D01*
X199157668Y-111489408D01*
X199131458Y-111570072D01*
X199125495Y-111626811D01*
X199124889Y-111632573D01*
X199097876Y-111698230D01*
X199088674Y-111708498D01*
X197701769Y-113095403D01*
X197684042Y-113110147D01*
X197644681Y-113137199D01*
X197639631Y-113142867D01*
X197639630Y-113142868D01*
X197603842Y-113183036D01*
X197598860Y-113188312D01*
X187543066Y-123244106D01*
X187480754Y-123278132D01*
X187453971Y-123281011D01*
X184706008Y-123281011D01*
X184637887Y-123261009D01*
X184591394Y-123207353D01*
X184581290Y-123137079D01*
X184610784Y-123072499D01*
X184616913Y-123065916D01*
X199218700Y-108464128D01*
X199224965Y-108458274D01*
X199262174Y-108425814D01*
X199267899Y-108420820D01*
X199304094Y-108369319D01*
X199308026Y-108364025D01*
X199346860Y-108314499D01*
X199349985Y-108307577D01*
X199351866Y-108304472D01*
X199359027Y-108291917D01*
X199360742Y-108288719D01*
X199365112Y-108282501D01*
X199387989Y-108223824D01*
X199390529Y-108217782D01*
X199416432Y-108160414D01*
X199417816Y-108152946D01*
X199418906Y-108149468D01*
X199422862Y-108135581D01*
X199423767Y-108132058D01*
X199426524Y-108124986D01*
X199434739Y-108062583D01*
X199435770Y-108056075D01*
X199440064Y-108032910D01*
X199447242Y-107994181D01*
X199443709Y-107932914D01*
X199443500Y-107925660D01*
X199443500Y-107064458D01*
X199463502Y-106996337D01*
X199517158Y-106949844D01*
X199543303Y-106941211D01*
X199583706Y-106932623D01*
X199672288Y-106913794D01*
X199678319Y-106911109D01*
X199840722Y-106838803D01*
X199840724Y-106838802D01*
X199846752Y-106836118D01*
X200001253Y-106723866D01*
X200129040Y-106581944D01*
X200224527Y-106416556D01*
X200283542Y-106234928D01*
X200303504Y-106045000D01*
X200283542Y-105855072D01*
X200224527Y-105673444D01*
X200129040Y-105508056D01*
X200001253Y-105366134D01*
X199846752Y-105253882D01*
X199840724Y-105251198D01*
X199840722Y-105251197D01*
X199678319Y-105178891D01*
X199678318Y-105178891D01*
X199672288Y-105176206D01*
X199578887Y-105156353D01*
X199491944Y-105137872D01*
X199491939Y-105137872D01*
X199485487Y-105136500D01*
X199294513Y-105136500D01*
X199288061Y-105137872D01*
X199288056Y-105137872D01*
X199201113Y-105156353D01*
X199107712Y-105176206D01*
X199101682Y-105178891D01*
X199101681Y-105178891D01*
X198939278Y-105251197D01*
X198939276Y-105251198D01*
X198933248Y-105253882D01*
X198778747Y-105366134D01*
X198650960Y-105508056D01*
X198555473Y-105673444D01*
X198496458Y-105855072D01*
X198495768Y-105861635D01*
X198495768Y-105861637D01*
X198489889Y-105917573D01*
X198462876Y-105983230D01*
X198453674Y-105993498D01*
X198271300Y-106175872D01*
X198265035Y-106181726D01*
X198222101Y-106219180D01*
X198217731Y-106225398D01*
X198185908Y-106270678D01*
X198181976Y-106275972D01*
X198143140Y-106325501D01*
X198140015Y-106332423D01*
X198138134Y-106335528D01*
X198130973Y-106348083D01*
X198129258Y-106351281D01*
X198124888Y-106357499D01*
X198102011Y-106416176D01*
X198099474Y-106422211D01*
X198073568Y-106479586D01*
X198072184Y-106487054D01*
X198071094Y-106490532D01*
X198067138Y-106504419D01*
X198066233Y-106507942D01*
X198063476Y-106515014D01*
X198055418Y-106576226D01*
X198055262Y-106577408D01*
X198054233Y-106583909D01*
X198042758Y-106645819D01*
X198043195Y-106653399D01*
X198043195Y-106653400D01*
X198046291Y-106707086D01*
X198046500Y-106714340D01*
X198046500Y-107608482D01*
X198026498Y-107676603D01*
X198009595Y-107697577D01*
X193814916Y-111892256D01*
X193752604Y-111926282D01*
X193681789Y-111921217D01*
X193624953Y-111878670D01*
X193600142Y-111812150D01*
X193612864Y-111747334D01*
X193614614Y-111743794D01*
X193672430Y-111626811D01*
X193737370Y-111413069D01*
X193766529Y-111191590D01*
X193766898Y-111176503D01*
X193768074Y-111128365D01*
X193768074Y-111128361D01*
X193768156Y-111125000D01*
X193749852Y-110902361D01*
X193695431Y-110685702D01*
X193606354Y-110480840D01*
X193548845Y-110391944D01*
X193487822Y-110297617D01*
X193487820Y-110297614D01*
X193485014Y-110293277D01*
X193334670Y-110128051D01*
X193330619Y-110124852D01*
X193330615Y-110124848D01*
X193163414Y-109992800D01*
X193163410Y-109992798D01*
X193159359Y-109989598D01*
X192963789Y-109881638D01*
X192958920Y-109879914D01*
X192958916Y-109879912D01*
X192758087Y-109808795D01*
X192758083Y-109808794D01*
X192753212Y-109807069D01*
X192748119Y-109806162D01*
X192748116Y-109806161D01*
X192538373Y-109768800D01*
X192538367Y-109768799D01*
X192533284Y-109767894D01*
X192459452Y-109766992D01*
X192315081Y-109765228D01*
X192315079Y-109765228D01*
X192309911Y-109765165D01*
X192089091Y-109798955D01*
X191876756Y-109868357D01*
X191678607Y-109971507D01*
X191674474Y-109974610D01*
X191674471Y-109974612D01*
X191564260Y-110057361D01*
X191499965Y-110105635D01*
X191496393Y-110109373D01*
X191360238Y-110251851D01*
X191345629Y-110267138D01*
X191238201Y-110424621D01*
X191183293Y-110469621D01*
X191112768Y-110477792D01*
X191049021Y-110446538D01*
X191028324Y-110422054D01*
X190947822Y-110297617D01*
X190947820Y-110297614D01*
X190945014Y-110293277D01*
X190794670Y-110128051D01*
X190790619Y-110124852D01*
X190790615Y-110124848D01*
X190623414Y-109992800D01*
X190623410Y-109992798D01*
X190619359Y-109989598D01*
X190423789Y-109881638D01*
X190418920Y-109879914D01*
X190418916Y-109879912D01*
X190218087Y-109808795D01*
X190218083Y-109808794D01*
X190213212Y-109807069D01*
X190208119Y-109806162D01*
X190208116Y-109806161D01*
X189998373Y-109768800D01*
X189998367Y-109768799D01*
X189993284Y-109767894D01*
X189919452Y-109766992D01*
X189775081Y-109765228D01*
X189775079Y-109765228D01*
X189769911Y-109765165D01*
X189549091Y-109798955D01*
X189336756Y-109868357D01*
X189138607Y-109971507D01*
X189134474Y-109974610D01*
X189134471Y-109974612D01*
X189024260Y-110057361D01*
X188959965Y-110105635D01*
X188956393Y-110109373D01*
X188820238Y-110251851D01*
X188805629Y-110267138D01*
X188698201Y-110424621D01*
X188643293Y-110469621D01*
X188572768Y-110477792D01*
X188509021Y-110446538D01*
X188488324Y-110422054D01*
X188407822Y-110297617D01*
X188407820Y-110297614D01*
X188405014Y-110293277D01*
X188254670Y-110128051D01*
X188250619Y-110124852D01*
X188250615Y-110124848D01*
X188083414Y-109992800D01*
X188083410Y-109992798D01*
X188079359Y-109989598D01*
X187883789Y-109881638D01*
X187878920Y-109879914D01*
X187878916Y-109879912D01*
X187678087Y-109808795D01*
X187678083Y-109808794D01*
X187673212Y-109807069D01*
X187668119Y-109806162D01*
X187668116Y-109806161D01*
X187458373Y-109768800D01*
X187458367Y-109768799D01*
X187453284Y-109767894D01*
X187379452Y-109766992D01*
X187235081Y-109765228D01*
X187235079Y-109765228D01*
X187229911Y-109765165D01*
X187009091Y-109798955D01*
X186796756Y-109868357D01*
X186598607Y-109971507D01*
X186594474Y-109974610D01*
X186594471Y-109974612D01*
X186484260Y-110057361D01*
X186419965Y-110105635D01*
X186416393Y-110109373D01*
X186280238Y-110251851D01*
X186265629Y-110267138D01*
X186158201Y-110424621D01*
X186103293Y-110469621D01*
X186032768Y-110477792D01*
X185969021Y-110446538D01*
X185948324Y-110422054D01*
X185867822Y-110297617D01*
X185867820Y-110297614D01*
X185865014Y-110293277D01*
X185714670Y-110128051D01*
X185710619Y-110124852D01*
X185710615Y-110124848D01*
X185543414Y-109992800D01*
X185543410Y-109992798D01*
X185539359Y-109989598D01*
X185343789Y-109881638D01*
X185338920Y-109879914D01*
X185338916Y-109879912D01*
X185138087Y-109808795D01*
X185138083Y-109808794D01*
X185133212Y-109807069D01*
X185128119Y-109806162D01*
X185128116Y-109806161D01*
X184918373Y-109768800D01*
X184918367Y-109768799D01*
X184913284Y-109767894D01*
X184839452Y-109766992D01*
X184695081Y-109765228D01*
X184695079Y-109765228D01*
X184689911Y-109765165D01*
X184469091Y-109798955D01*
X184256756Y-109868357D01*
X184058607Y-109971507D01*
X184054474Y-109974610D01*
X184054471Y-109974612D01*
X183944260Y-110057361D01*
X183879965Y-110105635D01*
X183876393Y-110109373D01*
X183740238Y-110251851D01*
X183725629Y-110267138D01*
X183618201Y-110424621D01*
X183563293Y-110469621D01*
X183492768Y-110477792D01*
X183429021Y-110446538D01*
X183408324Y-110422054D01*
X183327822Y-110297617D01*
X183327820Y-110297614D01*
X183325014Y-110293277D01*
X183174670Y-110128051D01*
X183170619Y-110124852D01*
X183170615Y-110124848D01*
X183003414Y-109992800D01*
X183003410Y-109992798D01*
X182999359Y-109989598D01*
X182803789Y-109881638D01*
X182798920Y-109879914D01*
X182798916Y-109879912D01*
X182598087Y-109808795D01*
X182598083Y-109808794D01*
X182593212Y-109807069D01*
X182588119Y-109806162D01*
X182588116Y-109806161D01*
X182378373Y-109768800D01*
X182378367Y-109768799D01*
X182373284Y-109767894D01*
X182299452Y-109766992D01*
X182155081Y-109765228D01*
X182155079Y-109765228D01*
X182149911Y-109765165D01*
X181929091Y-109798955D01*
X181716756Y-109868357D01*
X181518607Y-109971507D01*
X181514474Y-109974610D01*
X181514471Y-109974612D01*
X181404260Y-110057361D01*
X181339965Y-110105635D01*
X181336393Y-110109373D01*
X181200238Y-110251851D01*
X181185629Y-110267138D01*
X181078201Y-110424621D01*
X181023293Y-110469621D01*
X180952768Y-110477792D01*
X180889021Y-110446538D01*
X180868324Y-110422054D01*
X180787822Y-110297617D01*
X180787820Y-110297614D01*
X180785014Y-110293277D01*
X180634670Y-110128051D01*
X180630619Y-110124852D01*
X180630615Y-110124848D01*
X180463414Y-109992800D01*
X180463410Y-109992798D01*
X180459359Y-109989598D01*
X180263789Y-109881638D01*
X180258920Y-109879914D01*
X180258916Y-109879912D01*
X180058087Y-109808795D01*
X180058083Y-109808794D01*
X180053212Y-109807069D01*
X180048119Y-109806162D01*
X180048116Y-109806161D01*
X179838373Y-109768800D01*
X179838367Y-109768799D01*
X179833284Y-109767894D01*
X179759452Y-109766992D01*
X179615081Y-109765228D01*
X179615079Y-109765228D01*
X179609911Y-109765165D01*
X179389091Y-109798955D01*
X179176756Y-109868357D01*
X178978607Y-109971507D01*
X178974474Y-109974610D01*
X178974471Y-109974612D01*
X178864260Y-110057361D01*
X178799965Y-110105635D01*
X178796393Y-110109373D01*
X178660238Y-110251851D01*
X178645629Y-110267138D01*
X178538201Y-110424621D01*
X178483293Y-110469621D01*
X178412768Y-110477792D01*
X178349021Y-110446538D01*
X178328324Y-110422054D01*
X178247822Y-110297617D01*
X178247820Y-110297614D01*
X178245014Y-110293277D01*
X178094670Y-110128051D01*
X178090619Y-110124852D01*
X178090615Y-110124848D01*
X177923414Y-109992800D01*
X177923410Y-109992798D01*
X177919359Y-109989598D01*
X177723789Y-109881638D01*
X177718920Y-109879914D01*
X177718916Y-109879912D01*
X177518087Y-109808795D01*
X177518083Y-109808794D01*
X177513212Y-109807069D01*
X177508119Y-109806162D01*
X177508116Y-109806161D01*
X177298373Y-109768800D01*
X177298367Y-109768799D01*
X177293284Y-109767894D01*
X177219452Y-109766992D01*
X177075081Y-109765228D01*
X177075079Y-109765228D01*
X177069911Y-109765165D01*
X176849091Y-109798955D01*
X176636756Y-109868357D01*
X176438607Y-109971507D01*
X176434474Y-109974610D01*
X176434471Y-109974612D01*
X176324260Y-110057361D01*
X176259965Y-110105635D01*
X176256393Y-110109373D01*
X176120238Y-110251851D01*
X176105629Y-110267138D01*
X175998201Y-110424621D01*
X175943293Y-110469621D01*
X175872768Y-110477792D01*
X175809021Y-110446538D01*
X175788324Y-110422054D01*
X175707822Y-110297617D01*
X175707820Y-110297614D01*
X175705014Y-110293277D01*
X175554670Y-110128051D01*
X175550619Y-110124852D01*
X175550615Y-110124848D01*
X175383414Y-109992800D01*
X175383410Y-109992798D01*
X175379359Y-109989598D01*
X175183789Y-109881638D01*
X175178920Y-109879914D01*
X175178916Y-109879912D01*
X174978087Y-109808795D01*
X174978083Y-109808794D01*
X174973212Y-109807069D01*
X174968119Y-109806162D01*
X174968116Y-109806161D01*
X174758373Y-109768800D01*
X174758367Y-109768799D01*
X174753284Y-109767894D01*
X174679452Y-109766992D01*
X174535081Y-109765228D01*
X174535079Y-109765228D01*
X174529911Y-109765165D01*
X174309091Y-109798955D01*
X174096756Y-109868357D01*
X173898607Y-109971507D01*
X173894474Y-109974610D01*
X173894471Y-109974612D01*
X173784260Y-110057361D01*
X173719965Y-110105635D01*
X173716393Y-110109373D01*
X173580238Y-110251851D01*
X173565629Y-110267138D01*
X173458201Y-110424621D01*
X173403293Y-110469621D01*
X173332768Y-110477792D01*
X173269021Y-110446538D01*
X173248324Y-110422054D01*
X173167822Y-110297617D01*
X173167820Y-110297614D01*
X173165014Y-110293277D01*
X173014670Y-110128051D01*
X173010619Y-110124852D01*
X173010615Y-110124848D01*
X172843414Y-109992800D01*
X172843410Y-109992798D01*
X172839359Y-109989598D01*
X172643789Y-109881638D01*
X172638920Y-109879914D01*
X172638916Y-109879912D01*
X172438087Y-109808795D01*
X172438083Y-109808794D01*
X172433212Y-109807069D01*
X172428119Y-109806162D01*
X172428116Y-109806161D01*
X172218373Y-109768800D01*
X172218367Y-109768799D01*
X172213284Y-109767894D01*
X172139452Y-109766992D01*
X171995081Y-109765228D01*
X171995079Y-109765228D01*
X171989911Y-109765165D01*
X171769091Y-109798955D01*
X171556756Y-109868357D01*
X171358607Y-109971507D01*
X171354474Y-109974610D01*
X171354471Y-109974612D01*
X171244260Y-110057361D01*
X171179965Y-110105635D01*
X171176393Y-110109373D01*
X171040238Y-110251851D01*
X171025629Y-110267138D01*
X170918201Y-110424621D01*
X170863293Y-110469621D01*
X170792768Y-110477792D01*
X170729021Y-110446538D01*
X170708324Y-110422054D01*
X170627822Y-110297617D01*
X170627820Y-110297614D01*
X170625014Y-110293277D01*
X170474670Y-110128051D01*
X170470619Y-110124852D01*
X170470615Y-110124848D01*
X170303414Y-109992800D01*
X170303410Y-109992798D01*
X170299359Y-109989598D01*
X170103789Y-109881638D01*
X170098920Y-109879914D01*
X170098916Y-109879912D01*
X169898087Y-109808795D01*
X169898083Y-109808794D01*
X169893212Y-109807069D01*
X169888119Y-109806162D01*
X169888116Y-109806161D01*
X169678373Y-109768800D01*
X169678367Y-109768799D01*
X169673284Y-109767894D01*
X169599452Y-109766992D01*
X169455081Y-109765228D01*
X169455079Y-109765228D01*
X169449911Y-109765165D01*
X169432489Y-109767831D01*
X169272793Y-109792267D01*
X169202431Y-109782799D01*
X169164640Y-109756812D01*
X168154128Y-108746300D01*
X168148274Y-108740035D01*
X168139076Y-108729491D01*
X168110820Y-108697101D01*
X168059319Y-108660906D01*
X168054025Y-108656974D01*
X168015973Y-108627137D01*
X168004499Y-108618140D01*
X167997577Y-108615015D01*
X167994472Y-108613134D01*
X167981917Y-108605973D01*
X167978719Y-108604258D01*
X167972501Y-108599888D01*
X167913824Y-108577011D01*
X167907782Y-108574471D01*
X167907173Y-108574196D01*
X167850414Y-108548568D01*
X167842946Y-108547184D01*
X167839468Y-108546094D01*
X167825581Y-108542138D01*
X167822058Y-108541233D01*
X167814986Y-108538476D01*
X167752583Y-108530261D01*
X167746091Y-108529233D01*
X167684181Y-108517758D01*
X167676601Y-108518195D01*
X167676600Y-108518195D01*
X167622914Y-108521291D01*
X167615660Y-108521500D01*
X137823571Y-108521500D01*
X137815001Y-108521208D01*
X137765751Y-108517850D01*
X137765747Y-108517850D01*
X137758175Y-108517334D01*
X137696142Y-108528161D01*
X137689630Y-108529121D01*
X137627161Y-108536681D01*
X137620052Y-108539368D01*
X137616512Y-108540237D01*
X137602585Y-108544047D01*
X137599114Y-108545095D01*
X137591629Y-108546401D01*
X137533973Y-108571711D01*
X137527882Y-108574196D01*
X137476116Y-108593756D01*
X137476114Y-108593757D01*
X137469011Y-108596441D01*
X137462751Y-108600743D01*
X137459542Y-108602421D01*
X137446877Y-108609470D01*
X137443774Y-108611305D01*
X137436824Y-108614356D01*
X137430798Y-108618980D01*
X137430796Y-108618981D01*
X137386890Y-108652671D01*
X137381552Y-108656549D01*
X137335943Y-108687894D01*
X137335936Y-108687900D01*
X137329681Y-108692199D01*
X137324631Y-108697867D01*
X137324630Y-108697868D01*
X137288842Y-108738036D01*
X137283860Y-108743312D01*
X137111426Y-108915746D01*
X137048529Y-108949898D01*
X136877712Y-108986206D01*
X136871682Y-108988891D01*
X136871681Y-108988891D01*
X136709278Y-109061197D01*
X136709276Y-109061198D01*
X136703248Y-109063882D01*
X136548747Y-109176134D01*
X136544326Y-109181044D01*
X136544325Y-109181045D01*
X136452479Y-109283051D01*
X136420960Y-109318056D01*
X136325473Y-109483444D01*
X136266458Y-109665072D01*
X136265768Y-109671633D01*
X136265768Y-109671635D01*
X136253089Y-109792267D01*
X136246496Y-109855000D01*
X136247186Y-109861565D01*
X136264469Y-110026000D01*
X136266458Y-110044928D01*
X136325473Y-110226556D01*
X136328776Y-110232278D01*
X136328777Y-110232279D01*
X136348903Y-110267138D01*
X136420960Y-110391944D01*
X136425378Y-110396851D01*
X136425379Y-110396852D01*
X136490985Y-110469715D01*
X136548747Y-110533866D01*
X136588622Y-110562837D01*
X136689881Y-110636406D01*
X136703248Y-110646118D01*
X136709274Y-110648801D01*
X136709281Y-110648805D01*
X136854786Y-110713587D01*
X136908882Y-110759567D01*
X136929532Y-110827494D01*
X136923371Y-110867630D01*
X136910410Y-110907522D01*
X136901458Y-110935072D01*
X136900768Y-110941633D01*
X136900768Y-110941635D01*
X136886515Y-111077251D01*
X136881496Y-111125000D01*
X136882186Y-111131565D01*
X136888844Y-111194908D01*
X136901458Y-111314928D01*
X136960473Y-111496556D01*
X136963776Y-111502278D01*
X136963777Y-111502279D01*
X136983982Y-111537275D01*
X137055960Y-111661944D01*
X137060378Y-111666851D01*
X137060379Y-111666852D01*
X137165752Y-111783881D01*
X137183747Y-111803866D01*
X137256662Y-111856842D01*
X137330513Y-111910498D01*
X137338248Y-111916118D01*
X137344276Y-111918802D01*
X137344278Y-111918803D01*
X137506681Y-111991109D01*
X137512712Y-111993794D01*
X137606112Y-112013647D01*
X137693056Y-112032128D01*
X137693061Y-112032128D01*
X137699513Y-112033500D01*
X137890487Y-112033500D01*
X137896939Y-112032128D01*
X137896944Y-112032128D01*
X137983888Y-112013647D01*
X138077288Y-111993794D01*
X138083319Y-111991109D01*
X138245722Y-111918803D01*
X138245724Y-111918802D01*
X138251752Y-111916118D01*
X138259488Y-111910498D01*
X138333338Y-111856842D01*
X138406253Y-111803866D01*
X138424248Y-111783881D01*
X138529621Y-111666852D01*
X138529622Y-111666851D01*
X138534040Y-111661944D01*
X138606018Y-111537275D01*
X138626223Y-111502279D01*
X138626224Y-111502278D01*
X138629527Y-111496556D01*
X138688542Y-111314928D01*
X138695111Y-111252428D01*
X138722124Y-111186771D01*
X138731326Y-111176503D01*
X139317424Y-110590405D01*
X139379736Y-110556379D01*
X139406519Y-110553500D01*
X142728465Y-110553500D01*
X142796586Y-110573502D01*
X142843079Y-110627158D01*
X142853183Y-110697432D01*
X142849882Y-110713173D01*
X142807863Y-110864685D01*
X142805933Y-110874800D01*
X142783302Y-111086574D01*
X142783050Y-111096863D01*
X142795309Y-111309477D01*
X142796745Y-111319697D01*
X142843565Y-111527446D01*
X142846645Y-111537275D01*
X142926770Y-111734603D01*
X142931413Y-111743794D01*
X143011460Y-111874420D01*
X143021916Y-111883880D01*
X143030694Y-111880096D01*
X144055905Y-110854885D01*
X144118217Y-110820859D01*
X144189032Y-110825924D01*
X144234095Y-110854885D01*
X145255474Y-111876264D01*
X145267484Y-111882823D01*
X145279223Y-111873855D01*
X145313022Y-111826819D01*
X145314149Y-111827629D01*
X145361659Y-111783881D01*
X145431596Y-111771661D01*
X145497038Y-111799191D01*
X145524870Y-111831029D01*
X145551459Y-111874419D01*
X145561916Y-111883880D01*
X145570694Y-111880096D01*
X146595905Y-110854885D01*
X146658217Y-110820859D01*
X146729032Y-110825924D01*
X146774095Y-110854885D01*
X147795474Y-111876264D01*
X147807484Y-111882823D01*
X147819223Y-111873855D01*
X147853022Y-111826819D01*
X147854277Y-111827721D01*
X147901391Y-111784355D01*
X147971330Y-111772148D01*
X148036767Y-111799691D01*
X148064580Y-111831513D01*
X148122287Y-111925683D01*
X148122291Y-111925688D01*
X148124987Y-111930088D01*
X148271250Y-112098938D01*
X148443126Y-112241632D01*
X148636000Y-112354338D01*
X148844692Y-112434030D01*
X148849760Y-112435061D01*
X148849763Y-112435062D01*
X148954604Y-112456392D01*
X149063597Y-112478567D01*
X149068772Y-112478757D01*
X149068774Y-112478757D01*
X149281673Y-112486564D01*
X149281677Y-112486564D01*
X149286837Y-112486753D01*
X149291957Y-112486097D01*
X149291959Y-112486097D01*
X149503288Y-112459025D01*
X149503289Y-112459025D01*
X149508416Y-112458368D01*
X149513376Y-112456880D01*
X149717429Y-112395661D01*
X149717434Y-112395659D01*
X149722384Y-112394174D01*
X149922994Y-112295896D01*
X150104860Y-112166173D01*
X150263096Y-112008489D01*
X150272670Y-111995166D01*
X150393453Y-111827077D01*
X150394776Y-111828028D01*
X150441645Y-111784857D01*
X150511580Y-111772625D01*
X150577026Y-111800144D01*
X150604875Y-111831994D01*
X150664987Y-111930088D01*
X150811250Y-112098938D01*
X150983126Y-112241632D01*
X151176000Y-112354338D01*
X151384692Y-112434030D01*
X151389760Y-112435061D01*
X151389763Y-112435062D01*
X151494604Y-112456392D01*
X151603597Y-112478567D01*
X151608772Y-112478757D01*
X151608774Y-112478757D01*
X151821673Y-112486564D01*
X151821677Y-112486564D01*
X151826837Y-112486753D01*
X151831957Y-112486097D01*
X151831959Y-112486097D01*
X152043288Y-112459025D01*
X152043289Y-112459025D01*
X152048416Y-112458368D01*
X152053376Y-112456880D01*
X152257429Y-112395661D01*
X152257434Y-112395659D01*
X152262384Y-112394174D01*
X152462994Y-112295896D01*
X152644860Y-112166173D01*
X152803096Y-112008489D01*
X152812670Y-111995166D01*
X152933453Y-111827077D01*
X152934776Y-111828028D01*
X152981645Y-111784857D01*
X153051580Y-111772625D01*
X153117026Y-111800144D01*
X153144875Y-111831994D01*
X153204987Y-111930088D01*
X153351250Y-112098938D01*
X153523126Y-112241632D01*
X153716000Y-112354338D01*
X153924692Y-112434030D01*
X153929760Y-112435061D01*
X153929763Y-112435062D01*
X154034604Y-112456392D01*
X154143597Y-112478567D01*
X154148772Y-112478757D01*
X154148774Y-112478757D01*
X154361673Y-112486564D01*
X154361677Y-112486564D01*
X154366837Y-112486753D01*
X154371957Y-112486097D01*
X154371959Y-112486097D01*
X154583288Y-112459025D01*
X154583289Y-112459025D01*
X154588416Y-112458368D01*
X154593376Y-112456880D01*
X154797429Y-112395661D01*
X154797434Y-112395659D01*
X154802384Y-112394174D01*
X155002994Y-112295896D01*
X155184860Y-112166173D01*
X155343096Y-112008489D01*
X155352670Y-111995166D01*
X155473453Y-111827077D01*
X155474776Y-111828028D01*
X155521645Y-111784857D01*
X155591580Y-111772625D01*
X155657026Y-111800144D01*
X155684875Y-111831994D01*
X155744987Y-111930088D01*
X155891250Y-112098938D01*
X156063126Y-112241632D01*
X156256000Y-112354338D01*
X156464692Y-112434030D01*
X156469760Y-112435061D01*
X156469763Y-112435062D01*
X156574604Y-112456392D01*
X156683597Y-112478567D01*
X156688772Y-112478757D01*
X156688774Y-112478757D01*
X156901673Y-112486564D01*
X156901677Y-112486564D01*
X156906837Y-112486753D01*
X156911957Y-112486097D01*
X156911959Y-112486097D01*
X157123288Y-112459025D01*
X157123289Y-112459025D01*
X157128416Y-112458368D01*
X157133376Y-112456880D01*
X157337429Y-112395661D01*
X157337434Y-112395659D01*
X157342384Y-112394174D01*
X157542994Y-112295896D01*
X157724860Y-112166173D01*
X157883096Y-112008489D01*
X157892670Y-111995166D01*
X158013453Y-111827077D01*
X158014776Y-111828028D01*
X158061645Y-111784857D01*
X158131580Y-111772625D01*
X158197026Y-111800144D01*
X158224875Y-111831994D01*
X158284987Y-111930088D01*
X158431250Y-112098938D01*
X158603126Y-112241632D01*
X158796000Y-112354338D01*
X159004692Y-112434030D01*
X159009760Y-112435061D01*
X159009763Y-112435062D01*
X159114604Y-112456392D01*
X159223597Y-112478567D01*
X159228772Y-112478757D01*
X159228774Y-112478757D01*
X159441673Y-112486564D01*
X159441677Y-112486564D01*
X159446837Y-112486753D01*
X159451957Y-112486097D01*
X159451959Y-112486097D01*
X159663288Y-112459025D01*
X159663289Y-112459025D01*
X159668416Y-112458368D01*
X159673376Y-112456880D01*
X159877429Y-112395661D01*
X159877434Y-112395659D01*
X159882384Y-112394174D01*
X160082994Y-112295896D01*
X160264860Y-112166173D01*
X160423096Y-112008489D01*
X160432670Y-111995166D01*
X160553453Y-111827077D01*
X160554776Y-111828028D01*
X160601645Y-111784857D01*
X160671580Y-111772625D01*
X160737026Y-111800144D01*
X160764875Y-111831994D01*
X160824987Y-111930088D01*
X160971250Y-112098938D01*
X161143126Y-112241632D01*
X161336000Y-112354338D01*
X161544692Y-112434030D01*
X161549760Y-112435061D01*
X161549763Y-112435062D01*
X161654604Y-112456392D01*
X161763597Y-112478567D01*
X161768771Y-112478757D01*
X161768773Y-112478757D01*
X161821977Y-112480708D01*
X161889319Y-112503193D01*
X161933814Y-112558516D01*
X161941336Y-112629113D01*
X161906455Y-112695716D01*
X161548174Y-113053998D01*
X161037577Y-113564595D01*
X160975265Y-113598621D01*
X160948482Y-113601500D01*
X151158571Y-113601500D01*
X151150001Y-113601208D01*
X151100751Y-113597850D01*
X151100747Y-113597850D01*
X151093175Y-113597334D01*
X151031142Y-113608161D01*
X151024630Y-113609121D01*
X150962161Y-113616681D01*
X150955052Y-113619368D01*
X150951512Y-113620237D01*
X150937585Y-113624047D01*
X150934114Y-113625095D01*
X150926629Y-113626401D01*
X150868973Y-113651711D01*
X150862882Y-113654196D01*
X150811116Y-113673756D01*
X150811114Y-113673757D01*
X150804011Y-113676441D01*
X150797751Y-113680743D01*
X150794542Y-113682421D01*
X150781877Y-113689470D01*
X150778774Y-113691305D01*
X150771824Y-113694356D01*
X150765798Y-113698980D01*
X150765796Y-113698981D01*
X150721890Y-113732671D01*
X150716552Y-113736549D01*
X150670943Y-113767894D01*
X150670936Y-113767900D01*
X150664681Y-113772199D01*
X150659631Y-113777867D01*
X150659630Y-113777868D01*
X150623842Y-113818036D01*
X150618860Y-113823312D01*
X138812577Y-125629595D01*
X138750265Y-125663621D01*
X138723482Y-125666500D01*
X138458571Y-125666500D01*
X138450001Y-125666208D01*
X138400751Y-125662850D01*
X138400747Y-125662850D01*
X138393175Y-125662334D01*
X138385698Y-125663639D01*
X138385697Y-125663639D01*
X138380088Y-125664618D01*
X138331147Y-125673160D01*
X138324629Y-125674121D01*
X138304906Y-125676508D01*
X138269704Y-125680768D01*
X138269703Y-125680768D01*
X138262161Y-125681681D01*
X138255059Y-125684364D01*
X138251559Y-125685224D01*
X138237562Y-125689053D01*
X138234111Y-125690095D01*
X138226628Y-125691401D01*
X138219673Y-125694454D01*
X138168988Y-125716703D01*
X138162882Y-125719195D01*
X138111115Y-125738756D01*
X138111111Y-125738758D01*
X138104011Y-125741441D01*
X138097751Y-125745743D01*
X138094529Y-125747428D01*
X138081877Y-125754470D01*
X138078774Y-125756305D01*
X138071824Y-125759356D01*
X138065798Y-125763980D01*
X138065796Y-125763981D01*
X138021890Y-125797671D01*
X138016552Y-125801549D01*
X137970943Y-125832894D01*
X137970936Y-125832900D01*
X137964681Y-125837199D01*
X137959631Y-125842867D01*
X137959630Y-125842868D01*
X137923842Y-125883036D01*
X137918860Y-125888312D01*
X136476426Y-127330746D01*
X136413529Y-127364898D01*
X136242712Y-127401206D01*
X136236682Y-127403891D01*
X136236681Y-127403891D01*
X136074278Y-127476197D01*
X136074276Y-127476198D01*
X136068248Y-127478882D01*
X136062907Y-127482762D01*
X136062906Y-127482763D01*
X136012843Y-127519136D01*
X135913747Y-127591134D01*
X135909326Y-127596044D01*
X135909325Y-127596045D01*
X135794897Y-127723131D01*
X135785960Y-127733056D01*
X135690473Y-127898444D01*
X135631458Y-128080072D01*
X135630768Y-128086633D01*
X135630768Y-128086635D01*
X135626220Y-128129908D01*
X135611496Y-128270000D01*
X135631458Y-128459928D01*
X135690473Y-128641556D01*
X135785960Y-128806944D01*
X135790378Y-128811851D01*
X135790379Y-128811852D01*
X135909325Y-128943955D01*
X135913747Y-128948866D01*
X136068248Y-129061118D01*
X136074276Y-129063802D01*
X136074278Y-129063803D01*
X136172184Y-129107393D01*
X136226279Y-129153373D01*
X136246929Y-129221300D01*
X136227577Y-129289608D01*
X136172184Y-129337607D01*
X136074278Y-129381197D01*
X136074276Y-129381198D01*
X136068248Y-129383882D01*
X136062907Y-129387762D01*
X136062906Y-129387763D01*
X136035709Y-129407523D01*
X135913747Y-129496134D01*
X135909326Y-129501044D01*
X135909325Y-129501045D01*
X135817479Y-129603051D01*
X135785960Y-129638056D01*
X135690473Y-129803444D01*
X135631458Y-129985072D01*
X135611496Y-130175000D01*
X100965000Y-130175000D01*
X100965000Y-128270000D01*
X122551502Y-128270000D01*
X122571457Y-128498087D01*
X122572881Y-128503400D01*
X122572881Y-128503402D01*
X122610025Y-128642022D01*
X122630716Y-128719243D01*
X122633039Y-128724224D01*
X122633039Y-128724225D01*
X122725151Y-128921762D01*
X122725154Y-128921767D01*
X122727477Y-128926749D01*
X122766312Y-128982211D01*
X122853966Y-129107393D01*
X122858802Y-129114300D01*
X123020700Y-129276198D01*
X123025208Y-129279355D01*
X123025211Y-129279357D01*
X123096357Y-129329174D01*
X123208251Y-129407523D01*
X123213233Y-129409846D01*
X123213238Y-129409849D01*
X123389952Y-129492251D01*
X123415757Y-129504284D01*
X123421065Y-129505706D01*
X123421067Y-129505707D01*
X123631598Y-129562119D01*
X123631600Y-129562119D01*
X123636913Y-129563543D01*
X123865000Y-129583498D01*
X124093087Y-129563543D01*
X124098400Y-129562119D01*
X124098402Y-129562119D01*
X124308933Y-129505707D01*
X124308935Y-129505706D01*
X124314243Y-129504284D01*
X124340048Y-129492251D01*
X124516762Y-129409849D01*
X124516767Y-129409846D01*
X124521749Y-129407523D01*
X124595243Y-129356062D01*
X128143493Y-129356062D01*
X128152789Y-129368077D01*
X128203994Y-129403931D01*
X128213489Y-129409414D01*
X128410947Y-129501490D01*
X128421239Y-129505236D01*
X128631688Y-129561625D01*
X128642481Y-129563528D01*
X128859525Y-129582517D01*
X128870475Y-129582517D01*
X129087519Y-129563528D01*
X129098312Y-129561625D01*
X129308761Y-129505236D01*
X129319053Y-129501490D01*
X129516511Y-129409414D01*
X129526006Y-129403931D01*
X129578048Y-129367491D01*
X129586424Y-129357012D01*
X129579356Y-129343566D01*
X128877812Y-128642022D01*
X128863868Y-128634408D01*
X128862035Y-128634539D01*
X128855420Y-128638790D01*
X128149923Y-129344287D01*
X128143493Y-129356062D01*
X124595243Y-129356062D01*
X124633643Y-129329174D01*
X124704789Y-129279357D01*
X124704792Y-129279355D01*
X124709300Y-129276198D01*
X124871198Y-129114300D01*
X124876035Y-129107393D01*
X124963688Y-128982211D01*
X125002523Y-128926749D01*
X125004846Y-128921767D01*
X125004849Y-128921762D01*
X125096961Y-128724225D01*
X125096961Y-128724224D01*
X125099284Y-128719243D01*
X125119976Y-128642022D01*
X125157119Y-128503402D01*
X125157119Y-128503400D01*
X125158543Y-128498087D01*
X125178019Y-128275475D01*
X127552483Y-128275475D01*
X127571472Y-128492519D01*
X127573375Y-128503312D01*
X127629764Y-128713761D01*
X127633510Y-128724053D01*
X127725586Y-128921511D01*
X127731069Y-128931006D01*
X127767509Y-128983048D01*
X127777988Y-128991424D01*
X127791434Y-128984356D01*
X128492978Y-128282812D01*
X128499356Y-128271132D01*
X129229408Y-128271132D01*
X129229539Y-128272965D01*
X129233790Y-128279580D01*
X129939287Y-128985077D01*
X129951062Y-128991507D01*
X129963077Y-128982211D01*
X129998931Y-128931006D01*
X130004414Y-128921511D01*
X130096490Y-128724053D01*
X130100236Y-128713761D01*
X130156625Y-128503312D01*
X130158528Y-128492519D01*
X130177517Y-128275475D01*
X130177517Y-128264525D01*
X130158528Y-128047481D01*
X130156625Y-128036688D01*
X130100236Y-127826239D01*
X130096490Y-127815947D01*
X130004414Y-127618489D01*
X129998931Y-127608994D01*
X129962491Y-127556952D01*
X129952012Y-127548576D01*
X129938566Y-127555644D01*
X129237022Y-128257188D01*
X129229408Y-128271132D01*
X128499356Y-128271132D01*
X128500592Y-128268868D01*
X128500461Y-128267035D01*
X128496210Y-128260420D01*
X127790713Y-127554923D01*
X127778938Y-127548493D01*
X127766923Y-127557789D01*
X127731069Y-127608994D01*
X127725586Y-127618489D01*
X127633510Y-127815947D01*
X127629764Y-127826239D01*
X127573375Y-128036688D01*
X127571472Y-128047481D01*
X127552483Y-128264525D01*
X127552483Y-128275475D01*
X125178019Y-128275475D01*
X125178498Y-128270000D01*
X125158543Y-128041913D01*
X125121981Y-127905461D01*
X125100707Y-127826067D01*
X125100706Y-127826065D01*
X125099284Y-127820757D01*
X125096961Y-127815775D01*
X125004849Y-127618238D01*
X125004846Y-127618233D01*
X125002523Y-127613251D01*
X124907783Y-127477948D01*
X124874357Y-127430211D01*
X124874355Y-127430208D01*
X124871198Y-127425700D01*
X124709300Y-127263802D01*
X124704792Y-127260645D01*
X124704789Y-127260643D01*
X124593886Y-127182988D01*
X128143576Y-127182988D01*
X128150644Y-127196434D01*
X128852188Y-127897978D01*
X128866132Y-127905592D01*
X128867965Y-127905461D01*
X128874580Y-127901210D01*
X129580077Y-127195713D01*
X129586507Y-127183938D01*
X129577211Y-127171923D01*
X129526006Y-127136069D01*
X129516511Y-127130586D01*
X129319053Y-127038510D01*
X129308761Y-127034764D01*
X129098312Y-126978375D01*
X129087519Y-126976472D01*
X128870475Y-126957483D01*
X128859525Y-126957483D01*
X128642481Y-126976472D01*
X128631688Y-126978375D01*
X128421239Y-127034764D01*
X128410947Y-127038510D01*
X128213489Y-127130586D01*
X128203994Y-127136069D01*
X128151952Y-127172509D01*
X128143576Y-127182988D01*
X124593886Y-127182988D01*
X124521749Y-127132477D01*
X124516767Y-127130154D01*
X124516762Y-127130151D01*
X124319225Y-127038039D01*
X124319224Y-127038039D01*
X124314243Y-127035716D01*
X124308935Y-127034294D01*
X124308933Y-127034293D01*
X124098402Y-126977881D01*
X124098400Y-126977881D01*
X124093087Y-126976457D01*
X123865000Y-126956502D01*
X123636913Y-126976457D01*
X123631600Y-126977881D01*
X123631598Y-126977881D01*
X123421067Y-127034293D01*
X123421065Y-127034294D01*
X123415757Y-127035716D01*
X123410776Y-127038039D01*
X123410775Y-127038039D01*
X123213238Y-127130151D01*
X123213233Y-127130154D01*
X123208251Y-127132477D01*
X123136114Y-127182988D01*
X123025211Y-127260643D01*
X123025208Y-127260645D01*
X123020700Y-127263802D01*
X122858802Y-127425700D01*
X122855645Y-127430208D01*
X122855643Y-127430211D01*
X122822217Y-127477948D01*
X122727477Y-127613251D01*
X122725154Y-127618233D01*
X122725151Y-127618238D01*
X122633039Y-127815775D01*
X122630716Y-127820757D01*
X122629294Y-127826065D01*
X122629293Y-127826067D01*
X122608019Y-127905461D01*
X122571457Y-128041913D01*
X122551502Y-128270000D01*
X100965000Y-128270000D01*
X100965000Y-124430859D01*
X129697132Y-124430859D01*
X129710457Y-124634151D01*
X129760605Y-124831610D01*
X129845898Y-125016624D01*
X129963479Y-125182997D01*
X130013019Y-125231257D01*
X130086175Y-125302522D01*
X130109410Y-125325157D01*
X130114206Y-125328362D01*
X130114209Y-125328364D01*
X130228430Y-125404684D01*
X130278803Y-125438342D01*
X130284106Y-125440620D01*
X130284109Y-125440622D01*
X130460680Y-125516483D01*
X130465987Y-125518763D01*
X130530130Y-125533277D01*
X130659055Y-125562450D01*
X130659060Y-125562451D01*
X130664692Y-125563725D01*
X130670463Y-125563952D01*
X130670465Y-125563952D01*
X130733470Y-125566427D01*
X130868263Y-125571723D01*
X131069883Y-125542490D01*
X131075347Y-125540635D01*
X131075352Y-125540634D01*
X131257327Y-125478862D01*
X131257332Y-125478860D01*
X131262799Y-125477004D01*
X131268653Y-125473726D01*
X131375688Y-125413783D01*
X131397989Y-125401294D01*
X132233066Y-125401294D01*
X132242948Y-125413783D01*
X132274239Y-125434691D01*
X132284349Y-125440181D01*
X132460835Y-125516005D01*
X132471778Y-125519560D01*
X132659120Y-125561952D01*
X132670530Y-125563454D01*
X132862469Y-125570995D01*
X132873951Y-125570393D01*
X133064045Y-125542832D01*
X133075240Y-125540144D01*
X133257131Y-125478400D01*
X133267628Y-125473726D01*
X133378032Y-125411898D01*
X133387895Y-125401821D01*
X133384940Y-125394151D01*
X132822811Y-124832021D01*
X132808868Y-124824408D01*
X132807034Y-124824539D01*
X132800420Y-124828790D01*
X132239259Y-125389952D01*
X132233066Y-125401294D01*
X131397989Y-125401294D01*
X131440551Y-125377458D01*
X131597186Y-125247186D01*
X131647222Y-125187024D01*
X131723763Y-125094994D01*
X131723764Y-125094993D01*
X131727458Y-125090551D01*
X131727745Y-125090039D01*
X131781506Y-125046292D01*
X131842704Y-125037084D01*
X131864321Y-125039226D01*
X131879676Y-125031113D01*
X132437979Y-124472811D01*
X132444356Y-124461132D01*
X133174408Y-124461132D01*
X133174539Y-124462966D01*
X133178790Y-124469580D01*
X133740239Y-125031028D01*
X133752614Y-125037785D01*
X133759194Y-125032859D01*
X133823726Y-124917628D01*
X133828400Y-124907131D01*
X133890144Y-124725240D01*
X133892832Y-124714045D01*
X133920689Y-124521911D01*
X133921319Y-124514528D01*
X133922650Y-124463704D01*
X133922407Y-124456305D01*
X133904643Y-124262975D01*
X133902545Y-124251654D01*
X133850408Y-124066791D01*
X133846283Y-124056044D01*
X133762163Y-123885465D01*
X133754869Y-123879990D01*
X133742449Y-123886762D01*
X133182021Y-124447189D01*
X133174408Y-124461132D01*
X132444356Y-124461132D01*
X132445592Y-124458868D01*
X132445461Y-124457034D01*
X132441210Y-124450420D01*
X131878538Y-123887749D01*
X131864601Y-123880139D01*
X131834552Y-123882288D01*
X131765178Y-123867197D01*
X131724604Y-123831998D01*
X131640758Y-123719715D01*
X131640758Y-123719714D01*
X131637305Y-123715091D01*
X131547646Y-123632211D01*
X131491943Y-123580719D01*
X131491940Y-123580717D01*
X131487703Y-123576800D01*
X131395580Y-123518675D01*
X132232788Y-123518675D01*
X132236275Y-123527064D01*
X132797189Y-124087979D01*
X132811132Y-124095592D01*
X132812966Y-124095461D01*
X132819580Y-124091210D01*
X133380285Y-123530504D01*
X133387042Y-123518129D01*
X133381012Y-123510073D01*
X133320061Y-123471616D01*
X133309813Y-123466395D01*
X133131401Y-123395216D01*
X133120373Y-123391949D01*
X132931982Y-123354476D01*
X132920535Y-123353273D01*
X132728477Y-123350759D01*
X132716997Y-123351662D01*
X132527697Y-123384190D01*
X132516577Y-123387170D01*
X132336365Y-123453653D01*
X132325991Y-123458601D01*
X132242385Y-123508342D01*
X132232788Y-123518675D01*
X131395580Y-123518675D01*
X131381947Y-123510073D01*
X131320288Y-123471169D01*
X131320283Y-123471167D01*
X131315404Y-123468088D01*
X131126180Y-123392595D01*
X130941966Y-123355952D01*
X130932032Y-123353976D01*
X130932031Y-123353976D01*
X130926366Y-123352849D01*
X130920592Y-123352773D01*
X130920588Y-123352773D01*
X130817452Y-123351424D01*
X130722655Y-123350183D01*
X130716958Y-123351162D01*
X130716957Y-123351162D01*
X130527567Y-123383705D01*
X130521870Y-123384684D01*
X130330734Y-123455198D01*
X130325773Y-123458150D01*
X130325772Y-123458150D01*
X130209939Y-123527064D01*
X130155649Y-123559363D01*
X130002478Y-123693690D01*
X129998911Y-123698215D01*
X129998906Y-123698220D01*
X129912331Y-123808040D01*
X129876351Y-123853681D01*
X129873662Y-123858792D01*
X129873660Y-123858795D01*
X129858946Y-123886762D01*
X129781492Y-124033978D01*
X129721078Y-124228543D01*
X129697132Y-124430859D01*
X100965000Y-124430859D01*
X100965000Y-112249853D01*
X143384977Y-112249853D01*
X143390258Y-112256907D01*
X143551756Y-112351279D01*
X143561042Y-112355729D01*
X143760001Y-112431703D01*
X143769899Y-112434579D01*
X143978595Y-112477038D01*
X143988823Y-112478257D01*
X144201650Y-112486062D01*
X144211936Y-112485595D01*
X144423185Y-112458534D01*
X144433262Y-112456392D01*
X144637255Y-112395191D01*
X144646842Y-112391433D01*
X144838098Y-112297738D01*
X144846944Y-112292465D01*
X144894247Y-112258723D01*
X144901211Y-112249853D01*
X145924977Y-112249853D01*
X145930258Y-112256907D01*
X146091756Y-112351279D01*
X146101042Y-112355729D01*
X146300001Y-112431703D01*
X146309899Y-112434579D01*
X146518595Y-112477038D01*
X146528823Y-112478257D01*
X146741650Y-112486062D01*
X146751936Y-112485595D01*
X146963185Y-112458534D01*
X146973262Y-112456392D01*
X147177255Y-112395191D01*
X147186842Y-112391433D01*
X147378098Y-112297738D01*
X147386944Y-112292465D01*
X147434247Y-112258723D01*
X147442648Y-112248023D01*
X147435660Y-112234870D01*
X146697812Y-111497022D01*
X146683868Y-111489408D01*
X146682035Y-111489539D01*
X146675420Y-111493790D01*
X145931737Y-112237473D01*
X145924977Y-112249853D01*
X144901211Y-112249853D01*
X144902648Y-112248023D01*
X144895660Y-112234870D01*
X144157812Y-111497022D01*
X144143868Y-111489408D01*
X144142035Y-111489539D01*
X144135420Y-111493790D01*
X143391737Y-112237473D01*
X143384977Y-112249853D01*
X100965000Y-112249853D01*
X100965000Y-101091000D01*
X100985002Y-101022879D01*
X101038658Y-100976386D01*
X101091000Y-100965000D01*
X213869000Y-100965000D01*
X213937121Y-100985002D01*
G37*
G04 #@! TD.AperFunction*
G04 #@! TA.AperFunction,Conductor*
G36*
X208443674Y-113729502D02*
G01*
X208470790Y-113753002D01*
X208506250Y-113793938D01*
X208678126Y-113936632D01*
X208748595Y-113977811D01*
X208751445Y-113979476D01*
X208800169Y-114031114D01*
X208813240Y-114100897D01*
X208786509Y-114166669D01*
X208746055Y-114200027D01*
X208733607Y-114206507D01*
X208729474Y-114209610D01*
X208729471Y-114209612D01*
X208705247Y-114227800D01*
X208554965Y-114340635D01*
X208400629Y-114502138D01*
X208274743Y-114686680D01*
X208259003Y-114720590D01*
X208188953Y-114871500D01*
X208180688Y-114889305D01*
X208120989Y-115104570D01*
X208097251Y-115326695D01*
X208097548Y-115331848D01*
X208097548Y-115331851D01*
X208103011Y-115426590D01*
X208110110Y-115549715D01*
X208111247Y-115554761D01*
X208111248Y-115554767D01*
X208131119Y-115642939D01*
X208159222Y-115767639D01*
X208243266Y-115974616D01*
X208287437Y-116046697D01*
X208357291Y-116160688D01*
X208359987Y-116165088D01*
X208506250Y-116333938D01*
X208678126Y-116476632D01*
X208748595Y-116517811D01*
X208751445Y-116519476D01*
X208800169Y-116571114D01*
X208813240Y-116640897D01*
X208786509Y-116706669D01*
X208746055Y-116740027D01*
X208733607Y-116746507D01*
X208729474Y-116749610D01*
X208729471Y-116749612D01*
X208705247Y-116767800D01*
X208554965Y-116880635D01*
X208400629Y-117042138D01*
X208293204Y-117199618D01*
X208290295Y-117203882D01*
X208236857Y-117248250D01*
X208228971Y-117251711D01*
X208222874Y-117254199D01*
X208171116Y-117273756D01*
X208171114Y-117273757D01*
X208164011Y-117276441D01*
X208157752Y-117280743D01*
X208154544Y-117282420D01*
X208141874Y-117289472D01*
X208138777Y-117291304D01*
X208131823Y-117294356D01*
X208125797Y-117298980D01*
X208125795Y-117298981D01*
X208081880Y-117332678D01*
X208076562Y-117336542D01*
X208024681Y-117372199D01*
X208019631Y-117377867D01*
X208019630Y-117377868D01*
X207983850Y-117418027D01*
X207978868Y-117423303D01*
X203249555Y-122152617D01*
X198533066Y-126869106D01*
X198470754Y-126903132D01*
X198443971Y-126906011D01*
X193830489Y-126906011D01*
X193762368Y-126886009D01*
X193715875Y-126832353D01*
X193705771Y-126762079D01*
X193709930Y-126743383D01*
X193735867Y-126658015D01*
X193737370Y-126653069D01*
X193766529Y-126431590D01*
X193766611Y-126428240D01*
X193768074Y-126368365D01*
X193768074Y-126368361D01*
X193768156Y-126365000D01*
X193749852Y-126142361D01*
X193695431Y-125925702D01*
X193606354Y-125720840D01*
X193509350Y-125570894D01*
X193487822Y-125537617D01*
X193487820Y-125537614D01*
X193485014Y-125533277D01*
X193334670Y-125368051D01*
X193330619Y-125364852D01*
X193330615Y-125364848D01*
X193163414Y-125232800D01*
X193163410Y-125232798D01*
X193159359Y-125229598D01*
X192963789Y-125121638D01*
X192958920Y-125119914D01*
X192958916Y-125119912D01*
X192758087Y-125048795D01*
X192758083Y-125048794D01*
X192753212Y-125047069D01*
X192748119Y-125046162D01*
X192748116Y-125046161D01*
X192538373Y-125008800D01*
X192538367Y-125008799D01*
X192533284Y-125007894D01*
X192459452Y-125006992D01*
X192315081Y-125005228D01*
X192315079Y-125005228D01*
X192309911Y-125005165D01*
X192089091Y-125038955D01*
X191876756Y-125108357D01*
X191818543Y-125138661D01*
X191742432Y-125178282D01*
X191678607Y-125211507D01*
X191674477Y-125214608D01*
X191674471Y-125214612D01*
X191504100Y-125342530D01*
X191499965Y-125345635D01*
X191496393Y-125349373D01*
X191360238Y-125491851D01*
X191345629Y-125507138D01*
X191342720Y-125511403D01*
X191342714Y-125511411D01*
X191321280Y-125542832D01*
X191238204Y-125664618D01*
X191237898Y-125665066D01*
X191182987Y-125710069D01*
X191112462Y-125718240D01*
X191048715Y-125686986D01*
X191028017Y-125662501D01*
X190998062Y-125616197D01*
X190987377Y-125606995D01*
X190977812Y-125611398D01*
X189954095Y-126635115D01*
X189891783Y-126669141D01*
X189820968Y-126664076D01*
X189775905Y-126635115D01*
X189594885Y-126454095D01*
X189560859Y-126391783D01*
X189565924Y-126320968D01*
X189594885Y-126275905D01*
X190618389Y-125252401D01*
X190625410Y-125239544D01*
X190618611Y-125230213D01*
X190614554Y-125227518D01*
X190428117Y-125124599D01*
X190418705Y-125120369D01*
X190217959Y-125049280D01*
X190207988Y-125046646D01*
X190185452Y-125042632D01*
X190121894Y-125010994D01*
X190085531Y-124950017D01*
X190087908Y-124879060D01*
X190118453Y-124829490D01*
X201201538Y-113746405D01*
X201263850Y-113712379D01*
X201290633Y-113709500D01*
X208375553Y-113709500D01*
X208443674Y-113729502D01*
G37*
G04 #@! TD.AperFunction*
G04 #@! TD*
M02*
