G04 #@! TF.GenerationSoftware,KiCad,Pcbnew,(6.0.0-0)*
G04 #@! TF.CreationDate,2022-04-11T17:58:48+02:00*
G04 #@! TF.ProjectId,ACSI2SD MSTE,41435349-3253-4442-904d-5354452e6b69,1.1*
G04 #@! TF.SameCoordinates,Original*
G04 #@! TF.FileFunction,Soldermask,Top*
G04 #@! TF.FilePolarity,Negative*
%FSLAX46Y46*%
G04 Gerber Fmt 4.6, Leading zero omitted, Abs format (unit mm)*
G04 Created by KiCad (PCBNEW (6.0.0-0)) date 2022-04-11 17:58:48*
%MOMM*%
%LPD*%
G01*
G04 APERTURE LIST*
G04 Aperture macros list*
%AMFreePoly0*
4,1,22,0.550000,-0.750000,0.000000,-0.750000,0.000000,-0.745033,-0.079941,-0.743568,-0.215256,-0.701293,-0.333266,-0.622738,-0.424486,-0.514219,-0.481581,-0.384460,-0.499164,-0.250000,-0.500000,-0.250000,-0.500000,0.250000,-0.499164,0.250000,-0.499963,0.256109,-0.478152,0.396186,-0.417904,0.524511,-0.324060,0.630769,-0.204165,0.706417,-0.067858,0.745374,0.000000,0.744959,0.000000,0.750000,
0.550000,0.750000,0.550000,-0.750000,0.550000,-0.750000,$1*%
%AMFreePoly1*
4,1,20,0.000000,0.744959,0.073905,0.744508,0.209726,0.703889,0.328688,0.626782,0.421226,0.519385,0.479903,0.390333,0.500000,0.250000,0.500000,-0.250000,0.499851,-0.262216,0.476331,-0.402017,0.414519,-0.529596,0.319384,-0.634700,0.198574,-0.708877,0.061801,-0.746166,0.000000,-0.745033,0.000000,-0.750000,-0.550000,-0.750000,-0.550000,0.750000,0.000000,0.750000,0.000000,0.744959,
0.000000,0.744959,$1*%
%AMFreePoly2*
4,1,22,0.500000,-0.750000,0.000000,-0.750000,0.000000,-0.745033,-0.079941,-0.743568,-0.215256,-0.701293,-0.333266,-0.622738,-0.424486,-0.514219,-0.481581,-0.384460,-0.499164,-0.250000,-0.500000,-0.250000,-0.500000,0.250000,-0.499164,0.250000,-0.499963,0.256109,-0.478152,0.396186,-0.417904,0.524511,-0.324060,0.630769,-0.204165,0.706417,-0.067858,0.745374,0.000000,0.744959,0.000000,0.750000,
0.500000,0.750000,0.500000,-0.750000,0.500000,-0.750000,$1*%
%AMFreePoly3*
4,1,20,0.000000,0.744959,0.073905,0.744508,0.209726,0.703889,0.328688,0.626782,0.421226,0.519385,0.479903,0.390333,0.500000,0.250000,0.500000,-0.250000,0.499851,-0.262216,0.476331,-0.402017,0.414519,-0.529596,0.319384,-0.634700,0.198574,-0.708877,0.061801,-0.746166,0.000000,-0.745033,0.000000,-0.750000,-0.500000,-0.750000,-0.500000,0.750000,0.000000,0.750000,0.000000,0.744959,
0.000000,0.744959,$1*%
G04 Aperture macros list end*
%ADD10R,1.000000X1.500000*%
%ADD11R,1.700000X1.700000*%
%ADD12C,1.700000*%
%ADD13FreePoly0,0.000000*%
%ADD14FreePoly1,0.000000*%
%ADD15C,1.100000*%
%ADD16C,1.600000*%
%ADD17R,0.700000X1.500000*%
%ADD18R,1.500000X2.800000*%
%ADD19FreePoly2,180.000000*%
%ADD20FreePoly3,180.000000*%
%ADD21C,1.200000*%
%ADD22O,1.700000X1.700000*%
G04 APERTURE END LIST*
D10*
G04 #@! TO.C,JP6*
X169530000Y-135255000D03*
X170830000Y-135255000D03*
G04 #@! TD*
D11*
G04 #@! TO.C,U1*
X144145000Y-126365000D03*
D12*
X146685000Y-126365000D03*
X149225000Y-126365000D03*
X151765000Y-126365000D03*
X154305000Y-126365000D03*
X156845000Y-126365000D03*
X159385000Y-126365000D03*
X161925000Y-126365000D03*
X164465000Y-126365000D03*
X167005000Y-126365000D03*
X169545000Y-126365000D03*
X172085000Y-126365000D03*
X174625000Y-126365000D03*
X177165000Y-126365000D03*
X179705000Y-126365000D03*
X182245000Y-126365000D03*
X184785000Y-126365000D03*
X187325000Y-126365000D03*
X189865000Y-126365000D03*
X192405000Y-126365000D03*
X192405000Y-111125000D03*
X189865000Y-111125000D03*
X187325000Y-111125000D03*
X184785000Y-111125000D03*
X182245000Y-111125000D03*
X179705000Y-111125000D03*
X177165000Y-111125000D03*
X174625000Y-111125000D03*
X172085000Y-111125000D03*
X169545000Y-111125000D03*
X167005000Y-111125000D03*
X164465000Y-111125000D03*
X161925000Y-111125000D03*
X159385000Y-111125000D03*
X156845000Y-111125000D03*
X154305000Y-111125000D03*
X151765000Y-111125000D03*
X149225000Y-111125000D03*
X146685000Y-111125000D03*
X144145000Y-111125000D03*
G04 #@! TD*
D13*
G04 #@! TO.C,JP10*
X201265000Y-111760000D03*
D10*
X202565000Y-111760000D03*
D14*
X203865000Y-111760000D03*
G04 #@! TD*
D15*
G04 #@! TO.C,J2*
X110421000Y-135305000D03*
D16*
X131421000Y-135305000D03*
D10*
X128795000Y-132505000D03*
X126295000Y-132505000D03*
X123795000Y-132505000D03*
X121295000Y-132505000D03*
X118795000Y-132505000D03*
X116295000Y-132505000D03*
X113870000Y-132505000D03*
X112170000Y-132505000D03*
X131295000Y-132505000D03*
D17*
X110870000Y-132505000D03*
X109670000Y-132505000D03*
D18*
X108270000Y-134105000D03*
X133371000Y-134105000D03*
X108270000Y-155605000D03*
X135570000Y-155605000D03*
G04 #@! TD*
D10*
G04 #@! TO.C,JP1*
X181595000Y-104140000D03*
X182895000Y-104140000D03*
G04 #@! TD*
D19*
G04 #@! TO.C,JP8*
X197500000Y-132080000D03*
D20*
X196200000Y-132080000D03*
G04 #@! TD*
D10*
G04 #@! TO.C,JP2*
X176515000Y-104140000D03*
X177815000Y-104140000D03*
G04 #@! TD*
D13*
G04 #@! TO.C,JP9*
X201265000Y-106045000D03*
D10*
X202565000Y-106045000D03*
D14*
X203865000Y-106045000D03*
G04 #@! TD*
D21*
G04 #@! TO.C,C2*
X130810000Y-124460000D03*
X132810000Y-124460000D03*
G04 #@! TD*
D10*
G04 #@! TO.C,JP3*
X171435000Y-104140000D03*
X172735000Y-104140000D03*
G04 #@! TD*
D16*
G04 #@! TO.C,C1*
X123865000Y-128270000D03*
X128865000Y-128270000D03*
G04 #@! TD*
D10*
G04 #@! TO.C,JP4*
X154925000Y-104140000D03*
X156225000Y-104140000D03*
G04 #@! TD*
G04 #@! TO.C,JP7*
X173975000Y-135255000D03*
X175275000Y-135255000D03*
G04 #@! TD*
G04 #@! TO.C,JP5*
X159370000Y-104140000D03*
X160670000Y-104140000D03*
G04 #@! TD*
D11*
G04 #@! TO.C,J1*
X212000000Y-143300000D03*
D22*
X209460000Y-143300000D03*
X212000000Y-140760000D03*
X209460000Y-140760000D03*
X212000000Y-138220000D03*
X209460000Y-138220000D03*
X212000000Y-135680000D03*
X209460000Y-135680000D03*
X212000000Y-133140000D03*
X209460000Y-133140000D03*
X212000000Y-130600000D03*
X209460000Y-130600000D03*
X212000000Y-128060000D03*
X209460000Y-128060000D03*
X212000000Y-125520000D03*
X209460000Y-125520000D03*
X212000000Y-122980000D03*
X209460000Y-122980000D03*
X212000000Y-120440000D03*
X209460000Y-120440000D03*
X212000000Y-117900000D03*
X209460000Y-117900000D03*
X212000000Y-115360000D03*
X209460000Y-115360000D03*
X212000000Y-112820000D03*
X209460000Y-112820000D03*
X212000000Y-110280000D03*
X209460000Y-110280000D03*
X212000000Y-107740000D03*
X209460000Y-107740000D03*
G04 #@! TD*
M02*
