M48
METRIC,TZ
T1C0.400
T2C0.600
T3C0.800
T4C1.000
%
G90
G05
T1
X136525Y-128270
X136525Y-130175
X137160Y-109855
X137795Y-111125
X166370Y-123190
X194310Y-132080
X199390Y-106045
X199390Y-132080
X200025Y-111760
X205740Y-106045
T2
X130810Y-124460
X132810Y-124460
T3
X123865Y-128270
X128865Y-128270
T4
X144145Y-111125
X144145Y-126365
X146685Y-111125
X146685Y-126365
X149225Y-111125
X149225Y-126365
X151765Y-111125
X151765Y-126365
X154305Y-111125
X154305Y-126365
X156845Y-111125
X156845Y-126365
X159385Y-111125
X159385Y-126365
X161925Y-111125
X161925Y-126365
X164465Y-111125
X164465Y-126365
X167005Y-111125
X167005Y-126365
X169545Y-111125
X169545Y-126365
X172085Y-111125
X172085Y-126365
X174625Y-111125
X174625Y-126365
X177165Y-111125
X177165Y-126365
X179705Y-111125
X179705Y-126365
X182245Y-111125
X182245Y-126365
X184785Y-111125
X184785Y-126365
X187325Y-111125
X187325Y-126365
X189865Y-111125
X189865Y-126365
X192405Y-111125
X192405Y-126365
X209460Y-107740
X209460Y-110280
X209460Y-112820
X209460Y-115360
X209460Y-117900
X209460Y-120440
X209460Y-122980
X209460Y-125520
X209460Y-128060
X209460Y-130600
X209460Y-133140
X209460Y-135680
X209460Y-138220
X209460Y-140760
X209460Y-143300
X212000Y-107740
X212000Y-110280
X212000Y-112820
X212000Y-115360
X212000Y-117900
X212000Y-120440
X212000Y-122980
X212000Y-125520
X212000Y-128060
X212000Y-130600
X212000Y-133140
X212000Y-135680
X212000Y-138220
X212000Y-140760
X212000Y-143300
T0
M30
