G04 #@! TF.GenerationSoftware,KiCad,Pcbnew,(6.0.0-0)*
G04 #@! TF.CreationDate,2022-04-11T17:58:48+02:00*
G04 #@! TF.ProjectId,ACSI2SD MSTE,41435349-3253-4442-904d-5354452e6b69,1.1*
G04 #@! TF.SameCoordinates,Original*
G04 #@! TF.FileFunction,Legend,Top*
G04 #@! TF.FilePolarity,Positive*
%FSLAX46Y46*%
G04 Gerber Fmt 4.6, Leading zero omitted, Abs format (unit mm)*
G04 Created by KiCad (PCBNEW (6.0.0-0)) date 2022-04-11 17:58:48*
%MOMM*%
%LPD*%
G01*
G04 APERTURE LIST*
%ADD10C,0.150000*%
%ADD11C,0.254000*%
%ADD12C,0.120000*%
%ADD13C,0.100000*%
G04 APERTURE END LIST*
D10*
X197310476Y-121372380D02*
X197643809Y-122372380D01*
X197977142Y-121372380D01*
X198262857Y-121467619D02*
X198310476Y-121420000D01*
X198405714Y-121372380D01*
X198643809Y-121372380D01*
X198739047Y-121420000D01*
X198786666Y-121467619D01*
X198834285Y-121562857D01*
X198834285Y-121658095D01*
X198786666Y-121800952D01*
X198215238Y-122372380D01*
X198834285Y-122372380D01*
X197310476Y-116292380D02*
X197643809Y-117292380D01*
X197977142Y-116292380D01*
X198834285Y-117292380D02*
X198262857Y-117292380D01*
X198548571Y-117292380D02*
X198548571Y-116292380D01*
X198453333Y-116435238D01*
X198358095Y-116530476D01*
X198262857Y-116578095D01*
X204794506Y-121920000D02*
X201943452Y-121920000D01*
X201943452Y-121920000D02*
X201943452Y-120650000D01*
X201943452Y-120650000D02*
X204794506Y-120650000D01*
X204794506Y-120650000D02*
X204794506Y-121920000D01*
G36*
X204794506Y-121920000D02*
G01*
X201943452Y-121920000D01*
X201943452Y-120650000D01*
X204794506Y-120650000D01*
X204794506Y-121920000D01*
G37*
X200025000Y-122242110D02*
X205105000Y-122242110D01*
X205105000Y-122242110D02*
X205105000Y-120337110D01*
X205105000Y-120337110D02*
X200025000Y-120337110D01*
X200025000Y-120337110D02*
X200025000Y-122242110D01*
X200025000Y-124428214D02*
X205105000Y-124428214D01*
X205105000Y-124428214D02*
X205105000Y-122523214D01*
X205105000Y-122523214D02*
X200025000Y-122523214D01*
X200025000Y-122523214D02*
X200025000Y-124428214D01*
X204794506Y-124106104D02*
X201943452Y-124106104D01*
X201943452Y-124106104D02*
X201943452Y-122836104D01*
X201943452Y-122836104D02*
X204794506Y-122836104D01*
X204794506Y-122836104D02*
X204794506Y-124106104D01*
G36*
X204794506Y-124106104D02*
G01*
X201943452Y-124106104D01*
X201943452Y-122836104D01*
X204794506Y-122836104D01*
X204794506Y-124106104D01*
G37*
X205105000Y-116798994D02*
X200025000Y-116798994D01*
X200025000Y-116798994D02*
X200025000Y-118703994D01*
X200025000Y-118703994D02*
X205105000Y-118703994D01*
X205105000Y-118703994D02*
X205105000Y-116798994D01*
X200335494Y-117121104D02*
X203186548Y-117121104D01*
X203186548Y-117121104D02*
X203186548Y-118391104D01*
X203186548Y-118391104D02*
X200335494Y-118391104D01*
X200335494Y-118391104D02*
X200335494Y-117121104D01*
G36*
X200335494Y-117121104D02*
G01*
X203186548Y-117121104D01*
X203186548Y-118391104D01*
X200335494Y-118391104D01*
X200335494Y-117121104D01*
G37*
X205105000Y-114612890D02*
X200025000Y-114612890D01*
X200025000Y-114612890D02*
X200025000Y-116517890D01*
X200025000Y-116517890D02*
X205105000Y-116517890D01*
X205105000Y-116517890D02*
X205105000Y-114612890D01*
X200335494Y-114935000D02*
X203186548Y-114935000D01*
X203186548Y-114935000D02*
X203186548Y-116205000D01*
X203186548Y-116205000D02*
X200335494Y-116205000D01*
X200335494Y-116205000D02*
X200335494Y-114935000D01*
G36*
X200335494Y-114935000D02*
G01*
X203186548Y-114935000D01*
X203186548Y-116205000D01*
X200335494Y-116205000D01*
X200335494Y-114935000D01*
G37*
X193508809Y-136247142D02*
X193461190Y-136294761D01*
X193318333Y-136342380D01*
X193223095Y-136342380D01*
X193080238Y-136294761D01*
X192985000Y-136199523D01*
X192937380Y-136104285D01*
X192889761Y-135913809D01*
X192889761Y-135770952D01*
X192937380Y-135580476D01*
X192985000Y-135485238D01*
X193080238Y-135390000D01*
X193223095Y-135342380D01*
X193318333Y-135342380D01*
X193461190Y-135390000D01*
X193508809Y-135437619D01*
X194080238Y-136342380D02*
X193985000Y-136294761D01*
X193937380Y-136199523D01*
X193937380Y-135342380D01*
X194604047Y-136342380D02*
X194508809Y-136294761D01*
X194461190Y-136247142D01*
X194413571Y-136151904D01*
X194413571Y-135866190D01*
X194461190Y-135770952D01*
X194508809Y-135723333D01*
X194604047Y-135675714D01*
X194746904Y-135675714D01*
X194842142Y-135723333D01*
X194889761Y-135770952D01*
X194937380Y-135866190D01*
X194937380Y-136151904D01*
X194889761Y-136247142D01*
X194842142Y-136294761D01*
X194746904Y-136342380D01*
X194604047Y-136342380D01*
X195318333Y-136294761D02*
X195413571Y-136342380D01*
X195604047Y-136342380D01*
X195699285Y-136294761D01*
X195746904Y-136199523D01*
X195746904Y-136151904D01*
X195699285Y-136056666D01*
X195604047Y-136009047D01*
X195461190Y-136009047D01*
X195365952Y-135961428D01*
X195318333Y-135866190D01*
X195318333Y-135818571D01*
X195365952Y-135723333D01*
X195461190Y-135675714D01*
X195604047Y-135675714D01*
X195699285Y-135723333D01*
X196556428Y-136294761D02*
X196461190Y-136342380D01*
X196270714Y-136342380D01*
X196175476Y-136294761D01*
X196127857Y-136199523D01*
X196127857Y-135818571D01*
X196175476Y-135723333D01*
X196270714Y-135675714D01*
X196461190Y-135675714D01*
X196556428Y-135723333D01*
X196604047Y-135818571D01*
X196604047Y-135913809D01*
X196127857Y-136009047D01*
X197461190Y-136342380D02*
X197461190Y-135342380D01*
X197461190Y-136294761D02*
X197365952Y-136342380D01*
X197175476Y-136342380D01*
X197080238Y-136294761D01*
X197032619Y-136247142D01*
X196985000Y-136151904D01*
X196985000Y-135866190D01*
X197032619Y-135770952D01*
X197080238Y-135723333D01*
X197175476Y-135675714D01*
X197365952Y-135675714D01*
X197461190Y-135723333D01*
X198699285Y-135818571D02*
X199461190Y-135818571D01*
X199461190Y-136104285D02*
X198699285Y-136104285D01*
X200556428Y-135342380D02*
X200889761Y-136342380D01*
X201223095Y-135342380D01*
X201508809Y-135437619D02*
X201556428Y-135390000D01*
X201651666Y-135342380D01*
X201889761Y-135342380D01*
X201985000Y-135390000D01*
X202032619Y-135437619D01*
X202080238Y-135532857D01*
X202080238Y-135628095D01*
X202032619Y-135770952D01*
X201461190Y-136342380D01*
X202080238Y-136342380D01*
X134874047Y-124531428D02*
X135635952Y-124531428D01*
X186523809Y-103692142D02*
X186476190Y-103739761D01*
X186333333Y-103787380D01*
X186238095Y-103787380D01*
X186095238Y-103739761D01*
X186000000Y-103644523D01*
X185952380Y-103549285D01*
X185904761Y-103358809D01*
X185904761Y-103215952D01*
X185952380Y-103025476D01*
X186000000Y-102930238D01*
X186095238Y-102835000D01*
X186238095Y-102787380D01*
X186333333Y-102787380D01*
X186476190Y-102835000D01*
X186523809Y-102882619D01*
X187095238Y-103787380D02*
X187000000Y-103739761D01*
X186952380Y-103644523D01*
X186952380Y-102787380D01*
X187619047Y-103787380D02*
X187523809Y-103739761D01*
X187476190Y-103692142D01*
X187428571Y-103596904D01*
X187428571Y-103311190D01*
X187476190Y-103215952D01*
X187523809Y-103168333D01*
X187619047Y-103120714D01*
X187761904Y-103120714D01*
X187857142Y-103168333D01*
X187904761Y-103215952D01*
X187952380Y-103311190D01*
X187952380Y-103596904D01*
X187904761Y-103692142D01*
X187857142Y-103739761D01*
X187761904Y-103787380D01*
X187619047Y-103787380D01*
X188333333Y-103739761D02*
X188428571Y-103787380D01*
X188619047Y-103787380D01*
X188714285Y-103739761D01*
X188761904Y-103644523D01*
X188761904Y-103596904D01*
X188714285Y-103501666D01*
X188619047Y-103454047D01*
X188476190Y-103454047D01*
X188380952Y-103406428D01*
X188333333Y-103311190D01*
X188333333Y-103263571D01*
X188380952Y-103168333D01*
X188476190Y-103120714D01*
X188619047Y-103120714D01*
X188714285Y-103168333D01*
X189571428Y-103739761D02*
X189476190Y-103787380D01*
X189285714Y-103787380D01*
X189190476Y-103739761D01*
X189142857Y-103644523D01*
X189142857Y-103263571D01*
X189190476Y-103168333D01*
X189285714Y-103120714D01*
X189476190Y-103120714D01*
X189571428Y-103168333D01*
X189619047Y-103263571D01*
X189619047Y-103358809D01*
X189142857Y-103454047D01*
X190476190Y-103787380D02*
X190476190Y-102787380D01*
X190476190Y-103739761D02*
X190380952Y-103787380D01*
X190190476Y-103787380D01*
X190095238Y-103739761D01*
X190047619Y-103692142D01*
X190000000Y-103596904D01*
X190000000Y-103311190D01*
X190047619Y-103215952D01*
X190095238Y-103168333D01*
X190190476Y-103120714D01*
X190380952Y-103120714D01*
X190476190Y-103168333D01*
X191714285Y-103263571D02*
X192476190Y-103263571D01*
X192476190Y-103549285D02*
X191714285Y-103549285D01*
X193571428Y-102787380D02*
X193904761Y-103787380D01*
X194238095Y-102787380D01*
X195095238Y-103787380D02*
X194523809Y-103787380D01*
X194809523Y-103787380D02*
X194809523Y-102787380D01*
X194714285Y-102930238D01*
X194619047Y-103025476D01*
X194523809Y-103073095D01*
X186023809Y-104397380D02*
X186214285Y-104397380D01*
X186309523Y-104445000D01*
X186404761Y-104540238D01*
X186452380Y-104730714D01*
X186452380Y-105064047D01*
X186404761Y-105254523D01*
X186309523Y-105349761D01*
X186214285Y-105397380D01*
X186023809Y-105397380D01*
X185928571Y-105349761D01*
X185833333Y-105254523D01*
X185785714Y-105064047D01*
X185785714Y-104730714D01*
X185833333Y-104540238D01*
X185928571Y-104445000D01*
X186023809Y-104397380D01*
X186880952Y-104730714D02*
X186880952Y-105730714D01*
X186880952Y-104778333D02*
X186976190Y-104730714D01*
X187166666Y-104730714D01*
X187261904Y-104778333D01*
X187309523Y-104825952D01*
X187357142Y-104921190D01*
X187357142Y-105206904D01*
X187309523Y-105302142D01*
X187261904Y-105349761D01*
X187166666Y-105397380D01*
X186976190Y-105397380D01*
X186880952Y-105349761D01*
X188166666Y-105349761D02*
X188071428Y-105397380D01*
X187880952Y-105397380D01*
X187785714Y-105349761D01*
X187738095Y-105254523D01*
X187738095Y-104873571D01*
X187785714Y-104778333D01*
X187880952Y-104730714D01*
X188071428Y-104730714D01*
X188166666Y-104778333D01*
X188214285Y-104873571D01*
X188214285Y-104968809D01*
X187738095Y-105064047D01*
X188642857Y-104730714D02*
X188642857Y-105397380D01*
X188642857Y-104825952D02*
X188690476Y-104778333D01*
X188785714Y-104730714D01*
X188928571Y-104730714D01*
X189023809Y-104778333D01*
X189071428Y-104873571D01*
X189071428Y-105397380D01*
X191833333Y-104873571D02*
X192595238Y-104873571D01*
X192595238Y-105159285D02*
X191833333Y-105159285D01*
X193690476Y-104397380D02*
X194023809Y-105397380D01*
X194357142Y-104397380D01*
X194642857Y-104492619D02*
X194690476Y-104445000D01*
X194785714Y-104397380D01*
X195023809Y-104397380D01*
X195119047Y-104445000D01*
X195166666Y-104492619D01*
X195214285Y-104587857D01*
X195214285Y-104683095D01*
X195166666Y-104825952D01*
X194595238Y-105397380D01*
X195214285Y-105397380D01*
X156974285Y-147313333D02*
X157926666Y-147313333D01*
X156783809Y-147884761D02*
X157450476Y-145884761D01*
X158117142Y-147884761D01*
X159926666Y-147694285D02*
X159831428Y-147789523D01*
X159545714Y-147884761D01*
X159355238Y-147884761D01*
X159069523Y-147789523D01*
X158879047Y-147599047D01*
X158783809Y-147408571D01*
X158688571Y-147027619D01*
X158688571Y-146741904D01*
X158783809Y-146360952D01*
X158879047Y-146170476D01*
X159069523Y-145980000D01*
X159355238Y-145884761D01*
X159545714Y-145884761D01*
X159831428Y-145980000D01*
X159926666Y-146075238D01*
X160688571Y-147789523D02*
X160974285Y-147884761D01*
X161450476Y-147884761D01*
X161640952Y-147789523D01*
X161736190Y-147694285D01*
X161831428Y-147503809D01*
X161831428Y-147313333D01*
X161736190Y-147122857D01*
X161640952Y-147027619D01*
X161450476Y-146932380D01*
X161069523Y-146837142D01*
X160879047Y-146741904D01*
X160783809Y-146646666D01*
X160688571Y-146456190D01*
X160688571Y-146265714D01*
X160783809Y-146075238D01*
X160879047Y-145980000D01*
X161069523Y-145884761D01*
X161545714Y-145884761D01*
X161831428Y-145980000D01*
X162688571Y-147884761D02*
X162688571Y-145884761D01*
X163545714Y-146075238D02*
X163640952Y-145980000D01*
X163831428Y-145884761D01*
X164307619Y-145884761D01*
X164498095Y-145980000D01*
X164593333Y-146075238D01*
X164688571Y-146265714D01*
X164688571Y-146456190D01*
X164593333Y-146741904D01*
X163450476Y-147884761D01*
X164688571Y-147884761D01*
X165450476Y-147789523D02*
X165736190Y-147884761D01*
X166212380Y-147884761D01*
X166402857Y-147789523D01*
X166498095Y-147694285D01*
X166593333Y-147503809D01*
X166593333Y-147313333D01*
X166498095Y-147122857D01*
X166402857Y-147027619D01*
X166212380Y-146932380D01*
X165831428Y-146837142D01*
X165640952Y-146741904D01*
X165545714Y-146646666D01*
X165450476Y-146456190D01*
X165450476Y-146265714D01*
X165545714Y-146075238D01*
X165640952Y-145980000D01*
X165831428Y-145884761D01*
X166307619Y-145884761D01*
X166593333Y-145980000D01*
X167164761Y-145884761D02*
X168307619Y-145884761D01*
X167736190Y-147884761D02*
X167736190Y-145884761D01*
X168974285Y-147884761D02*
X168974285Y-145884761D01*
X169640952Y-147313333D01*
X170307619Y-145884761D01*
X170307619Y-147884761D01*
X174021904Y-146551428D02*
X174783809Y-146551428D01*
X174307619Y-147884761D02*
X174307619Y-146170476D01*
X174402857Y-145980000D01*
X174593333Y-145884761D01*
X174783809Y-145884761D01*
X175736190Y-147884761D02*
X175545714Y-147789523D01*
X175450476Y-147694285D01*
X175355238Y-147503809D01*
X175355238Y-146932380D01*
X175450476Y-146741904D01*
X175545714Y-146646666D01*
X175736190Y-146551428D01*
X176021904Y-146551428D01*
X176212380Y-146646666D01*
X176307619Y-146741904D01*
X176402857Y-146932380D01*
X176402857Y-147503809D01*
X176307619Y-147694285D01*
X176212380Y-147789523D01*
X176021904Y-147884761D01*
X175736190Y-147884761D01*
X177260000Y-147884761D02*
X177260000Y-146551428D01*
X177260000Y-146932380D02*
X177355238Y-146741904D01*
X177450476Y-146646666D01*
X177640952Y-146551428D01*
X177831428Y-146551428D01*
X180021904Y-147884761D02*
X180021904Y-145884761D01*
X180688571Y-147313333D01*
X181355238Y-145884761D01*
X181355238Y-147884761D01*
X183069523Y-147789523D02*
X182879047Y-147884761D01*
X182498095Y-147884761D01*
X182307619Y-147789523D01*
X182212380Y-147599047D01*
X182212380Y-146837142D01*
X182307619Y-146646666D01*
X182498095Y-146551428D01*
X182879047Y-146551428D01*
X183069523Y-146646666D01*
X183164761Y-146837142D01*
X183164761Y-147027619D01*
X182212380Y-147218095D01*
X184879047Y-146551428D02*
X184879047Y-148170476D01*
X184783809Y-148360952D01*
X184688571Y-148456190D01*
X184498095Y-148551428D01*
X184212380Y-148551428D01*
X184021904Y-148456190D01*
X184879047Y-147789523D02*
X184688571Y-147884761D01*
X184307619Y-147884761D01*
X184117142Y-147789523D01*
X184021904Y-147694285D01*
X183926666Y-147503809D01*
X183926666Y-146932380D01*
X184021904Y-146741904D01*
X184117142Y-146646666D01*
X184307619Y-146551428D01*
X184688571Y-146551428D01*
X184879047Y-146646666D01*
X186688571Y-147884761D02*
X186688571Y-146837142D01*
X186593333Y-146646666D01*
X186402857Y-146551428D01*
X186021904Y-146551428D01*
X185831428Y-146646666D01*
X186688571Y-147789523D02*
X186498095Y-147884761D01*
X186021904Y-147884761D01*
X185831428Y-147789523D01*
X185736190Y-147599047D01*
X185736190Y-147408571D01*
X185831428Y-147218095D01*
X186021904Y-147122857D01*
X186498095Y-147122857D01*
X186688571Y-147027619D01*
X189069523Y-147789523D02*
X189355238Y-147884761D01*
X189831428Y-147884761D01*
X190021904Y-147789523D01*
X190117142Y-147694285D01*
X190212380Y-147503809D01*
X190212380Y-147313333D01*
X190117142Y-147122857D01*
X190021904Y-147027619D01*
X189831428Y-146932380D01*
X189450476Y-146837142D01*
X189260000Y-146741904D01*
X189164761Y-146646666D01*
X189069523Y-146456190D01*
X189069523Y-146265714D01*
X189164761Y-146075238D01*
X189260000Y-145980000D01*
X189450476Y-145884761D01*
X189926666Y-145884761D01*
X190212380Y-145980000D01*
X190783809Y-145884761D02*
X191926666Y-145884761D01*
X191355238Y-147884761D02*
X191355238Y-145884761D01*
X192593333Y-146837142D02*
X193260000Y-146837142D01*
X193545714Y-147884761D02*
X192593333Y-147884761D01*
X192593333Y-145884761D01*
X193545714Y-145884761D01*
X164974285Y-149580952D02*
X164783809Y-149485714D01*
X164402857Y-149485714D01*
X164212380Y-149580952D01*
X164021904Y-149771428D01*
X163926666Y-149961904D01*
X163926666Y-150342857D01*
X164021904Y-150533333D01*
X164212380Y-150723809D01*
X164402857Y-150819047D01*
X164783809Y-150819047D01*
X164974285Y-150723809D01*
X164593333Y-148819047D02*
X164117142Y-148914285D01*
X163640952Y-149200000D01*
X163355238Y-149676190D01*
X163260000Y-150152380D01*
X163355238Y-150628571D01*
X163640952Y-151104761D01*
X164117142Y-151390476D01*
X164593333Y-151485714D01*
X165069523Y-151390476D01*
X165545714Y-151104761D01*
X165831428Y-150628571D01*
X165926666Y-150152380D01*
X165831428Y-149676190D01*
X165545714Y-149200000D01*
X165069523Y-148914285D01*
X164593333Y-148819047D01*
X168212380Y-151009523D02*
X168498095Y-151104761D01*
X168974285Y-151104761D01*
X169164761Y-151009523D01*
X169260000Y-150914285D01*
X169355238Y-150723809D01*
X169355238Y-150533333D01*
X169260000Y-150342857D01*
X169164761Y-150247619D01*
X168974285Y-150152380D01*
X168593333Y-150057142D01*
X168402857Y-149961904D01*
X168307619Y-149866666D01*
X168212380Y-149676190D01*
X168212380Y-149485714D01*
X168307619Y-149295238D01*
X168402857Y-149200000D01*
X168593333Y-149104761D01*
X169069523Y-149104761D01*
X169355238Y-149200000D01*
X170593333Y-149104761D02*
X170974285Y-149104761D01*
X171164761Y-149200000D01*
X171355238Y-149390476D01*
X171450476Y-149771428D01*
X171450476Y-150438095D01*
X171355238Y-150819047D01*
X171164761Y-151009523D01*
X170974285Y-151104761D01*
X170593333Y-151104761D01*
X170402857Y-151009523D01*
X170212380Y-150819047D01*
X170117142Y-150438095D01*
X170117142Y-149771428D01*
X170212380Y-149390476D01*
X170402857Y-149200000D01*
X170593333Y-149104761D01*
X172879047Y-149104761D02*
X172879047Y-150533333D01*
X172783809Y-150819047D01*
X172593333Y-151009523D01*
X172307619Y-151104761D01*
X172117142Y-151104761D01*
X173736190Y-150533333D02*
X174688571Y-150533333D01*
X173545714Y-151104761D02*
X174212380Y-149104761D01*
X174879047Y-151104761D01*
X175260000Y-149104761D02*
X175926666Y-151104761D01*
X176593333Y-149104761D01*
X177164761Y-150533333D02*
X178117142Y-150533333D01*
X176974285Y-151104761D02*
X177640952Y-149104761D01*
X178307619Y-151104761D01*
X180402857Y-149295238D02*
X180498095Y-149200000D01*
X180688571Y-149104761D01*
X181164761Y-149104761D01*
X181355238Y-149200000D01*
X181450476Y-149295238D01*
X181545714Y-149485714D01*
X181545714Y-149676190D01*
X181450476Y-149961904D01*
X180307619Y-151104761D01*
X181545714Y-151104761D01*
X182783809Y-149104761D02*
X182974285Y-149104761D01*
X183164761Y-149200000D01*
X183260000Y-149295238D01*
X183355238Y-149485714D01*
X183450476Y-149866666D01*
X183450476Y-150342857D01*
X183355238Y-150723809D01*
X183260000Y-150914285D01*
X183164761Y-151009523D01*
X182974285Y-151104761D01*
X182783809Y-151104761D01*
X182593333Y-151009523D01*
X182498095Y-150914285D01*
X182402857Y-150723809D01*
X182307619Y-150342857D01*
X182307619Y-149866666D01*
X182402857Y-149485714D01*
X182498095Y-149295238D01*
X182593333Y-149200000D01*
X182783809Y-149104761D01*
X184212380Y-149295238D02*
X184307619Y-149200000D01*
X184498095Y-149104761D01*
X184974285Y-149104761D01*
X185164761Y-149200000D01*
X185260000Y-149295238D01*
X185355238Y-149485714D01*
X185355238Y-149676190D01*
X185260000Y-149961904D01*
X184117142Y-151104761D01*
X185355238Y-151104761D01*
X186117142Y-149295238D02*
X186212380Y-149200000D01*
X186402857Y-149104761D01*
X186879047Y-149104761D01*
X187069523Y-149200000D01*
X187164761Y-149295238D01*
X187260000Y-149485714D01*
X187260000Y-149676190D01*
X187164761Y-149961904D01*
X186021904Y-151104761D01*
X187260000Y-151104761D01*
X134818571Y-122372380D02*
X134247142Y-122372380D01*
X134532857Y-122372380D02*
X134532857Y-121372380D01*
X134437619Y-121515238D01*
X134342380Y-121610476D01*
X134247142Y-121658095D01*
X135437619Y-121372380D02*
X135532857Y-121372380D01*
X135628095Y-121420000D01*
X135675714Y-121467619D01*
X135723333Y-121562857D01*
X135770952Y-121753333D01*
X135770952Y-121991428D01*
X135723333Y-122181904D01*
X135675714Y-122277142D01*
X135628095Y-122324761D01*
X135532857Y-122372380D01*
X135437619Y-122372380D01*
X135342380Y-122324761D01*
X135294761Y-122277142D01*
X135247142Y-122181904D01*
X135199523Y-121991428D01*
X135199523Y-121753333D01*
X135247142Y-121562857D01*
X135294761Y-121467619D01*
X135342380Y-121420000D01*
X135437619Y-121372380D01*
X136628095Y-121705714D02*
X136628095Y-122372380D01*
X136199523Y-121705714D02*
X136199523Y-122229523D01*
X136247142Y-122324761D01*
X136342380Y-122372380D01*
X136485238Y-122372380D01*
X136580476Y-122324761D01*
X136628095Y-122277142D01*
X137437619Y-121848571D02*
X137104285Y-121848571D01*
X137104285Y-122372380D02*
X137104285Y-121372380D01*
X137580476Y-121372380D01*
X142708809Y-103692142D02*
X142661190Y-103739761D01*
X142518333Y-103787380D01*
X142423095Y-103787380D01*
X142280238Y-103739761D01*
X142185000Y-103644523D01*
X142137380Y-103549285D01*
X142089761Y-103358809D01*
X142089761Y-103215952D01*
X142137380Y-103025476D01*
X142185000Y-102930238D01*
X142280238Y-102835000D01*
X142423095Y-102787380D01*
X142518333Y-102787380D01*
X142661190Y-102835000D01*
X142708809Y-102882619D01*
X143280238Y-103787380D02*
X143185000Y-103739761D01*
X143137380Y-103644523D01*
X143137380Y-102787380D01*
X143804047Y-103787380D02*
X143708809Y-103739761D01*
X143661190Y-103692142D01*
X143613571Y-103596904D01*
X143613571Y-103311190D01*
X143661190Y-103215952D01*
X143708809Y-103168333D01*
X143804047Y-103120714D01*
X143946904Y-103120714D01*
X144042142Y-103168333D01*
X144089761Y-103215952D01*
X144137380Y-103311190D01*
X144137380Y-103596904D01*
X144089761Y-103692142D01*
X144042142Y-103739761D01*
X143946904Y-103787380D01*
X143804047Y-103787380D01*
X144518333Y-103739761D02*
X144613571Y-103787380D01*
X144804047Y-103787380D01*
X144899285Y-103739761D01*
X144946904Y-103644523D01*
X144946904Y-103596904D01*
X144899285Y-103501666D01*
X144804047Y-103454047D01*
X144661190Y-103454047D01*
X144565952Y-103406428D01*
X144518333Y-103311190D01*
X144518333Y-103263571D01*
X144565952Y-103168333D01*
X144661190Y-103120714D01*
X144804047Y-103120714D01*
X144899285Y-103168333D01*
X145756428Y-103739761D02*
X145661190Y-103787380D01*
X145470714Y-103787380D01*
X145375476Y-103739761D01*
X145327857Y-103644523D01*
X145327857Y-103263571D01*
X145375476Y-103168333D01*
X145470714Y-103120714D01*
X145661190Y-103120714D01*
X145756428Y-103168333D01*
X145804047Y-103263571D01*
X145804047Y-103358809D01*
X145327857Y-103454047D01*
X146661190Y-103787380D02*
X146661190Y-102787380D01*
X146661190Y-103739761D02*
X146565952Y-103787380D01*
X146375476Y-103787380D01*
X146280238Y-103739761D01*
X146232619Y-103692142D01*
X146185000Y-103596904D01*
X146185000Y-103311190D01*
X146232619Y-103215952D01*
X146280238Y-103168333D01*
X146375476Y-103120714D01*
X146565952Y-103120714D01*
X146661190Y-103168333D01*
X147899285Y-103263571D02*
X148661190Y-103263571D01*
X148661190Y-103549285D02*
X147899285Y-103549285D01*
X149756428Y-102787380D02*
X150089761Y-103787380D01*
X150423095Y-102787380D01*
X151280238Y-103787380D02*
X150708809Y-103787380D01*
X150994523Y-103787380D02*
X150994523Y-102787380D01*
X150899285Y-102930238D01*
X150804047Y-103025476D01*
X150708809Y-103073095D01*
X142208809Y-104397380D02*
X142399285Y-104397380D01*
X142494523Y-104445000D01*
X142589761Y-104540238D01*
X142637380Y-104730714D01*
X142637380Y-105064047D01*
X142589761Y-105254523D01*
X142494523Y-105349761D01*
X142399285Y-105397380D01*
X142208809Y-105397380D01*
X142113571Y-105349761D01*
X142018333Y-105254523D01*
X141970714Y-105064047D01*
X141970714Y-104730714D01*
X142018333Y-104540238D01*
X142113571Y-104445000D01*
X142208809Y-104397380D01*
X143065952Y-104730714D02*
X143065952Y-105730714D01*
X143065952Y-104778333D02*
X143161190Y-104730714D01*
X143351666Y-104730714D01*
X143446904Y-104778333D01*
X143494523Y-104825952D01*
X143542142Y-104921190D01*
X143542142Y-105206904D01*
X143494523Y-105302142D01*
X143446904Y-105349761D01*
X143351666Y-105397380D01*
X143161190Y-105397380D01*
X143065952Y-105349761D01*
X144351666Y-105349761D02*
X144256428Y-105397380D01*
X144065952Y-105397380D01*
X143970714Y-105349761D01*
X143923095Y-105254523D01*
X143923095Y-104873571D01*
X143970714Y-104778333D01*
X144065952Y-104730714D01*
X144256428Y-104730714D01*
X144351666Y-104778333D01*
X144399285Y-104873571D01*
X144399285Y-104968809D01*
X143923095Y-105064047D01*
X144827857Y-104730714D02*
X144827857Y-105397380D01*
X144827857Y-104825952D02*
X144875476Y-104778333D01*
X144970714Y-104730714D01*
X145113571Y-104730714D01*
X145208809Y-104778333D01*
X145256428Y-104873571D01*
X145256428Y-105397380D01*
X148018333Y-104873571D02*
X148780238Y-104873571D01*
X148780238Y-105159285D02*
X148018333Y-105159285D01*
X149875476Y-104397380D02*
X150208809Y-105397380D01*
X150542142Y-104397380D01*
X150827857Y-104492619D02*
X150875476Y-104445000D01*
X150970714Y-104397380D01*
X151208809Y-104397380D01*
X151304047Y-104445000D01*
X151351666Y-104492619D01*
X151399285Y-104587857D01*
X151399285Y-104683095D01*
X151351666Y-104825952D01*
X150780238Y-105397380D01*
X151399285Y-105397380D01*
X169378809Y-139252142D02*
X169331190Y-139299761D01*
X169188333Y-139347380D01*
X169093095Y-139347380D01*
X168950238Y-139299761D01*
X168855000Y-139204523D01*
X168807380Y-139109285D01*
X168759761Y-138918809D01*
X168759761Y-138775952D01*
X168807380Y-138585476D01*
X168855000Y-138490238D01*
X168950238Y-138395000D01*
X169093095Y-138347380D01*
X169188333Y-138347380D01*
X169331190Y-138395000D01*
X169378809Y-138442619D01*
X169950238Y-139347380D02*
X169855000Y-139299761D01*
X169807380Y-139204523D01*
X169807380Y-138347380D01*
X170474047Y-139347380D02*
X170378809Y-139299761D01*
X170331190Y-139252142D01*
X170283571Y-139156904D01*
X170283571Y-138871190D01*
X170331190Y-138775952D01*
X170378809Y-138728333D01*
X170474047Y-138680714D01*
X170616904Y-138680714D01*
X170712142Y-138728333D01*
X170759761Y-138775952D01*
X170807380Y-138871190D01*
X170807380Y-139156904D01*
X170759761Y-139252142D01*
X170712142Y-139299761D01*
X170616904Y-139347380D01*
X170474047Y-139347380D01*
X171188333Y-139299761D02*
X171283571Y-139347380D01*
X171474047Y-139347380D01*
X171569285Y-139299761D01*
X171616904Y-139204523D01*
X171616904Y-139156904D01*
X171569285Y-139061666D01*
X171474047Y-139014047D01*
X171331190Y-139014047D01*
X171235952Y-138966428D01*
X171188333Y-138871190D01*
X171188333Y-138823571D01*
X171235952Y-138728333D01*
X171331190Y-138680714D01*
X171474047Y-138680714D01*
X171569285Y-138728333D01*
X172426428Y-139299761D02*
X172331190Y-139347380D01*
X172140714Y-139347380D01*
X172045476Y-139299761D01*
X171997857Y-139204523D01*
X171997857Y-138823571D01*
X172045476Y-138728333D01*
X172140714Y-138680714D01*
X172331190Y-138680714D01*
X172426428Y-138728333D01*
X172474047Y-138823571D01*
X172474047Y-138918809D01*
X171997857Y-139014047D01*
X173331190Y-139347380D02*
X173331190Y-138347380D01*
X173331190Y-139299761D02*
X173235952Y-139347380D01*
X173045476Y-139347380D01*
X172950238Y-139299761D01*
X172902619Y-139252142D01*
X172855000Y-139156904D01*
X172855000Y-138871190D01*
X172902619Y-138775952D01*
X172950238Y-138728333D01*
X173045476Y-138680714D01*
X173235952Y-138680714D01*
X173331190Y-138728333D01*
X174569285Y-138823571D02*
X175331190Y-138823571D01*
X175331190Y-139109285D02*
X174569285Y-139109285D01*
X176426428Y-138347380D02*
X176759761Y-139347380D01*
X177093095Y-138347380D01*
X177950238Y-139347380D02*
X177378809Y-139347380D01*
X177664523Y-139347380D02*
X177664523Y-138347380D01*
X177569285Y-138490238D01*
X177474047Y-138585476D01*
X177378809Y-138633095D01*
X168878809Y-139957380D02*
X169069285Y-139957380D01*
X169164523Y-140005000D01*
X169259761Y-140100238D01*
X169307380Y-140290714D01*
X169307380Y-140624047D01*
X169259761Y-140814523D01*
X169164523Y-140909761D01*
X169069285Y-140957380D01*
X168878809Y-140957380D01*
X168783571Y-140909761D01*
X168688333Y-140814523D01*
X168640714Y-140624047D01*
X168640714Y-140290714D01*
X168688333Y-140100238D01*
X168783571Y-140005000D01*
X168878809Y-139957380D01*
X169735952Y-140290714D02*
X169735952Y-141290714D01*
X169735952Y-140338333D02*
X169831190Y-140290714D01*
X170021666Y-140290714D01*
X170116904Y-140338333D01*
X170164523Y-140385952D01*
X170212142Y-140481190D01*
X170212142Y-140766904D01*
X170164523Y-140862142D01*
X170116904Y-140909761D01*
X170021666Y-140957380D01*
X169831190Y-140957380D01*
X169735952Y-140909761D01*
X171021666Y-140909761D02*
X170926428Y-140957380D01*
X170735952Y-140957380D01*
X170640714Y-140909761D01*
X170593095Y-140814523D01*
X170593095Y-140433571D01*
X170640714Y-140338333D01*
X170735952Y-140290714D01*
X170926428Y-140290714D01*
X171021666Y-140338333D01*
X171069285Y-140433571D01*
X171069285Y-140528809D01*
X170593095Y-140624047D01*
X171497857Y-140290714D02*
X171497857Y-140957380D01*
X171497857Y-140385952D02*
X171545476Y-140338333D01*
X171640714Y-140290714D01*
X171783571Y-140290714D01*
X171878809Y-140338333D01*
X171926428Y-140433571D01*
X171926428Y-140957380D01*
X174688333Y-140433571D02*
X175450238Y-140433571D01*
X175450238Y-140719285D02*
X174688333Y-140719285D01*
X176545476Y-139957380D02*
X176878809Y-140957380D01*
X177212142Y-139957380D01*
X177497857Y-140052619D02*
X177545476Y-140005000D01*
X177640714Y-139957380D01*
X177878809Y-139957380D01*
X177974047Y-140005000D01*
X178021666Y-140052619D01*
X178069285Y-140147857D01*
X178069285Y-140243095D01*
X178021666Y-140385952D01*
X177450238Y-140957380D01*
X178069285Y-140957380D01*
X124817380Y-130627380D02*
X124245952Y-130627380D01*
X124531666Y-130627380D02*
X124531666Y-129627380D01*
X124436428Y-129770238D01*
X124341190Y-129865476D01*
X124245952Y-129913095D01*
X125436428Y-129627380D02*
X125531666Y-129627380D01*
X125626904Y-129675000D01*
X125674523Y-129722619D01*
X125722142Y-129817857D01*
X125769761Y-130008333D01*
X125769761Y-130246428D01*
X125722142Y-130436904D01*
X125674523Y-130532142D01*
X125626904Y-130579761D01*
X125531666Y-130627380D01*
X125436428Y-130627380D01*
X125341190Y-130579761D01*
X125293571Y-130532142D01*
X125245952Y-130436904D01*
X125198333Y-130246428D01*
X125198333Y-130008333D01*
X125245952Y-129817857D01*
X125293571Y-129722619D01*
X125341190Y-129675000D01*
X125436428Y-129627380D01*
X126388809Y-129627380D02*
X126484047Y-129627380D01*
X126579285Y-129675000D01*
X126626904Y-129722619D01*
X126674523Y-129817857D01*
X126722142Y-130008333D01*
X126722142Y-130246428D01*
X126674523Y-130436904D01*
X126626904Y-130532142D01*
X126579285Y-130579761D01*
X126484047Y-130627380D01*
X126388809Y-130627380D01*
X126293571Y-130579761D01*
X126245952Y-130532142D01*
X126198333Y-130436904D01*
X126150714Y-130246428D01*
X126150714Y-130008333D01*
X126198333Y-129817857D01*
X126245952Y-129722619D01*
X126293571Y-129675000D01*
X126388809Y-129627380D01*
X127150714Y-129960714D02*
X127150714Y-130627380D01*
X127150714Y-130055952D02*
X127198333Y-130008333D01*
X127293571Y-129960714D01*
X127436428Y-129960714D01*
X127531666Y-130008333D01*
X127579285Y-130103571D01*
X127579285Y-130627380D01*
X128388809Y-130103571D02*
X128055476Y-130103571D01*
X128055476Y-130627380D02*
X128055476Y-129627380D01*
X128531666Y-129627380D01*
G04 #@! TO.C,JP6*
X169346666Y-132907380D02*
X169346666Y-133621666D01*
X169299047Y-133764523D01*
X169203809Y-133859761D01*
X169060952Y-133907380D01*
X168965714Y-133907380D01*
X169822857Y-133907380D02*
X169822857Y-132907380D01*
X170203809Y-132907380D01*
X170299047Y-132955000D01*
X170346666Y-133002619D01*
X170394285Y-133097857D01*
X170394285Y-133240714D01*
X170346666Y-133335952D01*
X170299047Y-133383571D01*
X170203809Y-133431190D01*
X169822857Y-133431190D01*
X171251428Y-132907380D02*
X171060952Y-132907380D01*
X170965714Y-132955000D01*
X170918095Y-133002619D01*
X170822857Y-133145476D01*
X170775238Y-133335952D01*
X170775238Y-133716904D01*
X170822857Y-133812142D01*
X170870476Y-133859761D01*
X170965714Y-133907380D01*
X171156190Y-133907380D01*
X171251428Y-133859761D01*
X171299047Y-133812142D01*
X171346666Y-133716904D01*
X171346666Y-133478809D01*
X171299047Y-133383571D01*
X171251428Y-133335952D01*
X171156190Y-133288333D01*
X170965714Y-133288333D01*
X170870476Y-133335952D01*
X170822857Y-133383571D01*
X170775238Y-133478809D01*
G04 #@! TO.C,U1*
X139787380Y-119506904D02*
X140596904Y-119506904D01*
X140692142Y-119459285D01*
X140739761Y-119411666D01*
X140787380Y-119316428D01*
X140787380Y-119125952D01*
X140739761Y-119030714D01*
X140692142Y-118983095D01*
X140596904Y-118935476D01*
X139787380Y-118935476D01*
X140787380Y-117935476D02*
X140787380Y-118506904D01*
X140787380Y-118221190D02*
X139787380Y-118221190D01*
X139930238Y-118316428D01*
X140025476Y-118411666D01*
X140073095Y-118506904D01*
X190528714Y-122007380D02*
X191085857Y-122007380D01*
X190785857Y-122388333D01*
X190914428Y-122388333D01*
X191000142Y-122435952D01*
X191043000Y-122483571D01*
X191085857Y-122578809D01*
X191085857Y-122816904D01*
X191043000Y-122912142D01*
X191000142Y-122959761D01*
X190914428Y-123007380D01*
X190657285Y-123007380D01*
X190571571Y-122959761D01*
X190528714Y-122912142D01*
X191343000Y-122007380D02*
X191643000Y-123007380D01*
X191943000Y-122007380D01*
X192157285Y-122007380D02*
X192714428Y-122007380D01*
X192414428Y-122388333D01*
X192543000Y-122388333D01*
X192628714Y-122435952D01*
X192671571Y-122483571D01*
X192714428Y-122578809D01*
X192714428Y-122816904D01*
X192671571Y-122912142D01*
X192628714Y-122959761D01*
X192543000Y-123007380D01*
X192285857Y-123007380D01*
X192200142Y-122959761D01*
X192157285Y-122912142D01*
X190957285Y-114435000D02*
X190871571Y-114387380D01*
X190743000Y-114387380D01*
X190614428Y-114435000D01*
X190528714Y-114530238D01*
X190485857Y-114625476D01*
X190443000Y-114815952D01*
X190443000Y-114958809D01*
X190485857Y-115149285D01*
X190528714Y-115244523D01*
X190614428Y-115339761D01*
X190743000Y-115387380D01*
X190828714Y-115387380D01*
X190957285Y-115339761D01*
X191000142Y-115292142D01*
X191000142Y-114958809D01*
X190828714Y-114958809D01*
X191385857Y-115387380D02*
X191385857Y-114387380D01*
X191900142Y-115387380D01*
X191900142Y-114387380D01*
X192328714Y-115387380D02*
X192328714Y-114387380D01*
X192543000Y-114387380D01*
X192671571Y-114435000D01*
X192757285Y-114530238D01*
X192800142Y-114625476D01*
X192843000Y-114815952D01*
X192843000Y-114958809D01*
X192800142Y-115149285D01*
X192757285Y-115244523D01*
X192671571Y-115339761D01*
X192543000Y-115387380D01*
X192328714Y-115387380D01*
X190400142Y-120419761D02*
X190528714Y-120467380D01*
X190743000Y-120467380D01*
X190828714Y-120419761D01*
X190871571Y-120372142D01*
X190914428Y-120276904D01*
X190914428Y-120181666D01*
X190871571Y-120086428D01*
X190828714Y-120038809D01*
X190743000Y-119991190D01*
X190571571Y-119943571D01*
X190485857Y-119895952D01*
X190443000Y-119848333D01*
X190400142Y-119753095D01*
X190400142Y-119657857D01*
X190443000Y-119562619D01*
X190485857Y-119515000D01*
X190571571Y-119467380D01*
X190785857Y-119467380D01*
X190914428Y-119515000D01*
X191214428Y-119467380D02*
X191428714Y-120467380D01*
X191600142Y-119753095D01*
X191771571Y-120467380D01*
X191985857Y-119467380D01*
X192500142Y-119467380D02*
X192671571Y-119467380D01*
X192757285Y-119515000D01*
X192843000Y-119610238D01*
X192885857Y-119800714D01*
X192885857Y-120134047D01*
X192843000Y-120324523D01*
X192757285Y-120419761D01*
X192671571Y-120467380D01*
X192500142Y-120467380D01*
X192414428Y-120419761D01*
X192328714Y-120324523D01*
X192285857Y-120134047D01*
X192285857Y-119800714D01*
X192328714Y-119610238D01*
X192414428Y-119515000D01*
X192500142Y-119467380D01*
X190369285Y-117879761D02*
X190497857Y-117927380D01*
X190712142Y-117927380D01*
X190797857Y-117879761D01*
X190840714Y-117832142D01*
X190883571Y-117736904D01*
X190883571Y-117641666D01*
X190840714Y-117546428D01*
X190797857Y-117498809D01*
X190712142Y-117451190D01*
X190540714Y-117403571D01*
X190455000Y-117355952D01*
X190412142Y-117308333D01*
X190369285Y-117213095D01*
X190369285Y-117117857D01*
X190412142Y-117022619D01*
X190455000Y-116975000D01*
X190540714Y-116927380D01*
X190755000Y-116927380D01*
X190883571Y-116975000D01*
X191183571Y-116927380D02*
X191397857Y-117927380D01*
X191569285Y-117213095D01*
X191740714Y-117927380D01*
X191955000Y-116927380D01*
X192812142Y-117832142D02*
X192769285Y-117879761D01*
X192640714Y-117927380D01*
X192555000Y-117927380D01*
X192426428Y-117879761D01*
X192340714Y-117784523D01*
X192297857Y-117689285D01*
X192255000Y-117498809D01*
X192255000Y-117355952D01*
X192297857Y-117165476D01*
X192340714Y-117070238D01*
X192426428Y-116975000D01*
X192555000Y-116927380D01*
X192640714Y-116927380D01*
X192769285Y-116975000D01*
X192812142Y-117022619D01*
X193626428Y-117927380D02*
X193197857Y-117927380D01*
X193197857Y-116927380D01*
X193926428Y-117927380D02*
X193926428Y-116927380D01*
X194440714Y-117927380D02*
X194055000Y-117355952D01*
X194440714Y-116927380D02*
X193926428Y-117498809D01*
G04 #@! TO.C,JP10*
X201255476Y-109412380D02*
X201255476Y-110126666D01*
X201207857Y-110269523D01*
X201112619Y-110364761D01*
X200969761Y-110412380D01*
X200874523Y-110412380D01*
X201731666Y-110412380D02*
X201731666Y-109412380D01*
X202112619Y-109412380D01*
X202207857Y-109460000D01*
X202255476Y-109507619D01*
X202303095Y-109602857D01*
X202303095Y-109745714D01*
X202255476Y-109840952D01*
X202207857Y-109888571D01*
X202112619Y-109936190D01*
X201731666Y-109936190D01*
X203255476Y-110412380D02*
X202684047Y-110412380D01*
X202969761Y-110412380D02*
X202969761Y-109412380D01*
X202874523Y-109555238D01*
X202779285Y-109650476D01*
X202684047Y-109698095D01*
X203874523Y-109412380D02*
X203969761Y-109412380D01*
X204065000Y-109460000D01*
X204112619Y-109507619D01*
X204160238Y-109602857D01*
X204207857Y-109793333D01*
X204207857Y-110031428D01*
X204160238Y-110221904D01*
X204112619Y-110317142D01*
X204065000Y-110364761D01*
X203969761Y-110412380D01*
X203874523Y-110412380D01*
X203779285Y-110364761D01*
X203731666Y-110317142D01*
X203684047Y-110221904D01*
X203636428Y-110031428D01*
X203636428Y-109793333D01*
X203684047Y-109602857D01*
X203731666Y-109507619D01*
X203779285Y-109460000D01*
X203874523Y-109412380D01*
D11*
G04 #@! TO.C,J2*
X121496666Y-144084523D02*
X121496666Y-144991666D01*
X121436190Y-145173095D01*
X121315238Y-145294047D01*
X121133809Y-145354523D01*
X121012857Y-145354523D01*
X122040952Y-144205476D02*
X122101428Y-144145000D01*
X122222380Y-144084523D01*
X122524761Y-144084523D01*
X122645714Y-144145000D01*
X122706190Y-144205476D01*
X122766666Y-144326428D01*
X122766666Y-144447380D01*
X122706190Y-144628809D01*
X121980476Y-145354523D01*
X122766666Y-145354523D01*
D10*
G04 #@! TO.C,JP1*
X181411666Y-101792380D02*
X181411666Y-102506666D01*
X181364047Y-102649523D01*
X181268809Y-102744761D01*
X181125952Y-102792380D01*
X181030714Y-102792380D01*
X181887857Y-102792380D02*
X181887857Y-101792380D01*
X182268809Y-101792380D01*
X182364047Y-101840000D01*
X182411666Y-101887619D01*
X182459285Y-101982857D01*
X182459285Y-102125714D01*
X182411666Y-102220952D01*
X182364047Y-102268571D01*
X182268809Y-102316190D01*
X181887857Y-102316190D01*
X183411666Y-102792380D02*
X182840238Y-102792380D01*
X183125952Y-102792380D02*
X183125952Y-101792380D01*
X183030714Y-101935238D01*
X182935476Y-102030476D01*
X182840238Y-102078095D01*
G04 #@! TO.C,JP8*
X196016666Y-133332380D02*
X196016666Y-134046666D01*
X195969047Y-134189523D01*
X195873809Y-134284761D01*
X195730952Y-134332380D01*
X195635714Y-134332380D01*
X196492857Y-134332380D02*
X196492857Y-133332380D01*
X196873809Y-133332380D01*
X196969047Y-133380000D01*
X197016666Y-133427619D01*
X197064285Y-133522857D01*
X197064285Y-133665714D01*
X197016666Y-133760952D01*
X196969047Y-133808571D01*
X196873809Y-133856190D01*
X196492857Y-133856190D01*
X197635714Y-133760952D02*
X197540476Y-133713333D01*
X197492857Y-133665714D01*
X197445238Y-133570476D01*
X197445238Y-133522857D01*
X197492857Y-133427619D01*
X197540476Y-133380000D01*
X197635714Y-133332380D01*
X197826190Y-133332380D01*
X197921428Y-133380000D01*
X197969047Y-133427619D01*
X198016666Y-133522857D01*
X198016666Y-133570476D01*
X197969047Y-133665714D01*
X197921428Y-133713333D01*
X197826190Y-133760952D01*
X197635714Y-133760952D01*
X197540476Y-133808571D01*
X197492857Y-133856190D01*
X197445238Y-133951428D01*
X197445238Y-134141904D01*
X197492857Y-134237142D01*
X197540476Y-134284761D01*
X197635714Y-134332380D01*
X197826190Y-134332380D01*
X197921428Y-134284761D01*
X197969047Y-134237142D01*
X198016666Y-134141904D01*
X198016666Y-133951428D01*
X197969047Y-133856190D01*
X197921428Y-133808571D01*
X197826190Y-133760952D01*
G04 #@! TO.C,JP2*
X176331666Y-101792380D02*
X176331666Y-102506666D01*
X176284047Y-102649523D01*
X176188809Y-102744761D01*
X176045952Y-102792380D01*
X175950714Y-102792380D01*
X176807857Y-102792380D02*
X176807857Y-101792380D01*
X177188809Y-101792380D01*
X177284047Y-101840000D01*
X177331666Y-101887619D01*
X177379285Y-101982857D01*
X177379285Y-102125714D01*
X177331666Y-102220952D01*
X177284047Y-102268571D01*
X177188809Y-102316190D01*
X176807857Y-102316190D01*
X177760238Y-101887619D02*
X177807857Y-101840000D01*
X177903095Y-101792380D01*
X178141190Y-101792380D01*
X178236428Y-101840000D01*
X178284047Y-101887619D01*
X178331666Y-101982857D01*
X178331666Y-102078095D01*
X178284047Y-102220952D01*
X177712619Y-102792380D01*
X178331666Y-102792380D01*
G04 #@! TO.C,JP9*
X201731666Y-103697380D02*
X201731666Y-104411666D01*
X201684047Y-104554523D01*
X201588809Y-104649761D01*
X201445952Y-104697380D01*
X201350714Y-104697380D01*
X202207857Y-104697380D02*
X202207857Y-103697380D01*
X202588809Y-103697380D01*
X202684047Y-103745000D01*
X202731666Y-103792619D01*
X202779285Y-103887857D01*
X202779285Y-104030714D01*
X202731666Y-104125952D01*
X202684047Y-104173571D01*
X202588809Y-104221190D01*
X202207857Y-104221190D01*
X203255476Y-104697380D02*
X203445952Y-104697380D01*
X203541190Y-104649761D01*
X203588809Y-104602142D01*
X203684047Y-104459285D01*
X203731666Y-104268809D01*
X203731666Y-103887857D01*
X203684047Y-103792619D01*
X203636428Y-103745000D01*
X203541190Y-103697380D01*
X203350714Y-103697380D01*
X203255476Y-103745000D01*
X203207857Y-103792619D01*
X203160238Y-103887857D01*
X203160238Y-104125952D01*
X203207857Y-104221190D01*
X203255476Y-104268809D01*
X203350714Y-104316428D01*
X203541190Y-104316428D01*
X203636428Y-104268809D01*
X203684047Y-104221190D01*
X203731666Y-104125952D01*
G04 #@! TO.C,C2*
X131643333Y-121067142D02*
X131595714Y-121114761D01*
X131452857Y-121162380D01*
X131357619Y-121162380D01*
X131214761Y-121114761D01*
X131119523Y-121019523D01*
X131071904Y-120924285D01*
X131024285Y-120733809D01*
X131024285Y-120590952D01*
X131071904Y-120400476D01*
X131119523Y-120305238D01*
X131214761Y-120210000D01*
X131357619Y-120162380D01*
X131452857Y-120162380D01*
X131595714Y-120210000D01*
X131643333Y-120257619D01*
X132024285Y-120257619D02*
X132071904Y-120210000D01*
X132167142Y-120162380D01*
X132405238Y-120162380D01*
X132500476Y-120210000D01*
X132548095Y-120257619D01*
X132595714Y-120352857D01*
X132595714Y-120448095D01*
X132548095Y-120590952D01*
X131976666Y-121162380D01*
X132595714Y-121162380D01*
G04 #@! TO.C,JP3*
X171251666Y-101792380D02*
X171251666Y-102506666D01*
X171204047Y-102649523D01*
X171108809Y-102744761D01*
X170965952Y-102792380D01*
X170870714Y-102792380D01*
X171727857Y-102792380D02*
X171727857Y-101792380D01*
X172108809Y-101792380D01*
X172204047Y-101840000D01*
X172251666Y-101887619D01*
X172299285Y-101982857D01*
X172299285Y-102125714D01*
X172251666Y-102220952D01*
X172204047Y-102268571D01*
X172108809Y-102316190D01*
X171727857Y-102316190D01*
X172632619Y-101792380D02*
X173251666Y-101792380D01*
X172918333Y-102173333D01*
X173061190Y-102173333D01*
X173156428Y-102220952D01*
X173204047Y-102268571D01*
X173251666Y-102363809D01*
X173251666Y-102601904D01*
X173204047Y-102697142D01*
X173156428Y-102744761D01*
X173061190Y-102792380D01*
X172775476Y-102792380D01*
X172680238Y-102744761D01*
X172632619Y-102697142D01*
G04 #@! TO.C,C1*
X126198333Y-126427142D02*
X126150714Y-126474761D01*
X126007857Y-126522380D01*
X125912619Y-126522380D01*
X125769761Y-126474761D01*
X125674523Y-126379523D01*
X125626904Y-126284285D01*
X125579285Y-126093809D01*
X125579285Y-125950952D01*
X125626904Y-125760476D01*
X125674523Y-125665238D01*
X125769761Y-125570000D01*
X125912619Y-125522380D01*
X126007857Y-125522380D01*
X126150714Y-125570000D01*
X126198333Y-125617619D01*
X127150714Y-126522380D02*
X126579285Y-126522380D01*
X126865000Y-126522380D02*
X126865000Y-125522380D01*
X126769761Y-125665238D01*
X126674523Y-125760476D01*
X126579285Y-125808095D01*
G04 #@! TO.C,JP4*
X154741666Y-101792380D02*
X154741666Y-102506666D01*
X154694047Y-102649523D01*
X154598809Y-102744761D01*
X154455952Y-102792380D01*
X154360714Y-102792380D01*
X155217857Y-102792380D02*
X155217857Y-101792380D01*
X155598809Y-101792380D01*
X155694047Y-101840000D01*
X155741666Y-101887619D01*
X155789285Y-101982857D01*
X155789285Y-102125714D01*
X155741666Y-102220952D01*
X155694047Y-102268571D01*
X155598809Y-102316190D01*
X155217857Y-102316190D01*
X156646428Y-102125714D02*
X156646428Y-102792380D01*
X156408333Y-101744761D02*
X156170238Y-102459047D01*
X156789285Y-102459047D01*
G04 #@! TO.C,JP7*
X173791666Y-132907380D02*
X173791666Y-133621666D01*
X173744047Y-133764523D01*
X173648809Y-133859761D01*
X173505952Y-133907380D01*
X173410714Y-133907380D01*
X174267857Y-133907380D02*
X174267857Y-132907380D01*
X174648809Y-132907380D01*
X174744047Y-132955000D01*
X174791666Y-133002619D01*
X174839285Y-133097857D01*
X174839285Y-133240714D01*
X174791666Y-133335952D01*
X174744047Y-133383571D01*
X174648809Y-133431190D01*
X174267857Y-133431190D01*
X175172619Y-132907380D02*
X175839285Y-132907380D01*
X175410714Y-133907380D01*
G04 #@! TO.C,JP5*
X159186666Y-101792380D02*
X159186666Y-102506666D01*
X159139047Y-102649523D01*
X159043809Y-102744761D01*
X158900952Y-102792380D01*
X158805714Y-102792380D01*
X159662857Y-102792380D02*
X159662857Y-101792380D01*
X160043809Y-101792380D01*
X160139047Y-101840000D01*
X160186666Y-101887619D01*
X160234285Y-101982857D01*
X160234285Y-102125714D01*
X160186666Y-102220952D01*
X160139047Y-102268571D01*
X160043809Y-102316190D01*
X159662857Y-102316190D01*
X161139047Y-101792380D02*
X160662857Y-101792380D01*
X160615238Y-102268571D01*
X160662857Y-102220952D01*
X160758095Y-102173333D01*
X160996190Y-102173333D01*
X161091428Y-102220952D01*
X161139047Y-102268571D01*
X161186666Y-102363809D01*
X161186666Y-102601904D01*
X161139047Y-102697142D01*
X161091428Y-102744761D01*
X160996190Y-102792380D01*
X160758095Y-102792380D01*
X160662857Y-102744761D01*
X160615238Y-102697142D01*
D12*
G04 #@! TO.C,JP6*
X171580000Y-136255000D02*
X168780000Y-136255000D01*
X168780000Y-136255000D02*
X168780000Y-134255000D01*
X168780000Y-134255000D02*
X171580000Y-134255000D01*
X171580000Y-134255000D02*
X171580000Y-136255000D01*
G04 #@! TO.C,U1*
X168243576Y-113710755D02*
X168343576Y-113710755D01*
X169122084Y-119388780D02*
X169237190Y-119323767D01*
X168733996Y-119571921D02*
X168670926Y-119584231D01*
X169521557Y-119428582D02*
X169547241Y-119488974D01*
X163393829Y-118560502D02*
X163393829Y-118660502D01*
X169017563Y-119693611D02*
X168992809Y-119767911D01*
X169294107Y-119735936D02*
X169391368Y-119616238D01*
X168869603Y-119692430D02*
X168934465Y-119576541D01*
X154665000Y-115905000D02*
X150925000Y-115905000D01*
X150925000Y-114705000D02*
X154665000Y-114705000D01*
X142419425Y-122441411D02*
X147425000Y-122441411D01*
X151206801Y-114986802D02*
X151843198Y-114986802D01*
X168559597Y-121906068D02*
X168539300Y-121876485D01*
X169132840Y-120000463D02*
X169008010Y-119992224D01*
X169287839Y-120272534D02*
X169818169Y-119742203D01*
X167021081Y-120513158D02*
X167003131Y-120537668D01*
X169947352Y-120537699D02*
X169784173Y-120374520D01*
X167162205Y-113377912D02*
X166950073Y-113590044D01*
X142875000Y-112395000D02*
X142875000Y-109855000D01*
X169391368Y-119616238D02*
X169413209Y-119542879D01*
X169008010Y-119992224D02*
X168925680Y-119937571D01*
X169471415Y-120279333D02*
X169580200Y-120388118D01*
X168786770Y-119165041D02*
X168852696Y-119266266D01*
X155797277Y-121357467D02*
X155797277Y-123157467D01*
X166950073Y-123630961D02*
X167162205Y-123843093D01*
X170132054Y-114085019D02*
X170344186Y-114297151D01*
X165535860Y-115004258D02*
X166242967Y-115711365D01*
X166455099Y-123135986D02*
X167162205Y-122428879D01*
X166850506Y-120759863D02*
X166827842Y-120766601D01*
X169132840Y-120000463D02*
X169008010Y-119992224D01*
X167310893Y-121154823D02*
X167756128Y-120930134D01*
X173314034Y-117267000D02*
X172606928Y-117974106D01*
X163060986Y-119741873D02*
X163768093Y-119034767D01*
X169990632Y-113943598D02*
X169283526Y-114650704D01*
X169367564Y-119310874D02*
X169428696Y-119335965D01*
X157875000Y-118815000D02*
X157875000Y-114335000D01*
X170132054Y-123135986D02*
X169424947Y-122428879D01*
X150947277Y-121357467D02*
X150947277Y-123157467D01*
X168260962Y-121952974D02*
X168279959Y-121846602D01*
X165394438Y-122075326D02*
X166101545Y-121368219D01*
X166242967Y-122923854D02*
X166950073Y-122216747D01*
X180287809Y-116137282D02*
X180287809Y-115637282D01*
X168279959Y-121846602D02*
X168327784Y-121776517D01*
X172960481Y-120307559D02*
X172253374Y-119600452D01*
X166452327Y-120502702D02*
X166504758Y-120499449D01*
X167162205Y-113377912D02*
X167869312Y-114085019D01*
X171404846Y-121863194D02*
X170697739Y-121156087D01*
X189925000Y-123885000D02*
X189925000Y-113605000D01*
X151206801Y-118163199D02*
X151206801Y-117526802D01*
X165394438Y-115145679D02*
X165182306Y-115357811D01*
X168733996Y-119571921D02*
X168670926Y-119584231D01*
X172606928Y-116559893D02*
X171899821Y-117267000D01*
X150925000Y-115905000D02*
X150925000Y-114705000D01*
X142403825Y-115606536D02*
X142403825Y-121883465D01*
X167361037Y-117589543D02*
X167272483Y-117647341D01*
X169480445Y-119377283D02*
X169521557Y-119428582D01*
X169845365Y-120639685D02*
X169947352Y-120537699D01*
X167868372Y-118478505D02*
X167825075Y-118539718D01*
X166406400Y-120477888D02*
X166452327Y-120502702D01*
X147425000Y-115048590D02*
X147425000Y-122441411D01*
X164475200Y-121156087D02*
X164687332Y-121368219D01*
X168781916Y-119104742D02*
X168786770Y-119165041D01*
X167492875Y-120666882D02*
X167589231Y-120763238D01*
X150255000Y-119015000D02*
X150255000Y-114135000D01*
X156286801Y-115623199D02*
X156286801Y-114986802D01*
X193735000Y-125035000D02*
X193735000Y-127695000D01*
X168558210Y-122031377D02*
X168568743Y-121940815D01*
X168343576Y-123510250D02*
X168243576Y-123510250D01*
X169070267Y-119320659D02*
X168975080Y-119225472D01*
X168216449Y-118315773D02*
X168414237Y-118349488D01*
X163626671Y-116913446D02*
X164333778Y-117620553D01*
X166596520Y-113943598D02*
X167303627Y-114650704D01*
X149947378Y-120602983D02*
X149947277Y-120607467D01*
X168559597Y-121906068D02*
X168539300Y-121876485D01*
X166504758Y-120499449D02*
X166574996Y-120456109D01*
X163626671Y-116913446D02*
X163414539Y-117125578D01*
X151447277Y-123157467D02*
X151447277Y-121357467D01*
X171758399Y-121509640D02*
X171546267Y-121721772D01*
X166897287Y-120764778D02*
X166850506Y-120759863D01*
X166596520Y-123277407D02*
X167303627Y-122570300D01*
X167520603Y-118232271D02*
X167600782Y-118182565D01*
X166993751Y-120566549D02*
X166998606Y-120626848D01*
X164475200Y-116064918D02*
X165182306Y-116772025D01*
X183797809Y-114737282D02*
X183797807Y-114736663D01*
X141918395Y-115895000D02*
X141775000Y-115895000D01*
X170485607Y-114438572D02*
X170697739Y-114650704D01*
X167016938Y-120993239D02*
X166945832Y-121033729D01*
X168263084Y-122010003D02*
X168260962Y-121952974D01*
X170485607Y-114438572D02*
X169778500Y-115145679D01*
X150925000Y-117245000D02*
X154665000Y-117245000D01*
X169521557Y-119428582D02*
X169547241Y-119488974D01*
X169913356Y-119837391D02*
X169471415Y-120279333D01*
X163060986Y-119741873D02*
X163273118Y-119954005D01*
X142424936Y-115548590D02*
X147435000Y-115548590D01*
X169586999Y-120571694D02*
X169682187Y-120476507D01*
X167194140Y-117676551D02*
X166794692Y-117806584D01*
X165040885Y-115499233D02*
X164828753Y-115711365D01*
X155635000Y-114035000D02*
X155235000Y-114035000D01*
X165747992Y-122428879D02*
X166455099Y-121721772D01*
X156923198Y-115623199D02*
X156286801Y-115623199D01*
X171899821Y-115852786D02*
X171192714Y-116559893D01*
X180397809Y-114637282D02*
X180397190Y-114637283D01*
X156286801Y-117526802D02*
X156923198Y-117526802D01*
X163414539Y-120095427D02*
X164121646Y-119388320D01*
X168616006Y-119304794D02*
X168596667Y-119318322D01*
X166664978Y-120269665D02*
X166513478Y-120284950D01*
X171051293Y-115004258D02*
X170344186Y-115711365D01*
X166101545Y-114438572D02*
X166808652Y-115145679D01*
X168692174Y-122064841D02*
X168558210Y-122031377D01*
X168616006Y-119304794D02*
X168596667Y-119318322D01*
X169547241Y-119488974D02*
X169552266Y-119554406D01*
X189925000Y-113605000D02*
X187265000Y-113605000D01*
X165747992Y-114792126D02*
X165535860Y-115004258D01*
X166897287Y-120764778D02*
X166850506Y-120759863D01*
X167030536Y-118015231D02*
X167125724Y-117920044D01*
X166596520Y-123277407D02*
X166808652Y-123489539D01*
X170697739Y-122570300D02*
X169990632Y-121863194D01*
X167756128Y-120930134D02*
X167848979Y-121022985D01*
X142425000Y-122195012D02*
X142420785Y-122195012D01*
X166808652Y-113731466D02*
X166596520Y-113943598D01*
X172111953Y-116064918D02*
X171404846Y-116772025D01*
X166574996Y-120456109D02*
X166670184Y-120551297D01*
X163768093Y-120448980D02*
X164475200Y-119741873D01*
X171192714Y-115145679D02*
X171404846Y-115357811D01*
X170344186Y-122923854D02*
X169637079Y-122216747D01*
X164121646Y-120802533D02*
X164333778Y-121014666D01*
X169480445Y-119377283D02*
X169521557Y-119428582D01*
X167656054Y-117580088D02*
X167751241Y-117675276D01*
X167411286Y-118205606D02*
X167316099Y-118300793D01*
X154665000Y-117245000D02*
X154665000Y-118445000D01*
X183797804Y-114736334D02*
X183797809Y-114737282D01*
X179592588Y-121857050D02*
X179592588Y-115557050D01*
X168934465Y-119576541D02*
X169022886Y-119476826D01*
X181206767Y-122344226D02*
X181206767Y-122530812D01*
X167894023Y-121938314D02*
X167989210Y-122033501D01*
X168099058Y-118320128D02*
X167990031Y-118382392D01*
X169391368Y-119616238D02*
X169413209Y-119542879D01*
X168570259Y-119563734D02*
X168504455Y-119516346D01*
X166101545Y-114438572D02*
X165889413Y-114650704D01*
X169413209Y-119542879D02*
X169406859Y-119504962D01*
X142325000Y-115285729D02*
X142325000Y-115030073D01*
X167272483Y-117647341D02*
X167194140Y-117676551D01*
X168271692Y-122222920D02*
X168271718Y-122144245D01*
X168809246Y-119051351D02*
X168791296Y-119075861D01*
X166808652Y-113731466D02*
X167515759Y-114438572D01*
X171899821Y-115852786D02*
X172111953Y-116064918D01*
X157875000Y-114335000D02*
X157575000Y-114035000D01*
X165040885Y-121721772D02*
X165747992Y-121014666D01*
X154947277Y-123157467D02*
X154947277Y-121357467D01*
X168791296Y-119075861D02*
X168781916Y-119104742D01*
X167150052Y-121384718D02*
X167052209Y-121286875D01*
X168213049Y-118454517D02*
X168216449Y-118315773D01*
X167868372Y-118478505D02*
X167825075Y-118539718D01*
X169784173Y-120374520D02*
X169879361Y-120279333D01*
X173314034Y-119954005D02*
X172606928Y-119246899D01*
X167751241Y-117675276D02*
X167316099Y-118110419D01*
X151206801Y-115623199D02*
X151206801Y-114986802D01*
X169475602Y-119733685D02*
X169388232Y-119832185D01*
X153746801Y-115623199D02*
X153746801Y-114986802D01*
X168859728Y-119823652D02*
X168855244Y-119757391D01*
X173526166Y-119741873D02*
X172819060Y-119034767D01*
X167880568Y-118822824D02*
X167863639Y-118664333D01*
X164333778Y-116206339D02*
X165040885Y-116913446D01*
X167392907Y-121627574D02*
X167641818Y-121136657D01*
X166753154Y-117679632D02*
X167027243Y-117590393D01*
X168791296Y-119075861D02*
X168781916Y-119104742D01*
X167703648Y-121747939D02*
X167798835Y-121843126D01*
X167003131Y-120537668D02*
X166993751Y-120566549D01*
X166950073Y-113590044D02*
X167657180Y-114297151D01*
X169428696Y-119335965D02*
X169480445Y-119377283D01*
X166683782Y-119857788D02*
X167037336Y-120211342D01*
X172819060Y-116772025D02*
X172111953Y-117479132D01*
X182888851Y-122530812D02*
X182888851Y-122344226D01*
X169778500Y-113731466D02*
X169071394Y-114438572D01*
X166655098Y-120132727D02*
X166773870Y-120124653D01*
X169845365Y-120830060D02*
X169586999Y-120571694D01*
X169388232Y-119832185D02*
X169256107Y-119944199D01*
X168255119Y-122257128D02*
X168267121Y-122239259D01*
X170839161Y-114792126D02*
X170132054Y-115499233D01*
X151843198Y-118163199D02*
X151206801Y-118163199D01*
X183797809Y-122537282D02*
X183797809Y-114737282D01*
X167989210Y-122033501D02*
X167894023Y-122128689D01*
X165889413Y-122570300D02*
X166596520Y-121863194D01*
X169552266Y-119554406D02*
X169538761Y-119618729D01*
X163414539Y-117125578D02*
X164121646Y-117832685D01*
X142419425Y-115048590D02*
X142416500Y-115048573D01*
X168884572Y-119885267D02*
X168859728Y-119823652D01*
X150047277Y-124007467D02*
X155847277Y-124007467D01*
X151376170Y-119116000D02*
X151410124Y-119116000D01*
X169547241Y-119488974D02*
X169552266Y-119554406D01*
X167990031Y-118382392D02*
X167890729Y-118385888D01*
X165394438Y-115145679D02*
X166101545Y-115852786D01*
X169879361Y-120279333D02*
X170042539Y-120442511D01*
X169022886Y-119476826D02*
X169122084Y-119388780D01*
X155047277Y-121257467D02*
X155697277Y-121257467D01*
X168568743Y-121940815D02*
X168559597Y-121906068D01*
X166808652Y-123489539D02*
X167515759Y-122782432D01*
X142125469Y-122617216D02*
X141962578Y-122432341D01*
X169237190Y-119323767D02*
X169301539Y-119308116D01*
X187265000Y-123885000D02*
X189925000Y-123885000D01*
X167316099Y-118300793D02*
X167030536Y-118015231D01*
X169990632Y-123277407D02*
X169778500Y-123489539D01*
X193675000Y-109855000D02*
X193675000Y-112395000D01*
X142875000Y-109855000D02*
X193675000Y-109855000D01*
X150847277Y-123257467D02*
X150197277Y-123257467D01*
X172819060Y-120448980D02*
X172606928Y-120661112D01*
X168997479Y-119806944D02*
X169018531Y-119840047D01*
X142325000Y-122204272D02*
X142325000Y-122459928D01*
X169818169Y-119742203D02*
X169913356Y-119837391D01*
X142090241Y-115170143D02*
X141775000Y-114892388D01*
X169637079Y-123630961D02*
X168929972Y-122923854D01*
X155697277Y-123257467D02*
X155047277Y-123257467D01*
X163273118Y-119954005D02*
X163980225Y-119246899D01*
X172606928Y-116559893D02*
X172819060Y-116772025D01*
X164828753Y-121509640D02*
X165535860Y-120802533D01*
X168279959Y-121846602D02*
X168327784Y-121776517D01*
X163980225Y-116559893D02*
X164687332Y-117267000D01*
X163626671Y-120307559D02*
X164333778Y-119600452D01*
X142424936Y-121941411D02*
X147435000Y-121941411D01*
X154383198Y-117526802D02*
X154383198Y-118163199D01*
X169538761Y-119618729D02*
X169475602Y-119733685D01*
X169118074Y-119572013D02*
X169017563Y-119693611D01*
X168809246Y-119051351D02*
X168791296Y-119075861D01*
X168329165Y-121503171D02*
X167894023Y-121938314D01*
X166242967Y-114297151D02*
X166950073Y-115004258D01*
X141700000Y-130120000D02*
X141700000Y-107370000D01*
X168997479Y-119806944D02*
X169018531Y-119840047D01*
X154347277Y-123257467D02*
X151547277Y-123257467D01*
X167880568Y-118822824D02*
X167863639Y-118664333D01*
X167520603Y-118232271D02*
X167600782Y-118182565D01*
X171051293Y-122216747D02*
X170839161Y-122428879D01*
X150266400Y-116475000D02*
X155335000Y-116475000D01*
X170839161Y-122428879D02*
X170132054Y-121721772D01*
X168111594Y-121285600D02*
X167491707Y-121726373D01*
X156286801Y-118163199D02*
X156286801Y-117526802D01*
X167798835Y-121843126D02*
X168233978Y-121407984D01*
X145415000Y-125035000D02*
X193735000Y-125035000D01*
X168000152Y-118667414D02*
X168021234Y-118809997D01*
X168099058Y-118320128D02*
X167990031Y-118382392D01*
X141937892Y-122782488D02*
X142254153Y-122503834D01*
X167863639Y-118664333D02*
X168000152Y-118667414D01*
X168869603Y-119692430D02*
X168934465Y-119576541D01*
X168243576Y-113710755D02*
X163393829Y-118560502D01*
X169778500Y-123489539D02*
X169071394Y-122782432D01*
X163273118Y-117267000D02*
X163060986Y-117479132D01*
X164121646Y-120802533D02*
X164828753Y-120095427D01*
X169168989Y-119841153D02*
X169294107Y-119735936D01*
X168764308Y-119354655D02*
X168685451Y-119302971D01*
X167984323Y-118996214D02*
X167880568Y-118822824D01*
X167990031Y-118382392D02*
X167890729Y-118385888D01*
X169294107Y-119735936D02*
X169391368Y-119616238D01*
X164475200Y-121156087D02*
X165182306Y-120448980D01*
X154665000Y-114705000D02*
X154665000Y-115905000D01*
X168216449Y-118315773D02*
X168414237Y-118349488D01*
X164687332Y-115852786D02*
X165394438Y-116559893D01*
X168260962Y-121952974D02*
X168279959Y-121846602D01*
X168670926Y-119584231D02*
X168570259Y-119563734D01*
X168925680Y-119937571D02*
X168884572Y-119885267D01*
X166504758Y-120499449D02*
X166574996Y-120456109D01*
X153746801Y-118163199D02*
X153746801Y-117526802D01*
X167282103Y-120782466D02*
X167186916Y-120687279D01*
X172819060Y-120448980D02*
X172111953Y-119741873D01*
X169301539Y-119308116D02*
X169367564Y-119310874D01*
X155947277Y-123907467D02*
X155947277Y-120607467D01*
X169413209Y-119542879D02*
X169406859Y-119504962D01*
X168255119Y-122257128D02*
X168267121Y-122239259D01*
X172960481Y-116913446D02*
X173172613Y-117125578D01*
X168570259Y-119563734D02*
X168504455Y-119516346D01*
X155335000Y-116675000D02*
X155335000Y-119015000D01*
X141979789Y-121845000D02*
X142325000Y-121845000D01*
X168019275Y-122112222D02*
X168155576Y-122118278D01*
X166976144Y-120816462D02*
X166897287Y-120764778D01*
X168859728Y-119823652D02*
X168855244Y-119757391D01*
X168855244Y-119757391D02*
X168869603Y-119692430D01*
X173172613Y-120095427D02*
X172465506Y-119388320D01*
X169256107Y-119944199D02*
X169132840Y-120000463D01*
X166945832Y-121033729D02*
X166882762Y-121046038D01*
X169990632Y-123277407D02*
X169283526Y-122570300D01*
X168685451Y-119302971D02*
X168638670Y-119298056D01*
X163980225Y-116559893D02*
X163768093Y-116772025D01*
X167220911Y-118015231D02*
X167656054Y-117580088D01*
X168709915Y-119436244D02*
X168805102Y-119531431D01*
X165182306Y-115357811D02*
X165889413Y-116064918D01*
X173172613Y-117125578D02*
X172465506Y-117832685D01*
X142416500Y-122441428D02*
X142424669Y-122436487D01*
X151843198Y-115623199D02*
X151206801Y-115623199D01*
X141700000Y-107370000D02*
X194850000Y-107370000D01*
X168638670Y-119298056D02*
X168616006Y-119304794D01*
X164687332Y-115852786D02*
X164475200Y-116064918D01*
X168271692Y-122222920D02*
X168271718Y-122144245D01*
X141775000Y-114892388D02*
X141937892Y-114707513D01*
X163768093Y-116772025D02*
X164475200Y-117479132D01*
X157575000Y-114035000D02*
X155635000Y-114035000D01*
X166998606Y-120626848D02*
X167064532Y-120728073D01*
X169428696Y-119335965D02*
X169480445Y-119377283D01*
X171404846Y-121863194D02*
X171192714Y-122075326D01*
X150254000Y-117033528D02*
X150254000Y-117222631D01*
X167589231Y-120763238D02*
X167310893Y-121154823D01*
X167003131Y-120537668D02*
X166993751Y-120566549D01*
X193675000Y-112395000D02*
X142875000Y-112395000D01*
X169291132Y-119451223D02*
X169187677Y-119509183D01*
X168271718Y-122144245D02*
X168268080Y-122082476D01*
X180297809Y-122537282D02*
X180297809Y-114737282D01*
X165040885Y-115499233D02*
X165747992Y-116206339D01*
X180397809Y-114637282D02*
X183697809Y-114637282D01*
X182688851Y-122553200D02*
X181406767Y-122553200D01*
X171051293Y-122216747D02*
X170344186Y-121509640D01*
X156923198Y-118163199D02*
X156286801Y-118163199D01*
X168992809Y-119767911D02*
X168997479Y-119806944D01*
X141775000Y-115895000D02*
X141775000Y-121595000D01*
X173314034Y-117267000D02*
X173526166Y-117479132D01*
X168268080Y-122082476D02*
X168263084Y-122010003D01*
X169168989Y-119841153D02*
X169294107Y-119735936D01*
X165889413Y-114650704D02*
X166596520Y-115357811D01*
X167316099Y-118110419D02*
X167411286Y-118205606D01*
X142424669Y-122436487D02*
X142425000Y-122434897D01*
X167272483Y-117647341D02*
X167194140Y-117676551D01*
X166773870Y-120124653D02*
X166595394Y-119946177D01*
X155847277Y-120507467D02*
X150047277Y-120507467D01*
X167890729Y-118385888D02*
X167868372Y-118478505D01*
X154665000Y-118445000D02*
X150925000Y-118445000D01*
X172465506Y-116418471D02*
X171758399Y-117125578D01*
X171546267Y-121721772D02*
X170839161Y-121014666D01*
X167491707Y-121726373D02*
X167392907Y-121627574D01*
X169052552Y-119862419D02*
X169092725Y-119868953D01*
X163393829Y-118660502D02*
X168243576Y-123510250D01*
X168267121Y-122239259D02*
X168271692Y-122222920D01*
X142425000Y-115545000D02*
X142424936Y-115548590D01*
X166989104Y-120259573D02*
X166664978Y-120269665D01*
X166664978Y-120269665D02*
X166513478Y-120284950D01*
X169301539Y-119308116D02*
X169367564Y-119310874D01*
X142425000Y-115055104D02*
X142425000Y-115545000D01*
X153746801Y-117526802D02*
X154383198Y-117526802D01*
X170042539Y-120442511D02*
X170280508Y-120204542D01*
X150355000Y-114035000D02*
X155235000Y-114035000D01*
X167984323Y-118996214D02*
X167880568Y-118822824D01*
X165535860Y-122216747D02*
X165747992Y-122428879D01*
X142090241Y-122319858D02*
X141775000Y-122597613D01*
X168268080Y-122082476D02*
X168263084Y-122010003D01*
X170344186Y-122923854D02*
X170132054Y-123135986D01*
X142260431Y-121845000D02*
X142260431Y-115645000D01*
X163980225Y-120661112D02*
X164687332Y-119954005D01*
X180287809Y-121137282D02*
X180287809Y-121637282D01*
X155235000Y-119115000D02*
X155635000Y-119115000D01*
X168781916Y-119104742D02*
X168786770Y-119165041D01*
X151206801Y-117526802D02*
X151843198Y-117526802D01*
X155335000Y-114135000D02*
X155335000Y-116475000D01*
X168884572Y-119885267D02*
X168859728Y-119823652D01*
X169406859Y-119504962D02*
X169385682Y-119472895D01*
X168638670Y-119298056D02*
X168616006Y-119304794D01*
X168343576Y-123510250D02*
X173193324Y-118660502D01*
X165889413Y-122570300D02*
X166101545Y-122782432D01*
X171758399Y-115711365D02*
X171051293Y-116418471D01*
X166945832Y-121033729D02*
X166882762Y-121046038D01*
X169122084Y-119388780D02*
X169237190Y-119323767D01*
X167016938Y-120993239D02*
X166945832Y-121033729D01*
X172253374Y-121014666D02*
X171546267Y-120307559D01*
X169291132Y-119451223D02*
X169187677Y-119509183D01*
X167608460Y-121843126D02*
X167703648Y-121747939D01*
X166993751Y-120566549D02*
X166998606Y-120626848D01*
X169008010Y-119992224D02*
X168925680Y-119937571D01*
X151547277Y-121257467D02*
X154347277Y-121257467D01*
X166513478Y-120284950D02*
X166407569Y-120337975D01*
X169637079Y-123630961D02*
X169424947Y-123843093D01*
X168805102Y-119531431D02*
X168733996Y-119571921D01*
X166595394Y-119946177D02*
X166683782Y-119857788D01*
X166882762Y-121046038D02*
X166782095Y-121025541D01*
X172111953Y-121156087D02*
X171404846Y-120448980D01*
X169018531Y-119840047D02*
X169052552Y-119862419D01*
X173526166Y-119741873D02*
X173314034Y-119954005D01*
X193735000Y-127695000D02*
X145415000Y-127695000D01*
X173526166Y-117479132D02*
X172819060Y-118186238D01*
X172111953Y-121156087D02*
X171899821Y-121368219D01*
X142425000Y-121945000D02*
X142424936Y-121941411D01*
X165747992Y-114792126D02*
X166455099Y-115499233D01*
X172960481Y-116913446D02*
X172253374Y-117620553D01*
X175067588Y-121857050D02*
X175067588Y-115557050D01*
X141937892Y-114707513D02*
X142254153Y-114986167D01*
X169552266Y-119554406D02*
X169538761Y-119618729D01*
X163768093Y-120448980D02*
X163980225Y-120661112D01*
X167052209Y-121286875D02*
X167492875Y-120666882D01*
X166827842Y-120766601D02*
X166808503Y-120780129D01*
X167125724Y-117920044D02*
X167220911Y-118015231D01*
X169018531Y-119840047D02*
X169052552Y-119862419D01*
X142424669Y-115053514D02*
X142425000Y-115055104D01*
X166794692Y-117806584D02*
X166753154Y-117679632D01*
X168000152Y-118667414D02*
X168021234Y-118809997D01*
X168021234Y-118809997D02*
X168083229Y-118904745D01*
X163414539Y-120095427D02*
X163626671Y-120307559D01*
X156923198Y-114986802D02*
X156923198Y-115623199D01*
X169092725Y-119868953D02*
X169168989Y-119841153D01*
X163273118Y-117267000D02*
X163980225Y-117974106D01*
X166455099Y-114085019D02*
X166242967Y-114297151D01*
X168855244Y-119757391D02*
X168869603Y-119692430D01*
X170280508Y-120204542D02*
X170375695Y-120299730D01*
X170485607Y-122782432D02*
X169778500Y-122075326D01*
X167848979Y-121022985D02*
X167623652Y-121467582D01*
X150647003Y-119116000D02*
X150836106Y-119116000D01*
X166921751Y-120898051D02*
X167016938Y-120993239D01*
X166827842Y-120766601D02*
X166808503Y-120780129D01*
X169367564Y-119310874D02*
X169428696Y-119335965D01*
X167623652Y-121467582D02*
X168015132Y-121189138D01*
X167890729Y-118385888D02*
X167868372Y-118478505D01*
X153746801Y-114986802D02*
X154383198Y-114986802D01*
X164687332Y-121368219D02*
X165394438Y-120661112D01*
X169538761Y-119618729D02*
X169475602Y-119733685D01*
X173172613Y-120095427D02*
X172960481Y-120307559D01*
X147435000Y-115294989D02*
X147435000Y-122195012D01*
X142419425Y-122441411D02*
X142416500Y-122441428D01*
X168414237Y-118349488D02*
X168543337Y-118440175D01*
X166850506Y-120759863D02*
X166827842Y-120766601D01*
X167361037Y-117589543D02*
X167272483Y-117647341D01*
X155335000Y-116675000D02*
X150266400Y-116675000D01*
X168805102Y-119531431D02*
X168733996Y-119571921D01*
X169475602Y-119733685D02*
X169388232Y-119832185D01*
X169388232Y-119832185D02*
X169256107Y-119944199D01*
X171758399Y-121509640D02*
X171051293Y-120802533D01*
X172465506Y-120802533D02*
X172253374Y-121014666D01*
X172253374Y-116206339D02*
X171546267Y-116913446D01*
X168934465Y-119576541D02*
X169022886Y-119476826D01*
X142815000Y-127695000D02*
X142815000Y-126365000D01*
X168852696Y-119266266D02*
X168764308Y-119354655D01*
X168343576Y-113710755D02*
X173193324Y-118560502D01*
X167064532Y-120728073D02*
X166976144Y-120816462D01*
X169682187Y-120476507D02*
X169845365Y-120639685D01*
X171546267Y-115499233D02*
X171758399Y-115711365D01*
X169434976Y-120419670D02*
X169287839Y-120272534D01*
X168271718Y-122144245D02*
X168268080Y-122082476D01*
X169778500Y-113731466D02*
X169990632Y-113943598D01*
X169256107Y-119944199D02*
X169132840Y-120000463D01*
X142425000Y-115294989D02*
X142420785Y-115294989D01*
X180397809Y-122637282D02*
X183697809Y-122637282D01*
X141918395Y-115895000D02*
X141918395Y-121595000D01*
X166452327Y-120502702D02*
X166504758Y-120499449D01*
X166101545Y-122782432D02*
X166808652Y-122075326D01*
X141979789Y-115645000D02*
X142325000Y-115645000D01*
X141775000Y-122597613D02*
X141937892Y-122782488D01*
X169580200Y-120388118D02*
X169434976Y-120419670D01*
X171192714Y-115145679D02*
X170485607Y-115852786D01*
X174642588Y-115557050D02*
X174642588Y-121857050D01*
X154447277Y-121357467D02*
X154447277Y-123157467D01*
X167600782Y-118182565D02*
X167674327Y-118169486D01*
X149947277Y-120607467D02*
X149947277Y-123907467D01*
X164333778Y-116206339D02*
X164121646Y-116418471D01*
X167894023Y-122128689D02*
X167608460Y-121843126D01*
X166882762Y-121046038D02*
X166782095Y-121025541D01*
X172465506Y-120802533D02*
X171758399Y-120095427D01*
X172606928Y-120661112D02*
X171899821Y-119954005D01*
X181606767Y-121944226D02*
X182488851Y-121944226D01*
X171899821Y-121368219D02*
X171192714Y-120661112D01*
X169237190Y-119323767D02*
X169301539Y-119308116D01*
X167037336Y-120211342D02*
X166989104Y-120259573D01*
X169052552Y-119862419D02*
X169092725Y-119868953D01*
X167021081Y-120513158D02*
X167003131Y-120537668D01*
X166950073Y-123630961D02*
X167657180Y-122923854D01*
X167162205Y-123843093D02*
X167869312Y-123135986D01*
X163060986Y-117479132D02*
X163768093Y-118186238D01*
X171192714Y-122075326D02*
X170485607Y-121368219D01*
X180397190Y-122637280D02*
X180397809Y-122637282D01*
X168267121Y-122239259D02*
X168271692Y-122222920D01*
X170697739Y-114650704D02*
X169990632Y-115357811D01*
X168685451Y-119302971D02*
X168638670Y-119298056D01*
X166782095Y-121025541D02*
X166716290Y-120978153D01*
X150097277Y-123157467D02*
X150097277Y-121357467D01*
X142419425Y-115048590D02*
X147425000Y-115048590D01*
X156923198Y-117526802D02*
X156923198Y-118163199D01*
X168558210Y-122031377D02*
X168568743Y-121940815D01*
X170839161Y-114792126D02*
X171051293Y-115004258D01*
X150847277Y-121257467D02*
X150947277Y-121357467D01*
X194850000Y-130120000D02*
X141700000Y-130120000D01*
X180297809Y-122537282D02*
X180297811Y-122537900D01*
X154383198Y-118163199D02*
X153746801Y-118163199D01*
X142425000Y-122434897D02*
X142425000Y-121945000D01*
X170697739Y-122570300D02*
X170485607Y-122782432D01*
X166782095Y-121025541D02*
X166716290Y-120978153D01*
X168992809Y-119767911D02*
X168997479Y-119806944D01*
X179167588Y-115557050D02*
X179167588Y-121857050D01*
X165182306Y-121863194D02*
X165889413Y-121156087D01*
X166242967Y-122923854D02*
X166455099Y-123135986D01*
X164828753Y-115711365D02*
X165535860Y-116418471D01*
X168414237Y-118349488D02*
X168543337Y-118440175D01*
X169092725Y-119868953D02*
X169168989Y-119841153D01*
X169187677Y-119509183D02*
X169118074Y-119572013D01*
X169187677Y-119509183D02*
X169118074Y-119572013D01*
X154383198Y-115623199D02*
X153746801Y-115623199D01*
X170375695Y-120299730D02*
X169845365Y-120830060D01*
X165535860Y-122216747D02*
X166242967Y-121509640D01*
X168925680Y-119937571D02*
X168884572Y-119885267D01*
X166976144Y-120816462D02*
X166897287Y-120764778D01*
X169637079Y-113590044D02*
X168929972Y-114297151D01*
X156286801Y-114986802D02*
X156923198Y-114986802D01*
X151459503Y-119116000D02*
X151504375Y-119116000D01*
X183797807Y-122537900D02*
X183797809Y-122537282D01*
X168568743Y-121940815D02*
X168559597Y-121906068D01*
X144145000Y-127695000D02*
X142815000Y-127695000D01*
X166406400Y-120477888D02*
X166452327Y-120502702D01*
X164828753Y-121509640D02*
X165040885Y-121721772D01*
X151843198Y-117526802D02*
X151843198Y-118163199D01*
X168021234Y-118809997D02*
X168083229Y-118904745D01*
X166513478Y-120284950D02*
X166407569Y-120337975D01*
X165182306Y-121863194D02*
X165394438Y-122075326D01*
X169118074Y-119572013D02*
X169017563Y-119693611D01*
X169022886Y-119476826D02*
X169122084Y-119388780D01*
X168233978Y-121407984D02*
X168329165Y-121503171D01*
X171404846Y-115357811D02*
X170697739Y-116064918D01*
X155235000Y-119115000D02*
X150355000Y-119115000D01*
X169017563Y-119693611D02*
X168992809Y-119767911D01*
X172253374Y-116206339D02*
X172465506Y-116418471D01*
X142416500Y-115048573D02*
X142424669Y-115053514D01*
X168670926Y-119584231D02*
X168570259Y-119563734D01*
X164333778Y-121014666D02*
X165040885Y-120307559D01*
X154383198Y-114986802D02*
X154383198Y-115623199D01*
X150197277Y-121257467D02*
X150847277Y-121257467D01*
X187265000Y-113605000D02*
X187265000Y-123885000D01*
X171546267Y-115499233D02*
X170839161Y-116206339D01*
X170344186Y-114297151D02*
X169637079Y-115004258D01*
X168764308Y-119354655D02*
X168685451Y-119302971D01*
X157575000Y-119115000D02*
X157875000Y-118815000D01*
X168786770Y-119165041D02*
X168852696Y-119266266D01*
X167641818Y-121136657D02*
X167150052Y-121384718D01*
X169424947Y-113377912D02*
X168717840Y-114085019D01*
X145415000Y-127695000D02*
X145415000Y-125035000D01*
X168015132Y-121189138D02*
X168111594Y-121285600D01*
X151843198Y-114986802D02*
X151843198Y-115623199D01*
X166998606Y-120626848D02*
X167064532Y-120728073D01*
X170132054Y-114085019D02*
X169424947Y-114792126D01*
X164121646Y-116418471D02*
X164828753Y-117125578D01*
X168263084Y-122010003D02*
X168260962Y-121952974D01*
X169424947Y-113377912D02*
X169637079Y-113590044D01*
X169406859Y-119504962D02*
X169385682Y-119472895D01*
X180297811Y-114736663D02*
X180297809Y-114737282D01*
X166455099Y-114085019D02*
X167162205Y-114792126D01*
X169424947Y-123843093D02*
X168717840Y-123135986D01*
X173193324Y-118660502D02*
X173193324Y-118560502D01*
X194850000Y-107370000D02*
X194850000Y-130120000D01*
X167600782Y-118182565D02*
X167674327Y-118169486D01*
X141918395Y-121595000D02*
X141775000Y-121595000D01*
X142125469Y-114872785D02*
X141962578Y-115057660D01*
X150925000Y-118445000D02*
X150925000Y-117245000D01*
X155635000Y-119115000D02*
X157575000Y-119115000D01*
X166305794Y-120567657D02*
G75*
G03*
X166670184Y-120551297I174515J179234D01*
G01*
X142424936Y-121941411D02*
G75*
G03*
X142325001Y-121845000I-99936J-3589D01*
G01*
X168079723Y-117976561D02*
G75*
G03*
X167738706Y-117959776I-178068J-145194D01*
G01*
X168495425Y-119229190D02*
G75*
G03*
X168504455Y-119516345I145151J-139155D01*
G01*
X168443688Y-118900177D02*
G75*
G03*
X168448574Y-118535787I-167591J184475D01*
G01*
X168099058Y-118320128D02*
G75*
G03*
X168079722Y-117976562I-156633J163512D01*
G01*
X167522728Y-118534619D02*
G75*
G03*
X167825076Y-118539718I153550J138328D01*
G01*
X180397190Y-114637283D02*
G75*
G03*
X180297810Y-114736663I620J-100000D01*
G01*
X168539300Y-121876485D02*
G75*
G03*
X168428497Y-121866180I-60610J-50852D01*
G01*
X155235000Y-119115000D02*
G75*
G03*
X155335000Y-119015000I1J99999D01*
G01*
X141918395Y-121595000D02*
G75*
G03*
X142123182Y-121845000I229889J-20562D01*
G01*
X168083229Y-118904745D02*
G75*
G03*
X168443688Y-118900177I178020J176644D01*
G01*
X168692174Y-122064841D02*
G75*
G03*
X168637993Y-121784802I-229140J100928D01*
G01*
X167269461Y-117356674D02*
G75*
G03*
X167125192Y-117363048I-69021J-73655D01*
G01*
X167261175Y-117499030D02*
G75*
G03*
X167269461Y-117356674I-66643J75298D01*
G01*
X142123183Y-115645001D02*
G75*
G03*
X141918395Y-115895000I25101J-229438D01*
G01*
X141775000Y-121595000D02*
G75*
G03*
X141979788Y-121845001I229889J-20563D01*
G01*
X167620252Y-118441769D02*
G75*
G03*
X167736688Y-118437732I56324J56650D01*
G01*
X154447277Y-121357467D02*
G75*
G03*
X154347277Y-121257467I-99999J1D01*
G01*
X167125193Y-117363048D02*
G75*
G03*
X167120200Y-117506573I65501J-74128D01*
G01*
X142254153Y-114986167D02*
G75*
G03*
X142416500Y-115048573I165268J187566D01*
G01*
X175067588Y-121857050D02*
G75*
G03*
X179167588Y-121857050I2050000J0D01*
G01*
X183698428Y-122637280D02*
G75*
G03*
X183797807Y-122537901I-618J99997D01*
G01*
X168677513Y-119189033D02*
G75*
G03*
X168495425Y-119229190I-59658J-162393D01*
G01*
X150355000Y-114035000D02*
G75*
G03*
X150255000Y-114135000I-1J-99999D01*
G01*
X167120201Y-117506572D02*
G75*
G03*
X167261174Y-117499029I66820J72283D01*
G01*
X150847277Y-123257467D02*
G75*
G03*
X150947277Y-123157467I1J99999D01*
G01*
X179592588Y-115557050D02*
G75*
G03*
X174642588Y-115557050I-2475000J0D01*
G01*
X167827413Y-118061444D02*
G75*
G03*
X167834744Y-118221116I80880J-76291D01*
G01*
X168428496Y-121866180D02*
G75*
G03*
X168407355Y-122027977I182928J-106182D01*
G01*
X142420785Y-122195012D02*
G75*
G03*
X142090241Y-122319858I1J-500002D01*
G01*
X154947277Y-123157467D02*
G75*
G03*
X155047277Y-123257467I99999J-1D01*
G01*
X141979789Y-115645001D02*
G75*
G03*
X141775001Y-115895000I25101J-229438D01*
G01*
X154347277Y-123257467D02*
G75*
G03*
X154447277Y-123157467I1J99999D01*
G01*
X166305688Y-120249480D02*
G75*
G03*
X166305794Y-120567658I156067J-159037D01*
G01*
X167736687Y-118437732D02*
G75*
G03*
X167740831Y-118317579I-55435J62060D01*
G01*
X168975079Y-119225471D02*
G75*
G03*
X168970193Y-119057407I-88347J81534D01*
G01*
X182688851Y-122553200D02*
G75*
G03*
X182888851Y-122530812I51402J445339D01*
G01*
X150047277Y-120507467D02*
G75*
G03*
X149947277Y-120607467I-1J-99999D01*
G01*
X142416500Y-122441428D02*
G75*
G03*
X142254153Y-122503834I2929J-249992D01*
G01*
X166926850Y-120417014D02*
G75*
G03*
X166889349Y-120650839I131856J-141067D01*
G01*
X183797807Y-114736663D02*
G75*
G03*
X183698428Y-114637284I-99997J-618D01*
G01*
X151547277Y-121257467D02*
G75*
G03*
X151447277Y-121357467I-1J-99999D01*
G01*
X166812115Y-120883603D02*
G75*
G03*
X166921751Y-120898051I64505J66287D01*
G01*
X166889349Y-120650840D02*
G75*
G03*
X166707261Y-120690997I-59658J-162393D01*
G01*
X167985492Y-118072705D02*
G75*
G03*
X167827413Y-118061443I-84119J-65668D01*
G01*
X168539088Y-118995152D02*
G75*
G03*
X168543337Y-118440175I-254874J279456D01*
G01*
X168448574Y-118535787D02*
G75*
G03*
X168213049Y-118454517I-203315J-207300D01*
G01*
X167834743Y-118221116D02*
G75*
G03*
X167995265Y-118233546I86397J73027D01*
G01*
X174642588Y-121857050D02*
G75*
G03*
X179592588Y-121857050I2475000J0D01*
G01*
X142090241Y-115170143D02*
G75*
G03*
X142420785Y-115294989I330545J375156D01*
G01*
X168715014Y-118955207D02*
G75*
G03*
X168677513Y-119189032I131856J-141067D01*
G01*
X149947277Y-123907467D02*
G75*
G03*
X150047277Y-124007467I99999J-1D01*
G01*
X167186915Y-120687278D02*
G75*
G03*
X167182029Y-120519214I-88347J81534D01*
G01*
X168354873Y-122347747D02*
G75*
G03*
X168407355Y-122027977I-286038J211137D01*
G01*
X167740830Y-118317579D02*
G75*
G03*
X167620359Y-118322891I-57756J-58880D01*
G01*
X167361037Y-117589543D02*
G75*
G03*
X167362843Y-117259680I-163779J165833D01*
G01*
X181206767Y-122530812D02*
G75*
G03*
X181406767Y-122553200I150624J441051D01*
G01*
X181606767Y-121944226D02*
G75*
G03*
X181206767Y-122344226I-1J-399999D01*
G01*
X155847277Y-124007467D02*
G75*
G03*
X155947277Y-123907467I1J99999D01*
G01*
X155047277Y-121257467D02*
G75*
G03*
X154947277Y-121357467I-1J-99999D01*
G01*
X151447277Y-123157467D02*
G75*
G03*
X151547277Y-123257467I99999J-1D01*
G01*
X155334999Y-114135000D02*
G75*
G03*
X155235000Y-114035001I-99999J0D01*
G01*
X168177460Y-122248948D02*
G75*
G03*
X168255119Y-122257128I42941J34944D01*
G01*
X167520603Y-118232271D02*
G75*
G03*
X167522727Y-118534619I144282J-150168D01*
G01*
X155797277Y-121357467D02*
G75*
G03*
X155697277Y-121257467I-99999J1D01*
G01*
X167035423Y-117262443D02*
G75*
G03*
X167027243Y-117590393I155517J-167956D01*
G01*
X167620359Y-118322891D02*
G75*
G03*
X167620253Y-118441769I54050J-59487D01*
G01*
X155947277Y-120607467D02*
G75*
G03*
X155847277Y-120507467I-99999J1D01*
G01*
X166808503Y-120780129D02*
G75*
G03*
X166812116Y-120883603I49925J-50057D01*
G01*
X179167588Y-115557050D02*
G75*
G03*
X175067588Y-115557050I-2050000J0D01*
G01*
X166407569Y-120337975D02*
G75*
G03*
X166406400Y-120477887I64281J-70498D01*
G01*
X166655098Y-120132727D02*
G75*
G03*
X166305688Y-120249480I-22649J-513440D01*
G01*
X150097277Y-123157467D02*
G75*
G03*
X150197277Y-123257467I99999J-1D01*
G01*
X169385682Y-119472895D02*
G75*
G03*
X169291132Y-119451224I-64731J-65325D01*
G01*
X155697277Y-123257467D02*
G75*
G03*
X155797277Y-123157467I1J99999D01*
G01*
X168637992Y-121784804D02*
G75*
G03*
X168327785Y-121776517I-158956J-140091D01*
G01*
X167282421Y-120429232D02*
G75*
G03*
X166926851Y-120417014I-183652J-164638D01*
G01*
X167182028Y-120519214D02*
G75*
G03*
X167021082Y-120513158I-83362J-73758D01*
G01*
X180297811Y-122537900D02*
G75*
G03*
X180397189Y-122637280I99998J618D01*
G01*
X142325000Y-115645001D02*
G75*
G03*
X142424937Y-115548590I1J100000D01*
G01*
X168155576Y-122118278D02*
G75*
G03*
X168177461Y-122248948I127063J-45887D01*
G01*
X168970192Y-119057406D02*
G75*
G03*
X168809245Y-119051351I-83362J-73761D01*
G01*
X169070267Y-119320659D02*
G75*
G03*
X169070586Y-118967425I-169330J176770D01*
G01*
X167995265Y-118233546D02*
G75*
G03*
X167985491Y-118072705I-81904J75740D01*
G01*
X168081210Y-122343073D02*
G75*
G03*
X168354874Y-122347748I139125J131873D01*
G01*
X167738706Y-117959776D02*
G75*
G03*
X167674327Y-118169485I158925J-163525D01*
G01*
X168600279Y-119421796D02*
G75*
G03*
X168709915Y-119436244I64505J66287D01*
G01*
X169070586Y-118967424D02*
G75*
G03*
X168715015Y-118955208I-183652J-164639D01*
G01*
X166707260Y-120690997D02*
G75*
G03*
X166716290Y-120978154I145154J-139156D01*
G01*
X168596667Y-119318322D02*
G75*
G03*
X168600280Y-119421796I49925J-50057D01*
G01*
X167282103Y-120782466D02*
G75*
G03*
X167282421Y-120429231I-169331J176770D01*
G01*
X168019275Y-122112222D02*
G75*
G03*
X168081211Y-122343073I253957J-55599D01*
G01*
X182888851Y-122344226D02*
G75*
G03*
X182488851Y-121944226I-399999J1D01*
G01*
X167362843Y-117259681D02*
G75*
G03*
X167035423Y-117262442I-162357J-161813D01*
G01*
X167984323Y-118996214D02*
G75*
G03*
X168539087Y-118995151I276869J268400D01*
G01*
X150197277Y-121257467D02*
G75*
G03*
X150097277Y-121357467I-1J-99999D01*
G01*
X150255000Y-119015000D02*
G75*
G03*
X150355000Y-119115000I99999J-1D01*
G01*
X172543576Y-118610502D02*
G75*
G03*
X172543576Y-118610502I-250000J0D01*
G01*
X182473685Y-115585855D02*
G75*
G03*
X182473685Y-115585855I-425876J0D01*
G01*
D13*
X188440060Y-117721380D02*
X188948060Y-117721380D01*
X188948060Y-117721380D02*
X188948060Y-117213380D01*
X188948060Y-117213380D02*
X188440060Y-117213380D01*
X188440060Y-117213380D02*
X188440060Y-117721380D01*
G36*
X188948060Y-117721380D02*
G01*
X188440060Y-117721380D01*
X188440060Y-117213380D01*
X188948060Y-117213380D01*
X188948060Y-117721380D01*
G37*
X188948060Y-117721380D02*
X188440060Y-117721380D01*
X188440060Y-117213380D01*
X188948060Y-117213380D01*
X188948060Y-117721380D01*
X188440060Y-122801380D02*
X188948060Y-122801380D01*
X188948060Y-122801380D02*
X188948060Y-122293380D01*
X188948060Y-122293380D02*
X188440060Y-122293380D01*
X188440060Y-122293380D02*
X188440060Y-122801380D01*
G36*
X188948060Y-122801380D02*
G01*
X188440060Y-122801380D01*
X188440060Y-122293380D01*
X188948060Y-122293380D01*
X188948060Y-122801380D01*
G37*
X188948060Y-122801380D02*
X188440060Y-122801380D01*
X188440060Y-122293380D01*
X188948060Y-122293380D01*
X188948060Y-122801380D01*
X188440060Y-115181380D02*
X188948060Y-115181380D01*
X188948060Y-115181380D02*
X188948060Y-114673380D01*
X188948060Y-114673380D02*
X188440060Y-114673380D01*
X188440060Y-114673380D02*
X188440060Y-115181380D01*
G36*
X188948060Y-115181380D02*
G01*
X188440060Y-115181380D01*
X188440060Y-114673380D01*
X188948060Y-114673380D01*
X188948060Y-115181380D01*
G37*
X188948060Y-115181380D02*
X188440060Y-115181380D01*
X188440060Y-114673380D01*
X188948060Y-114673380D01*
X188948060Y-115181380D01*
X188440060Y-120261380D02*
X188948060Y-120261380D01*
X188948060Y-120261380D02*
X188948060Y-119753380D01*
X188948060Y-119753380D02*
X188440060Y-119753380D01*
X188440060Y-119753380D02*
X188440060Y-120261380D01*
G36*
X188948060Y-120261380D02*
G01*
X188440060Y-120261380D01*
X188440060Y-119753380D01*
X188948060Y-119753380D01*
X188948060Y-120261380D01*
G37*
X188948060Y-120261380D02*
X188440060Y-120261380D01*
X188440060Y-119753380D01*
X188948060Y-119753380D01*
X188948060Y-120261380D01*
D12*
G04 #@! TO.C,JP10*
X203965000Y-112760000D02*
X201165000Y-112760000D01*
X201365000Y-112960000D02*
X201065000Y-113260000D01*
X204615000Y-111460000D02*
X204615000Y-112060000D01*
X201365000Y-112960000D02*
X201665000Y-113260000D01*
X201065000Y-113260000D02*
X201665000Y-113260000D01*
X200515000Y-112060000D02*
X200515000Y-111460000D01*
X201165000Y-110760000D02*
X203965000Y-110760000D01*
X204615000Y-111460000D02*
G75*
G03*
X203915000Y-110760000I-699999J1D01*
G01*
X201215000Y-110760000D02*
G75*
G03*
X200515000Y-111460000I-1J-699999D01*
G01*
X200515000Y-112060000D02*
G75*
G03*
X201215000Y-112760000I699999J-1D01*
G01*
X203915000Y-112760000D02*
G75*
G03*
X204615000Y-112060000I1J699999D01*
G01*
D13*
G04 #@! TO.C,J2*
X135220000Y-157305000D02*
X135220000Y-157805000D01*
X132670000Y-136305000D02*
X132670000Y-137805000D01*
X128820000Y-131480000D02*
X128820000Y-131480000D01*
X132670000Y-137805000D02*
X135220000Y-140605000D01*
X135220000Y-157805000D02*
X108620000Y-157805000D01*
X128820000Y-131380000D02*
X128820000Y-131380000D01*
X108620000Y-157805000D02*
X108620000Y-157305000D01*
X135220000Y-140605000D02*
X135220000Y-153305000D01*
X108620000Y-153305000D02*
X108620000Y-136305000D01*
X128820000Y-131380000D02*
G75*
G03*
X128820000Y-131480000I0J-50000D01*
G01*
X128820000Y-131480000D02*
G75*
G03*
X128820000Y-131380000I0J50000D01*
G01*
D12*
G04 #@! TO.C,JP1*
X183645000Y-105140000D02*
X180845000Y-105140000D01*
X183645000Y-103140000D02*
X183645000Y-105140000D01*
X180845000Y-105140000D02*
X180845000Y-103140000D01*
X180845000Y-103140000D02*
X183645000Y-103140000D01*
G04 #@! TO.C,JP8*
X196150000Y-131080000D02*
X197550000Y-131080000D01*
X195450000Y-132380000D02*
X195450000Y-131780000D01*
X198250000Y-131780000D02*
X198250000Y-132380000D01*
X197550000Y-133080000D02*
X196150000Y-133080000D01*
X195450000Y-132380000D02*
G75*
G03*
X196150000Y-133080000I699999J-1D01*
G01*
X196150000Y-131080000D02*
G75*
G03*
X195450000Y-131780000I-1J-699999D01*
G01*
X198250000Y-131780000D02*
G75*
G03*
X197550000Y-131080000I-699999J1D01*
G01*
X197550000Y-133080000D02*
G75*
G03*
X198250000Y-132380000I1J699999D01*
G01*
G04 #@! TO.C,JP2*
X178565000Y-103140000D02*
X178565000Y-105140000D01*
X178565000Y-105140000D02*
X175765000Y-105140000D01*
X175765000Y-103140000D02*
X178565000Y-103140000D01*
X175765000Y-105140000D02*
X175765000Y-103140000D01*
G04 #@! TO.C,JP9*
X200515000Y-106345000D02*
X200515000Y-105745000D01*
X201165000Y-105045000D02*
X203965000Y-105045000D01*
X203965000Y-107045000D02*
X201165000Y-107045000D01*
X201365000Y-107245000D02*
X201065000Y-107545000D01*
X201365000Y-107245000D02*
X201665000Y-107545000D01*
X201065000Y-107545000D02*
X201665000Y-107545000D01*
X204615000Y-105745000D02*
X204615000Y-106345000D01*
X204615000Y-105745000D02*
G75*
G03*
X203915000Y-105045000I-699999J1D01*
G01*
X200515000Y-106345000D02*
G75*
G03*
X201215000Y-107045000I699999J-1D01*
G01*
X201215000Y-105045000D02*
G75*
G03*
X200515000Y-105745000I-1J-699999D01*
G01*
X203915000Y-107045000D02*
G75*
G03*
X204615000Y-106345000I1J699999D01*
G01*
G04 #@! TO.C,C2*
X134430000Y-124460000D02*
G75*
G03*
X134430000Y-124460000I-2620000J0D01*
G01*
G04 #@! TO.C,JP3*
X173485000Y-105140000D02*
X170685000Y-105140000D01*
X170685000Y-105140000D02*
X170685000Y-103140000D01*
X170685000Y-103140000D02*
X173485000Y-103140000D01*
X173485000Y-103140000D02*
X173485000Y-105140000D01*
G04 #@! TO.C,C1*
X124095000Y-127200000D02*
X128635000Y-127200000D01*
X124095000Y-129340000D02*
X128635000Y-129340000D01*
X124095000Y-129325000D02*
X124095000Y-129340000D01*
X128635000Y-129325000D02*
X128635000Y-129340000D01*
X124095000Y-127200000D02*
X124095000Y-127215000D01*
X128635000Y-127200000D02*
X128635000Y-127215000D01*
G04 #@! TO.C,JP4*
X154175000Y-105140000D02*
X154175000Y-103140000D01*
X156975000Y-103140000D02*
X156975000Y-105140000D01*
X154175000Y-103140000D02*
X156975000Y-103140000D01*
X156975000Y-105140000D02*
X154175000Y-105140000D01*
G04 #@! TO.C,JP7*
X173225000Y-134255000D02*
X176025000Y-134255000D01*
X173225000Y-136255000D02*
X173225000Y-134255000D01*
X176025000Y-134255000D02*
X176025000Y-136255000D01*
X176025000Y-136255000D02*
X173225000Y-136255000D01*
G04 #@! TO.C,JP5*
X158620000Y-105140000D02*
X158620000Y-103140000D01*
X161420000Y-103140000D02*
X161420000Y-105140000D01*
X161420000Y-105140000D02*
X158620000Y-105140000D01*
X158620000Y-103140000D02*
X161420000Y-103140000D01*
G04 #@! TD*
M02*
